<?xml version="1.0" encoding="UTF-8"?><svg id="Calque_1" xmlns="http://www.w3.org/2000/svg" viewBox="0 0 1920 625.93"><defs><style>.cls-1{fill:#08aade;opacity:.1;}.cls-2{fill:#fff;}.cls-3{fill:#00abde;}</style></defs><g><path class="cls-1" d="M80,0H1840c44.15,0,80,35.85,80,80V625.93H0V80C0,35.85,35.85,0,80,0Z"/><g><path class="cls-2" d="M170.45,468.83c3.4,11.01,1.98,23.03-4.29,36.08-12.54,26.1-37.87,45.83-75.97,59.19-3.76,1.32-6.91,1.36-9.44,.15-1.46-.7-2.64-1.94-3.57-3.72s-1.04-3.39-.35-4.85,2.55-3.01,5.59-4.67c5.9-2.07,15.41-6.53,28.53-13.4,13.1-6.85,23.56-13.77,31.37-20.72-8.59,3.01-18.5,1.81-29.73-3.59-10.15-4.88-17.32-12-21.51-21.38-4.2-9.38-3.77-19.31,1.28-29.83,5.23-10.87,13.07-17.91,23.55-21.14,10.47-3.23,20.78-2.4,30.93,2.48,12.32,5.92,20.19,14.39,23.6,25.4Zm-31.17,34.21c6.72-1.46,11.74-5.62,15.05-12.51,2.79-5.8,3.27-11.92,1.46-18.37-1.81-6.45-6.51-11.5-14.13-15.16-6.16-2.96-12.79-3.57-19.86-1.85-7.08,1.73-12.28,6.04-15.58,12.92-2.96,6.16-3.22,12.28-.79,18.36,2.43,6.08,7.09,10.77,13.98,14.08,6.53,3.14,13.15,3.98,19.87,2.53Z"/><path class="cls-2" d="M170.45,279.72c3.4,11.01,1.98,23.03-4.29,36.08-12.54,26.1-37.87,45.83-75.97,59.19-3.76,1.32-6.91,1.36-9.44,.15-1.46-.7-2.64-1.94-3.57-3.72s-1.04-3.39-.35-4.85,2.55-3.01,5.59-4.67c5.9-2.07,15.41-6.53,28.53-13.4,13.1-6.85,23.56-13.77,31.37-20.72-8.59,3.01-18.5,1.81-29.73-3.59-10.15-4.88-17.32-12-21.51-21.38-4.2-9.38-3.77-19.31,1.28-29.83,5.23-10.87,13.07-17.91,23.55-21.14,10.47-3.23,20.78-2.4,30.93,2.48,12.32,5.92,20.19,14.39,23.6,25.4Zm-31.17,34.21c6.72-1.46,11.74-5.62,15.05-12.51,2.79-5.8,3.27-11.92,1.46-18.37-1.81-6.45-6.51-11.5-14.13-15.16-6.16-2.96-12.79-3.57-19.86-1.85-7.08,1.73-12.28,6.04-15.58,12.92-2.96,6.16-3.22,12.28-.79,18.36,2.43,6.08,7.09,10.77,13.98,14.08,6.53,3.14,13.15,3.98,19.87,2.53Z"/><path class="cls-2" d="M170.45,90.61c3.4,11.01,1.98,23.03-4.29,36.08-12.54,26.1-37.87,45.83-75.97,59.19-3.76,1.32-6.91,1.36-9.44,.15-1.46-.7-2.64-1.94-3.57-3.72s-1.04-3.39-.35-4.85,2.55-3.01,5.59-4.67c5.9-2.07,15.41-6.53,28.53-13.4,13.1-6.85,23.56-13.77,31.37-20.72-8.59,3.01-18.5,1.81-29.73-3.59-10.15-4.88-17.32-12-21.51-21.38-4.2-9.38-3.77-19.31,1.28-29.83,5.23-10.87,13.07-17.91,23.55-21.14,10.47-3.23,20.78-2.4,30.93,2.48,12.32,5.92,20.19,14.39,23.6,25.4Zm-31.17,34.21c6.72-1.46,11.74-5.62,15.05-12.51,2.79-5.8,3.27-11.92,1.46-18.37-1.81-6.45-6.51-11.5-14.13-15.16-6.16-2.96-12.79-3.57-19.86-1.85-7.08,1.73-12.28,6.04-15.58,12.92-2.96,6.16-3.22,12.28-.79,18.36,2.43,6.08,7.09,10.77,13.98,14.08,6.53,3.14,13.15,3.98,19.87,2.53Z"/><path class="cls-2" d="M323.97,168.79c3.4,11.01,1.98,23.03-4.29,36.08-12.54,26.1-37.87,45.83-75.97,59.19-3.76,1.32-6.91,1.36-9.44,.15-1.46-.7-2.64-1.94-3.57-3.72s-1.04-3.39-.35-4.85,2.55-3.01,5.59-4.67c5.9-2.07,15.41-6.53,28.53-13.4,13.1-6.85,23.56-13.77,31.37-20.72-8.59,3.01-18.5,1.81-29.73-3.59-10.15-4.88-17.32-12-21.51-21.38-4.2-9.38-3.77-19.31,1.28-29.83,5.23-10.87,13.07-17.91,23.55-21.14,10.47-3.23,20.78-2.4,30.93,2.48,12.32,5.92,20.19,14.39,23.6,25.4Zm-31.17,34.21c6.72-1.46,11.74-5.62,15.05-12.51,2.79-5.8,3.27-11.92,1.46-18.37-1.81-6.45-6.51-11.5-14.13-15.16-6.16-2.96-12.79-3.57-19.86-1.85-7.08,1.73-12.28,6.04-15.58,12.92-2.96,6.16-3.22,12.28-.79,18.36,2.43,6.08,7.09,10.77,13.98,14.08,6.53,3.14,13.15,3.98,19.87,2.53Z"/><path class="cls-2" d="M323.97,362.68c3.4,11.01,1.98,23.03-4.29,36.08-12.54,26.1-37.87,45.83-75.97,59.19-3.76,1.32-6.91,1.36-9.44,.15-1.46-.7-2.64-1.94-3.57-3.72s-1.04-3.39-.35-4.85,2.55-3.01,5.59-4.67c5.9-2.07,15.41-6.53,28.53-13.4,13.1-6.85,23.56-13.77,31.37-20.72-8.59,3.01-18.5,1.81-29.73-3.59-10.15-4.88-17.32-12-21.51-21.38-4.2-9.38-3.77-19.31,1.28-29.83s13.07-17.91,23.55-21.14c10.47-3.23,20.78-2.4,30.93,2.48,12.32,5.92,20.19,14.39,23.6,25.4Zm-31.17,34.21c6.72-1.46,11.74-5.62,15.05-12.51,2.79-5.8,3.27-11.92,1.46-18.37-1.81-6.45-6.51-11.5-14.13-15.16-6.16-2.96-12.79-3.57-19.86-1.85-7.08,1.73-12.28,6.04-15.58,12.92-2.96,6.16-3.22,12.28-.79,18.36,2.43,6.08,7.09,10.77,13.98,14.08,6.53,3.14,13.15,3.98,19.87,2.53Z"/><path class="cls-2" d="M474.02,468.83c3.4,11.01,1.98,23.03-4.29,36.08-12.54,26.1-37.87,45.83-75.97,59.19-3.76,1.32-6.91,1.36-9.44,.15-1.46-.7-2.64-1.94-3.57-3.72s-1.04-3.39-.35-4.85,2.55-3.01,5.59-4.67c5.9-2.07,15.41-6.53,28.53-13.4,13.1-6.85,23.56-13.77,31.37-20.72-8.59,3.01-18.5,1.81-29.73-3.59-10.15-4.88-17.32-12-21.51-21.38-4.2-9.38-3.77-19.31,1.28-29.83,5.23-10.87,13.07-17.91,23.55-21.14,10.47-3.23,20.78-2.4,30.93,2.48,12.32,5.92,20.19,14.39,23.6,25.4Zm-31.17,34.21c6.72-1.46,11.74-5.62,15.05-12.51,2.79-5.8,3.27-11.92,1.46-18.37-1.81-6.45-6.51-11.5-14.13-15.16-6.16-2.96-12.79-3.57-19.86-1.85-7.08,1.73-12.28,6.04-15.58,12.92-2.96,6.16-3.22,12.28-.79,18.36,2.43,6.08,7.09,10.77,13.98,14.08,6.53,3.14,13.15,3.98,19.87,2.53Z"/><path class="cls-2" d="M474.02,279.72c3.4,11.01,1.98,23.03-4.29,36.08-12.54,26.1-37.87,45.83-75.97,59.19-3.76,1.32-6.91,1.36-9.44,.15-1.46-.7-2.64-1.94-3.57-3.72s-1.04-3.39-.35-4.85,2.55-3.01,5.59-4.67c5.9-2.07,15.41-6.53,28.53-13.4,13.1-6.85,23.56-13.77,31.37-20.72-8.59,3.01-18.5,1.81-29.73-3.59-10.15-4.88-17.32-12-21.51-21.38-4.2-9.38-3.77-19.31,1.28-29.83,5.23-10.87,13.07-17.91,23.55-21.14,10.47-3.23,20.78-2.4,30.93,2.48,12.32,5.92,20.19,14.39,23.6,25.4Zm-31.17,34.21c6.72-1.46,11.74-5.62,15.05-12.51,2.79-5.8,3.27-11.92,1.46-18.37-1.81-6.45-6.51-11.5-14.13-15.16-6.16-2.96-12.79-3.57-19.86-1.85-7.08,1.73-12.28,6.04-15.58,12.92-2.96,6.16-3.22,12.28-.79,18.36,2.43,6.08,7.09,10.77,13.98,14.08,6.53,3.14,13.15,3.98,19.87,2.53Z"/><path class="cls-2" d="M474.02,90.61c3.4,11.01,1.98,23.03-4.29,36.08-12.54,26.1-37.87,45.83-75.97,59.19-3.76,1.32-6.91,1.36-9.44,.15-1.46-.7-2.64-1.94-3.57-3.72s-1.04-3.39-.35-4.85,2.55-3.01,5.59-4.67c5.9-2.07,15.41-6.53,28.53-13.4,13.1-6.85,23.56-13.77,31.37-20.72-8.59,3.01-18.5,1.81-29.73-3.59-10.15-4.88-17.32-12-21.51-21.38-4.2-9.38-3.77-19.31,1.28-29.83,5.23-10.87,13.07-17.91,23.55-21.14,10.47-3.23,20.78-2.4,30.93,2.48,12.32,5.92,20.19,14.39,23.6,25.4Zm-31.17,34.21c6.72-1.46,11.74-5.62,15.05-12.51,2.79-5.8,3.27-11.92,1.46-18.37-1.81-6.45-6.51-11.5-14.13-15.16-6.16-2.96-12.79-3.57-19.86-1.85-7.08,1.73-12.28,6.04-15.58,12.92-2.96,6.16-3.22,12.28-.79,18.36,2.43,6.08,7.09,10.77,13.98,14.08,6.53,3.14,13.15,3.98,19.87,2.53Z"/><path class="cls-2" d="M627.54,168.79c3.4,11.01,1.98,23.03-4.29,36.08-12.54,26.1-37.87,45.83-75.97,59.19-3.76,1.32-6.91,1.36-9.44,.15-1.46-.7-2.64-1.94-3.57-3.72s-1.04-3.39-.35-4.85,2.55-3.01,5.59-4.67c5.9-2.07,15.41-6.53,28.53-13.4,13.1-6.85,23.56-13.77,31.37-20.72-8.59,3.01-18.5,1.81-29.73-3.59-10.15-4.88-17.32-12-21.51-21.38-4.2-9.38-3.77-19.31,1.28-29.83,5.23-10.87,13.07-17.91,23.55-21.14,10.47-3.23,20.78-2.4,30.93,2.48,12.32,5.92,20.19,14.39,23.6,25.4Zm-31.17,34.21c6.72-1.46,11.74-5.62,15.05-12.51,2.79-5.8,3.27-11.92,1.46-18.37-1.81-6.45-6.51-11.5-14.13-15.16-6.16-2.96-12.79-3.57-19.86-1.85-7.08,1.73-12.28,6.04-15.58,12.92-2.96,6.16-3.22,12.28-.79,18.36,2.43,6.08,7.09,10.77,13.98,14.08,6.53,3.14,13.15,3.98,19.87,2.53Z"/><path class="cls-2" d="M627.54,362.68c3.4,11.01,1.98,23.03-4.29,36.08-12.54,26.1-37.87,45.83-75.97,59.19-3.76,1.32-6.91,1.36-9.44,.15-1.46-.7-2.64-1.94-3.57-3.72s-1.04-3.39-.35-4.85,2.55-3.01,5.59-4.67c5.9-2.07,15.41-6.53,28.53-13.4,13.1-6.85,23.56-13.77,31.37-20.72-8.59,3.01-18.5,1.81-29.73-3.59-10.15-4.88-17.32-12-21.51-21.38-4.2-9.38-3.77-19.31,1.28-29.83,5.23-10.87,13.07-17.91,23.55-21.14,10.47-3.23,20.78-2.4,30.93,2.48,12.32,5.92,20.19,14.39,23.6,25.4Zm-31.17,34.21c6.72-1.46,11.74-5.62,15.05-12.51,2.79-5.8,3.27-11.92,1.46-18.37-1.81-6.45-6.51-11.5-14.13-15.16-6.16-2.96-12.79-3.57-19.86-1.85-7.08,1.73-12.28,6.04-15.58,12.92-2.96,6.16-3.22,12.28-.79,18.36,2.43,6.08,7.09,10.77,13.98,14.08,6.53,3.14,13.15,3.98,19.87,2.53Z"/><path class="cls-2" d="M777.59,468.83c3.4,11.01,1.98,23.03-4.29,36.08-12.54,26.1-37.87,45.83-75.97,59.19-3.76,1.32-6.91,1.36-9.44,.15-1.46-.7-2.64-1.94-3.57-3.72s-1.04-3.39-.35-4.85,2.55-3.01,5.59-4.67c5.9-2.07,15.41-6.53,28.53-13.4,13.1-6.85,23.56-13.77,31.37-20.72-8.59,3.01-18.5,1.81-29.73-3.59-10.15-4.88-17.32-12-21.51-21.38-4.2-9.38-3.77-19.31,1.28-29.83,5.23-10.87,13.07-17.91,23.55-21.14,10.47-3.23,20.78-2.4,30.93,2.48,12.32,5.92,20.19,14.39,23.6,25.4Zm-31.17,34.21c6.72-1.46,11.74-5.62,15.05-12.51,2.79-5.8,3.27-11.92,1.46-18.37-1.81-6.45-6.51-11.5-14.13-15.16-6.16-2.96-12.79-3.57-19.86-1.85-7.08,1.73-12.28,6.04-15.58,12.92-2.96,6.16-3.22,12.28-.79,18.36,2.43,6.08,7.09,10.77,13.98,14.08,6.53,3.14,13.15,3.98,19.87,2.53Z"/><path class="cls-2" d="M777.59,279.72c3.4,11.01,1.98,23.03-4.29,36.08-12.54,26.1-37.87,45.83-75.97,59.19-3.76,1.32-6.91,1.36-9.44,.15-1.46-.7-2.64-1.94-3.57-3.72s-1.04-3.39-.35-4.85,2.55-3.01,5.59-4.67c5.9-2.07,15.41-6.53,28.53-13.4,13.1-6.85,23.56-13.77,31.37-20.72-8.59,3.01-18.5,1.81-29.73-3.59-10.15-4.88-17.32-12-21.51-21.38-4.2-9.38-3.77-19.31,1.28-29.83,5.23-10.87,13.07-17.91,23.55-21.14,10.47-3.23,20.78-2.4,30.93,2.48,12.32,5.92,20.19,14.39,23.6,25.4Zm-31.17,34.21c6.72-1.46,11.74-5.62,15.05-12.51,2.79-5.8,3.27-11.92,1.46-18.37-1.81-6.45-6.51-11.5-14.13-15.16-6.16-2.96-12.79-3.57-19.86-1.85-7.08,1.73-12.28,6.04-15.58,12.92-2.96,6.16-3.22,12.28-.79,18.36,2.43,6.08,7.09,10.77,13.98,14.08,6.53,3.14,13.15,3.98,19.87,2.53Z"/><path class="cls-2" d="M777.59,90.61c3.4,11.01,1.98,23.03-4.29,36.08-12.54,26.1-37.87,45.83-75.97,59.19-3.76,1.32-6.91,1.36-9.44,.15-1.46-.7-2.64-1.94-3.57-3.72s-1.04-3.39-.35-4.85,2.55-3.01,5.59-4.67c5.9-2.07,15.41-6.53,28.53-13.4,13.1-6.85,23.56-13.77,31.37-20.72-8.59,3.01-18.5,1.81-29.73-3.59-10.15-4.88-17.32-12-21.51-21.38-4.2-9.38-3.77-19.31,1.28-29.83,5.23-10.87,13.07-17.91,23.55-21.14,10.47-3.23,20.78-2.4,30.93,2.48,12.32,5.92,20.19,14.39,23.6,25.4Zm-31.17,34.21c6.72-1.46,11.74-5.62,15.05-12.51,2.79-5.8,3.27-11.92,1.46-18.37-1.81-6.45-6.51-11.5-14.13-15.16-6.16-2.96-12.79-3.57-19.86-1.85-7.08,1.73-12.28,6.04-15.58,12.92-2.96,6.16-3.22,12.28-.79,18.36,2.43,6.08,7.09,10.77,13.98,14.08,6.53,3.14,13.15,3.98,19.87,2.53Z"/><path class="cls-2" d="M931.11,168.79c3.4,11.01,1.98,23.03-4.29,36.08-12.54,26.1-37.87,45.83-75.97,59.19-3.76,1.32-6.91,1.36-9.44,.15-1.46-.7-2.64-1.94-3.57-3.72s-1.04-3.39-.35-4.85,2.55-3.01,5.59-4.67c5.9-2.07,15.41-6.53,28.53-13.4,13.1-6.85,23.56-13.77,31.37-20.72-8.59,3.01-18.5,1.81-29.73-3.59-10.15-4.88-17.32-12-21.51-21.38-4.2-9.38-3.77-19.31,1.28-29.83,5.23-10.87,13.07-17.91,23.55-21.14,10.47-3.23,20.78-2.4,30.93,2.48,12.32,5.92,20.19,14.39,23.6,25.4Zm-31.17,34.21c6.72-1.46,11.74-5.62,15.05-12.51,2.79-5.8,3.27-11.92,1.46-18.37-1.81-6.45-6.51-11.5-14.13-15.16-6.16-2.96-12.79-3.57-19.86-1.85-7.08,1.73-12.28,6.04-15.58,12.92-2.96,6.16-3.22,12.28-.79,18.36,2.43,6.08,7.09,10.77,13.98,14.08,6.53,3.14,13.15,3.98,19.87,2.53Z"/><path class="cls-2" d="M931.11,362.68c3.4,11.01,1.98,23.03-4.29,36.08-12.54,26.1-37.87,45.83-75.97,59.19-3.76,1.32-6.91,1.36-9.44,.15-1.46-.7-2.64-1.94-3.57-3.72s-1.04-3.39-.35-4.85,2.55-3.01,5.59-4.67c5.9-2.07,15.41-6.53,28.53-13.4,13.1-6.85,23.56-13.77,31.37-20.72-8.59,3.01-18.5,1.81-29.73-3.59-10.15-4.88-17.32-12-21.51-21.38-4.2-9.38-3.77-19.31,1.28-29.83,5.23-10.87,13.07-17.91,23.55-21.14,10.47-3.23,20.78-2.4,30.93,2.48,12.32,5.92,20.19,14.39,23.6,25.4Zm-31.17,34.21c6.72-1.46,11.74-5.62,15.05-12.51,2.79-5.8,3.27-11.92,1.46-18.37-1.81-6.45-6.51-11.5-14.13-15.16-6.16-2.96-12.79-3.57-19.86-1.85-7.08,1.73-12.28,6.04-15.58,12.92-2.96,6.16-3.22,12.28-.79,18.36,2.43,6.08,7.09,10.77,13.98,14.08,6.53,3.14,13.15,3.98,19.87,2.53Z"/><path class="cls-2" d="M1081.15,468.83c3.4,11.01,1.98,23.03-4.29,36.08-12.54,26.1-37.87,45.83-75.97,59.19-3.76,1.32-6.91,1.36-9.44,.15-1.46-.7-2.64-1.94-3.57-3.72s-1.04-3.39-.35-4.85,2.55-3.01,5.59-4.67c5.9-2.07,15.41-6.53,28.53-13.4,13.1-6.85,23.56-13.77,31.37-20.72-8.59,3.01-18.5,1.81-29.73-3.59-10.15-4.88-17.32-12-21.51-21.38-4.2-9.38-3.77-19.31,1.28-29.83,5.23-10.87,13.07-17.91,23.55-21.14,10.47-3.23,20.78-2.4,30.93,2.48,12.32,5.92,20.19,14.39,23.6,25.4Zm-31.17,34.21c6.72-1.46,11.74-5.62,15.05-12.51,2.79-5.8,3.27-11.92,1.46-18.37-1.81-6.45-6.51-11.5-14.13-15.16-6.16-2.96-12.79-3.57-19.86-1.85-7.08,1.73-12.28,6.04-15.58,12.92-2.96,6.16-3.22,12.28-.79,18.36,2.43,6.08,7.09,10.77,13.98,14.08,6.53,3.14,13.15,3.98,19.87,2.53Z"/><path class="cls-2" d="M1081.15,279.72c3.4,11.01,1.98,23.03-4.29,36.08-12.54,26.1-37.87,45.83-75.97,59.19-3.76,1.32-6.91,1.36-9.44,.15-1.46-.7-2.64-1.94-3.57-3.72s-1.04-3.39-.35-4.85,2.55-3.01,5.59-4.67c5.9-2.07,15.41-6.53,28.53-13.4,13.1-6.85,23.56-13.77,31.37-20.72-8.59,3.01-18.5,1.81-29.73-3.59-10.15-4.88-17.32-12-21.51-21.38-4.2-9.38-3.77-19.31,1.28-29.83,5.23-10.87,13.07-17.91,23.55-21.14,10.47-3.23,20.78-2.4,30.93,2.48,12.32,5.92,20.19,14.39,23.6,25.4Zm-31.17,34.21c6.72-1.46,11.74-5.62,15.05-12.51,2.79-5.8,3.27-11.92,1.46-18.37-1.81-6.45-6.51-11.5-14.13-15.16-6.16-2.96-12.79-3.57-19.86-1.85-7.08,1.73-12.28,6.04-15.58,12.92-2.96,6.16-3.22,12.28-.79,18.36,2.43,6.08,7.09,10.77,13.98,14.08,6.53,3.14,13.15,3.98,19.87,2.53Z"/><path class="cls-2" d="M1081.15,90.61c3.4,11.01,1.98,23.03-4.29,36.08-12.54,26.1-37.87,45.83-75.97,59.19-3.76,1.32-6.91,1.36-9.44,.15-1.46-.7-2.64-1.94-3.57-3.72s-1.04-3.39-.35-4.85,2.55-3.01,5.59-4.67c5.9-2.07,15.41-6.53,28.53-13.4,13.1-6.85,23.56-13.77,31.37-20.72-8.59,3.01-18.5,1.81-29.73-3.59-10.15-4.88-17.32-12-21.51-21.38-4.2-9.38-3.77-19.31,1.28-29.83,5.23-10.87,13.07-17.91,23.55-21.14,10.47-3.23,20.78-2.4,30.93,2.48,12.32,5.92,20.19,14.39,23.6,25.4Zm-31.17,34.21c6.72-1.46,11.74-5.62,15.05-12.51,2.79-5.8,3.27-11.92,1.46-18.37-1.81-6.45-6.51-11.5-14.13-15.16-6.16-2.96-12.79-3.57-19.86-1.85-7.08,1.73-12.28,6.04-15.58,12.92-2.96,6.16-3.22,12.28-.79,18.36,2.43,6.08,7.09,10.77,13.98,14.08,6.53,3.14,13.15,3.98,19.87,2.53Z"/><path class="cls-2" d="M1234.68,168.79c3.4,11.01,1.98,23.03-4.29,36.08-12.54,26.1-37.87,45.83-75.97,59.19-3.76,1.32-6.91,1.36-9.44,.15-1.46-.7-2.64-1.94-3.57-3.72s-1.04-3.39-.35-4.85c.69-1.44,2.55-3.01,5.59-4.67,5.9-2.07,15.41-6.53,28.53-13.4,13.1-6.85,23.56-13.77,31.37-20.72-8.59,3.01-18.5,1.81-29.73-3.59-10.15-4.88-17.32-12-21.51-21.38-4.2-9.38-3.77-19.31,1.28-29.83,5.23-10.87,13.07-17.91,23.55-21.14,10.47-3.23,20.78-2.4,30.93,2.48,12.32,5.92,20.19,14.39,23.6,25.4Zm-31.17,34.21c6.72-1.46,11.74-5.62,15.05-12.51,2.79-5.8,3.27-11.92,1.46-18.37-1.81-6.45-6.51-11.5-14.13-15.16-6.16-2.96-12.79-3.57-19.86-1.85-7.08,1.73-12.28,6.04-15.58,12.92-2.96,6.16-3.22,12.28-.79,18.36,2.43,6.08,7.09,10.77,13.98,14.08,6.53,3.14,13.15,3.98,19.87,2.53Z"/><path class="cls-2" d="M1234.68,362.68c3.4,11.01,1.98,23.03-4.29,36.08-12.54,26.1-37.87,45.83-75.97,59.19-3.76,1.32-6.91,1.36-9.44,.15-1.46-.7-2.64-1.94-3.57-3.72s-1.04-3.39-.35-4.85c.69-1.44,2.55-3.01,5.59-4.67,5.9-2.07,15.41-6.53,28.53-13.4,13.1-6.85,23.56-13.77,31.37-20.72-8.59,3.01-18.5,1.81-29.73-3.59-10.15-4.88-17.32-12-21.51-21.38-4.2-9.38-3.77-19.31,1.28-29.83,5.23-10.87,13.07-17.91,23.55-21.14,10.47-3.23,20.78-2.4,30.93,2.48,12.32,5.92,20.19,14.39,23.6,25.4Zm-31.17,34.21c6.72-1.46,11.74-5.62,15.05-12.51,2.79-5.8,3.27-11.92,1.46-18.37-1.81-6.45-6.51-11.5-14.13-15.16-6.16-2.96-12.79-3.57-19.86-1.85-7.08,1.73-12.28,6.04-15.58,12.92-2.96,6.16-3.22,12.28-.79,18.36,2.43,6.08,7.09,10.77,13.98,14.08,6.53,3.14,13.15,3.98,19.87,2.53Z"/><path class="cls-2" d="M1384.72,468.83c3.4,11.01,1.98,23.03-4.29,36.08-12.54,26.1-37.87,45.83-75.97,59.19-3.76,1.32-6.91,1.36-9.44,.15-1.46-.7-2.64-1.94-3.57-3.72s-1.04-3.39-.35-4.85,2.55-3.01,5.59-4.67c5.9-2.07,15.41-6.53,28.53-13.4,13.1-6.85,23.56-13.77,31.37-20.72-8.59,3.01-18.5,1.81-29.73-3.59-10.15-4.88-17.32-12-21.51-21.38-4.2-9.38-3.77-19.31,1.28-29.83,5.23-10.87,13.07-17.91,23.55-21.14,10.47-3.23,20.78-2.4,30.93,2.48,12.32,5.92,20.19,14.39,23.6,25.4Zm-31.17,34.21c6.72-1.46,11.74-5.62,15.05-12.51,2.79-5.8,3.27-11.92,1.46-18.37-1.81-6.45-6.51-11.5-14.13-15.16-6.16-2.96-12.79-3.57-19.86-1.85-7.08,1.73-12.28,6.04-15.58,12.92-2.96,6.16-3.22,12.28-.79,18.36,2.43,6.08,7.09,10.77,13.98,14.08,6.53,3.14,13.15,3.98,19.87,2.53Z"/><path class="cls-2" d="M1384.72,279.72c3.4,11.01,1.98,23.03-4.29,36.08-12.54,26.1-37.87,45.83-75.97,59.19-3.76,1.32-6.91,1.36-9.44,.15-1.46-.7-2.64-1.94-3.57-3.72s-1.04-3.39-.35-4.85,2.55-3.01,5.59-4.67c5.9-2.07,15.41-6.53,28.53-13.4,13.1-6.85,23.56-13.77,31.37-20.72-8.59,3.01-18.5,1.81-29.73-3.59-10.15-4.88-17.32-12-21.51-21.38-4.2-9.38-3.77-19.31,1.28-29.83,5.23-10.87,13.07-17.91,23.55-21.14,10.47-3.23,20.78-2.4,30.93,2.48,12.32,5.92,20.19,14.39,23.6,25.4Zm-31.17,34.21c6.72-1.46,11.74-5.62,15.05-12.51,2.79-5.8,3.27-11.92,1.46-18.37-1.81-6.45-6.51-11.5-14.13-15.16-6.16-2.96-12.79-3.57-19.86-1.85-7.08,1.73-12.28,6.04-15.58,12.92-2.96,6.16-3.22,12.28-.79,18.36,2.43,6.08,7.09,10.77,13.98,14.08,6.53,3.14,13.15,3.98,19.87,2.53Z"/><path class="cls-2" d="M1384.72,90.61c3.4,11.01,1.98,23.03-4.29,36.08-12.54,26.1-37.87,45.83-75.97,59.19-3.76,1.32-6.91,1.36-9.44,.15-1.46-.7-2.64-1.94-3.57-3.72s-1.04-3.39-.35-4.85,2.55-3.01,5.59-4.67c5.9-2.07,15.41-6.53,28.53-13.4,13.1-6.85,23.56-13.77,31.37-20.72-8.59,3.01-18.5,1.81-29.73-3.59-10.15-4.88-17.32-12-21.51-21.38-4.2-9.38-3.77-19.31,1.28-29.83,5.23-10.87,13.07-17.91,23.55-21.14,10.47-3.23,20.78-2.4,30.93,2.48,12.32,5.92,20.19,14.39,23.6,25.4Zm-31.17,34.21c6.72-1.46,11.74-5.62,15.05-12.51,2.79-5.8,3.27-11.92,1.46-18.37-1.81-6.45-6.51-11.5-14.13-15.16-6.16-2.96-12.79-3.57-19.86-1.85-7.08,1.73-12.28,6.04-15.58,12.92-2.96,6.16-3.22,12.28-.79,18.36,2.43,6.08,7.09,10.77,13.98,14.08,6.53,3.14,13.15,3.98,19.87,2.53Z"/><path class="cls-2" d="M1538.25,168.79c3.4,11.01,1.98,23.03-4.29,36.08-12.54,26.1-37.87,45.83-75.97,59.19-3.76,1.32-6.91,1.36-9.44,.15-1.46-.7-2.64-1.94-3.57-3.72s-1.04-3.39-.35-4.85,2.55-3.01,5.59-4.67c5.9-2.07,15.41-6.53,28.53-13.4,13.1-6.85,23.56-13.77,31.37-20.72-8.59,3.01-18.5,1.81-29.73-3.59-10.15-4.88-17.32-12-21.51-21.38-4.2-9.38-3.77-19.31,1.28-29.83,5.23-10.87,13.07-17.91,23.55-21.14,10.47-3.23,20.78-2.4,30.93,2.48,12.32,5.92,20.19,14.39,23.6,25.4Zm-31.17,34.21c6.72-1.46,11.74-5.62,15.05-12.51,2.79-5.8,3.27-11.92,1.46-18.37-1.81-6.45-6.51-11.5-14.13-15.16-6.16-2.96-12.79-3.57-19.86-1.85-7.08,1.73-12.28,6.04-15.58,12.92-2.96,6.16-3.22,12.28-.79,18.36,2.43,6.08,7.09,10.77,13.98,14.08,6.53,3.14,13.15,3.98,19.87,2.53Z"/><path class="cls-2" d="M1538.25,362.68c3.4,11.01,1.98,23.03-4.29,36.08-12.54,26.1-37.87,45.83-75.97,59.19-3.76,1.32-6.91,1.36-9.44,.15-1.46-.7-2.64-1.94-3.57-3.72s-1.04-3.39-.35-4.85,2.55-3.01,5.59-4.67c5.9-2.07,15.41-6.53,28.53-13.4,13.1-6.85,23.56-13.77,31.37-20.72-8.59,3.01-18.5,1.81-29.73-3.59-10.15-4.88-17.32-12-21.51-21.38-4.2-9.38-3.77-19.31,1.28-29.83,5.23-10.87,13.07-17.91,23.55-21.14,10.47-3.23,20.78-2.4,30.93,2.48,12.32,5.92,20.19,14.39,23.6,25.4Zm-31.17,34.21c6.72-1.46,11.74-5.62,15.05-12.51,2.79-5.8,3.27-11.92,1.46-18.37-1.81-6.45-6.51-11.5-14.13-15.16-6.16-2.96-12.79-3.57-19.86-1.85-7.08,1.73-12.28,6.04-15.58,12.92-2.96,6.16-3.22,12.28-.79,18.36,2.43,6.08,7.09,10.77,13.98,14.08,6.53,3.14,13.15,3.98,19.87,2.53Z"/><path class="cls-2" d="M1688.29,468.83c3.4,11.01,1.98,23.03-4.29,36.08-12.54,26.1-37.87,45.83-75.97,59.19-3.76,1.32-6.91,1.36-9.44,.15-1.46-.7-2.64-1.94-3.57-3.72-.93-1.78-1.04-3.39-.35-4.85s2.55-3.01,5.59-4.67c5.9-2.07,15.41-6.53,28.53-13.4,13.1-6.85,23.56-13.77,31.37-20.72-8.59,3.01-18.5,1.81-29.73-3.59-10.15-4.88-17.32-12-21.51-21.38-4.2-9.38-3.77-19.31,1.28-29.83,5.23-10.87,13.07-17.91,23.55-21.14,10.47-3.23,20.78-2.4,30.93,2.48,12.32,5.92,20.19,14.39,23.6,25.4Zm-31.17,34.21c6.72-1.46,11.74-5.62,15.05-12.51,2.79-5.8,3.27-11.92,1.46-18.37-1.81-6.45-6.51-11.5-14.13-15.16-6.16-2.96-12.79-3.57-19.86-1.85-7.08,1.73-12.28,6.04-15.58,12.92-2.96,6.16-3.22,12.28-.79,18.36,2.43,6.08,7.09,10.77,13.98,14.08,6.53,3.14,13.15,3.98,19.87,2.53Z"/><path class="cls-2" d="M1688.29,279.72c3.4,11.01,1.98,23.03-4.29,36.08-12.54,26.1-37.87,45.83-75.97,59.19-3.76,1.32-6.91,1.36-9.44,.15-1.46-.7-2.64-1.94-3.57-3.72-.93-1.78-1.04-3.39-.35-4.85s2.55-3.01,5.59-4.67c5.9-2.07,15.41-6.53,28.53-13.4,13.1-6.85,23.56-13.77,31.37-20.72-8.59,3.01-18.5,1.81-29.73-3.59-10.15-4.88-17.32-12-21.51-21.38-4.2-9.38-3.77-19.31,1.28-29.83,5.23-10.87,13.07-17.91,23.55-21.14,10.47-3.23,20.78-2.4,30.93,2.48,12.32,5.92,20.19,14.39,23.6,25.4Zm-31.17,34.21c6.72-1.46,11.74-5.62,15.05-12.51,2.79-5.8,3.27-11.92,1.46-18.37-1.81-6.45-6.51-11.5-14.13-15.16-6.16-2.96-12.79-3.57-19.86-1.85-7.08,1.73-12.28,6.04-15.58,12.92-2.96,6.16-3.22,12.28-.79,18.36,2.43,6.08,7.09,10.77,13.98,14.08,6.53,3.14,13.15,3.98,19.87,2.53Z"/><path class="cls-2" d="M1688.29,90.61c3.4,11.01,1.98,23.03-4.29,36.08-12.54,26.1-37.87,45.83-75.97,59.19-3.76,1.32-6.91,1.36-9.44,.15-1.46-.7-2.64-1.94-3.57-3.72-.93-1.78-1.04-3.39-.35-4.85s2.55-3.01,5.59-4.67c5.9-2.07,15.41-6.53,28.53-13.4,13.1-6.85,23.56-13.77,31.37-20.72-8.59,3.01-18.5,1.81-29.73-3.59-10.15-4.88-17.32-12-21.51-21.38-4.2-9.38-3.77-19.31,1.28-29.83,5.23-10.87,13.07-17.91,23.55-21.14,10.47-3.23,20.78-2.4,30.93,2.48,12.32,5.92,20.19,14.39,23.6,25.4Zm-31.17,34.21c6.72-1.46,11.74-5.62,15.05-12.51,2.79-5.8,3.27-11.92,1.46-18.37-1.81-6.45-6.51-11.5-14.13-15.16-6.16-2.96-12.79-3.57-19.86-1.85-7.08,1.73-12.28,6.04-15.58,12.92-2.96,6.16-3.22,12.28-.79,18.36,2.43,6.08,7.09,10.77,13.98,14.08,6.53,3.14,13.15,3.98,19.87,2.53Z"/><path class="cls-2" d="M1841.82,168.79c3.4,11.01,1.98,23.03-4.29,36.08-12.54,26.1-37.87,45.83-75.97,59.19-3.76,1.32-6.91,1.36-9.44,.15-1.46-.7-2.64-1.94-3.57-3.72s-1.04-3.39-.35-4.85,2.55-3.01,5.59-4.67c5.9-2.07,15.41-6.53,28.53-13.4,13.1-6.85,23.56-13.77,31.37-20.72-8.59,3.01-18.5,1.81-29.73-3.59-10.15-4.88-17.32-12-21.51-21.38-4.2-9.38-3.77-19.31,1.28-29.83,5.23-10.87,13.07-17.91,23.55-21.14,10.47-3.23,20.78-2.4,30.93,2.48,12.32,5.92,20.19,14.39,23.6,25.4Zm-31.17,34.21c6.72-1.46,11.74-5.62,15.05-12.51,2.79-5.8,3.27-11.92,1.46-18.37-1.81-6.45-6.51-11.5-14.13-15.16-6.16-2.96-12.79-3.57-19.86-1.85-7.08,1.73-12.28,6.04-15.58,12.92-2.96,6.16-3.22,12.28-.79,18.36,2.43,6.08,7.09,10.77,13.98,14.08,6.53,3.14,13.15,3.98,19.87,2.53Z"/><path class="cls-2" d="M1841.82,362.68c3.4,11.01,1.98,23.03-4.29,36.08-12.54,26.1-37.87,45.83-75.97,59.19-3.76,1.32-6.91,1.36-9.44,.15-1.46-.7-2.64-1.94-3.57-3.72s-1.04-3.39-.35-4.85,2.55-3.01,5.59-4.67c5.9-2.07,15.41-6.53,28.53-13.4,13.1-6.85,23.56-13.77,31.37-20.72-8.59,3.01-18.5,1.81-29.73-3.59-10.15-4.88-17.32-12-21.51-21.38-4.2-9.38-3.77-19.31,1.28-29.83,5.23-10.87,13.07-17.91,23.55-21.14,10.47-3.23,20.78-2.4,30.93,2.48,12.32,5.92,20.19,14.39,23.6,25.4Zm-31.17,34.21c6.72-1.46,11.74-5.62,15.05-12.51,2.79-5.8,3.27-11.92,1.46-18.37-1.81-6.45-6.51-11.5-14.13-15.16-6.16-2.96-12.79-3.57-19.86-1.85-7.08,1.73-12.28,6.04-15.58,12.92-2.96,6.16-3.22,12.28-.79,18.36,2.43,6.08,7.09,10.77,13.98,14.08,6.53,3.14,13.15,3.98,19.87,2.53Z"/></g></g><g><path class="cls-3" d="M743,274.12c6.18,4.73,9.26,11.38,9.26,19.93,0,6.06-1.54,11.38-4.63,15.94-3.09,4.56-7.51,8.09-13.26,10.58-5.75,2.49-12.45,3.74-20.1,3.74h-5.7c-2.04,0-3.53-.35-4.46-1.06-.94-.71-1.4-1.91-1.4-3.61,0-3,1.36-4.51,4.08-4.51h1.53l-1.1-40.71h-.51c-1.25,0-2.24-.35-2.98-1.06-.74-.71-1.1-1.83-1.1-3.36,0-1.7,.41-2.93,1.23-3.7,.82-.76,1.88-1.15,3.19-1.15h1.02c.79-.96,2.18-1.45,4.17-1.45,2.15,0,3.63,.62,4.42,1.87,11.39,.96,20.17,3.81,26.35,8.54Zm-12.45,37.61c3.48-1.76,6.25-4.15,8.29-7.18,2.04-3.03,3.06-6.53,3.06-10.5,0-10.94-8.08-17.31-24.23-19.12l1.02,40.03c4.42-.4,8.37-1.47,11.86-3.23Z"/><path class="cls-3" d="M771.01,322.57c-3.49-1.95-6.11-4.62-7.86-7.99-1.76-3.37-2.63-7.15-2.63-11.35s.98-7.98,2.93-11.35c1.96-3.37,4.65-6.01,8.08-7.91,3.43-1.9,7.3-2.85,11.6-2.85,3.91,0,7.42,.77,10.54,2.3,3.12,1.53,5.58,3.71,7.4,6.54,1.81,2.83,2.72,6.12,2.72,9.86,0,2.21-.35,3.78-1.06,4.72-.71,.93-2.03,1.4-3.95,1.4l-29.16,.25c0,1.59,.54,3.23,1.62,4.93,1.08,1.7,2.66,3.13,4.76,4.29,2.1,1.16,4.56,1.74,7.4,1.74,1.93,0,3.56-.24,4.89-.72,1.33-.48,2.42-1.06,3.27-1.74,.85-.68,1.84-1.62,2.98-2.8,.85-.85,1.78-1.28,2.8-1.28,1.08,0,2.11,.43,3.1,1.28,.99,.85,1.49,1.81,1.49,2.89,0,.79-.31,1.67-.94,2.64-1.36,2.04-3.41,3.9-6.16,5.57-2.75,1.67-6.45,2.51-11.09,2.51-4.99,0-9.22-.98-12.71-2.93Zm23.16-23.42c.45,0,.75-.08,.89-.25,.14-.17,.21-.48,.21-.94,0-2.61-1.16-4.76-3.48-6.46-2.32-1.7-5.21-2.55-8.67-2.55-2.66,0-5.03,.58-7.1,1.74-2.07,1.16-3.65,2.58-4.76,4.25-1.1,1.67-1.66,3.16-1.66,4.46l24.56-.25Z"/><path class="cls-3" d="M818.82,322.7c-2.95-1.87-5.1-4.31-6.46-7.31-.4-.96-.57-1.7-.51-2.21,.11-1.02,.68-1.96,1.7-2.81,1.02-.85,2.12-1.27,3.31-1.27,.79,0,1.42,.18,1.87,.55,.45,.37,.96,.89,1.53,1.57,1.59,2.04,3,3.53,4.25,4.46,1.25,.94,2.8,1.4,4.67,1.4,1.76,0,3.24-.4,4.46-1.19,1.22-.79,1.83-1.84,1.83-3.15,0-1.42-.67-2.51-2-3.27-1.33-.76-3.47-1.66-6.42-2.68-3-1.02-5.43-1.98-7.27-2.89-1.84-.91-3.43-2.22-4.76-3.95-1.33-1.73-2-3.92-2-6.59s.74-4.9,2.21-6.88c1.47-1.98,3.47-3.51,5.99-4.59,2.52-1.08,5.28-1.62,8.29-1.62,3.17,0,5.94,.59,8.29,1.79,2.35,1.19,4.15,2.76,5.4,4.72,1.25,1.96,1.87,4.07,1.87,6.33,0,1.42-.35,2.46-1.06,3.15-.71,.68-1.88,1.02-3.53,1.02s-2.65-.25-3.19-.76c-.54-.51-.89-1.22-1.06-2.12-.4-3.8-2.64-5.7-6.72-5.7-2.04,0-3.57,.44-4.59,1.32-1.02,.88-1.53,1.91-1.53,3.1,0,1.42,.68,2.52,2.04,3.32,1.36,.79,3.54,1.7,6.55,2.72,2.89,.91,5.27,1.81,7.14,2.72,1.87,.91,3.47,2.21,4.8,3.91,1.33,1.7,2,3.88,2,6.54,0,3-.84,5.48-2.51,7.44-1.67,1.96-3.8,3.4-6.38,4.33-2.58,.94-5.23,1.4-7.95,1.4-3.91,0-7.34-.93-10.29-2.8Z"/><path class="cls-3" d="M883.71,309.95c.71,.68,1.06,1.76,1.06,3.23,0,3.46-1.12,6.28-3.36,8.46-2.24,2.18-5.09,3.27-8.54,3.27-4.7,0-8.12-1.94-10.24-5.82-2.12-3.88-3.19-10.04-3.19-18.49,0-1.76,.06-4.17,.17-7.23l-3.06-.17c-2.72-.11-4.08-1.45-4.08-4,0-1.42,.37-2.45,1.1-3.1,.74-.65,1.96-.95,3.66-.89l3.06,.17c.4-4.02,1.05-8.64,1.96-13.85,.45-2.44,2.12-3.66,5.02-3.66,1.76,0,3.1,.45,4.04,1.36,.94,.91,1.29,1.98,1.06,3.23-.91,6.12-1.5,10.6-1.79,13.43l5.19,.08c2.49,.06,3.74,1.33,3.74,3.83,0,1.3-.34,2.27-1.02,2.89-.68,.62-1.84,.93-3.49,.93h-5.1c-.11,2.95-.17,5.27-.17,6.97,0,6.01,.28,10.2,.85,12.58,.57,2.38,1.56,3.57,2.98,3.57,.91,0,1.56-.33,1.96-.98,.4-.65,.62-1.74,.68-3.27,.06-1.25,.4-2.15,1.02-2.72,.62-.57,1.64-.85,3.06-.85,1.59,0,2.73,.34,3.44,1.02Z"/><path class="cls-3" d="M897.27,277.26c-1.3-1.27-1.96-2.9-1.96-4.89s.65-3.61,1.96-4.89c1.3-1.28,3-1.91,5.1-1.91,1.98,0,3.63,.64,4.93,1.91,1.3,1.27,1.96,2.88,1.96,4.8s-.65,3.63-1.96,4.93c-1.3,1.3-2.98,1.96-5.01,1.96s-3.71-.64-5.02-1.91Zm-.04,45.9c-.99-.77-1.46-1.8-1.4-3.1l.68-32.98c.06-1.36,.57-2.41,1.53-3.14,.96-.74,2.21-1.11,3.74-1.11s2.88,.38,3.87,1.15c.99,.77,1.46,1.86,1.4,3.27l-.68,32.81c-.06,1.3-.58,2.34-1.57,3.1-.99,.76-2.25,1.15-3.78,1.15s-2.79-.38-3.78-1.15Z"/><path class="cls-3" d="M955.24,286.61c2.66,3.43,3.99,8.54,3.99,15.34l-.08,19.46c0,1.13-.48,1.98-1.44,2.55-.96,.57-2.18,.85-3.66,.85s-2.72-.25-3.74-.76c-1.02-.51-1.53-1.28-1.53-2.29v-19.89c0-4.36-.48-7.49-1.44-9.39-.96-1.9-2.58-2.85-4.85-2.85s-3.88,.89-5.19,2.68c-1.3,1.79-2.32,4.72-3.06,8.8-.4,2.49-.59,5.33-.59,8.5l.08,11.47c0,1.25-.47,2.2-1.4,2.85-.94,.65-2.2,.98-3.78,.98s-2.85-.34-3.78-1.02c-.94-.68-1.4-1.62-1.4-2.81,0-9.52-.2-18.93-.59-28.22,0-.91-.14-1.7-.43-2.38-.28-.68-.61-1.3-.98-1.87-.37-.57-.61-.96-.72-1.19-.34-.45-.51-.99-.51-1.61,0-1.02,.61-1.98,1.83-2.89,1.22-.91,2.37-1.36,3.44-1.36,.57,0,1.1,.17,1.62,.51,.51,.34,1.08,.93,1.7,1.79,1.36,1.81,2.04,3.51,2.04,5.1v.68c1.02-2.32,2.59-4.26,4.72-5.82,2.12-1.56,4.94-2.34,8.46-2.34,4.87,0,8.64,1.71,11.31,5.14Z"/><path class="cls-3" d="M1011.64,317.72c.54,.54,.81,1.49,.81,2.85,0,1.19-.31,2.18-.94,2.97-.62,.79-1.44,1.19-2.46,1.19-2.44,0-4.28-.31-5.52-.93-1.25-.62-2.35-1.79-3.32-3.49-2.38,3.57-6.69,5.35-12.92,5.35s-11.39-1.91-14.62-5.74c-3.23-3.83-4.84-8.85-4.84-15.09,0-4.14,.83-7.88,2.51-11.22,1.67-3.34,4.06-5.98,7.18-7.9,3.12-1.93,6.72-2.89,10.79-2.89,2.32,0,4.42,.47,6.29,1.4,1.87,.94,3.29,2.17,4.25,3.7l.26-1.79c.06-.79,.42-1.47,1.1-2.04,.68-.57,1.76-.85,3.23-.85,1.7,0,2.93,.4,3.7,1.19,.76,.79,1.06,1.79,.89,2.97-.34,1.81-.71,5.02-1.11,9.61-.17,2.27-.25,5.18-.25,8.75v4c0,2.38,.14,4.09,.42,5.14,.28,1.05,1.05,1.63,2.29,1.74,.96,.17,1.71,.52,2.25,1.06Zm-14.92-18.66c0-2.61-.84-4.62-2.51-6.04-1.67-1.42-3.58-2.12-5.74-2.12-3.12,0-5.61,1.36-7.48,4.08s-2.8,5.98-2.8,9.78,.82,6.74,2.46,9.18c1.64,2.44,4.05,3.66,7.22,3.66,2.61,0,4.7-.68,6.29-2.04,1.59-1.36,2.41-3.32,2.46-5.87,.06-2.44,.08-5.98,.08-10.62Z"/><path class="cls-3" d="M1049.8,309.95c.71,.68,1.06,1.76,1.06,3.23,0,3.46-1.12,6.28-3.36,8.46-2.24,2.18-5.09,3.27-8.54,3.27-4.7,0-8.12-1.94-10.24-5.82-2.12-3.88-3.19-10.04-3.19-18.49,0-1.76,.06-4.17,.17-7.23l-3.06-.17c-2.72-.11-4.08-1.45-4.08-4,0-1.42,.37-2.45,1.11-3.1,.74-.65,1.95-.95,3.65-.89l3.06,.17c.4-4.02,1.05-8.64,1.96-13.85,.45-2.44,2.12-3.66,5.01-3.66,1.76,0,3.1,.45,4.04,1.36,.94,.91,1.29,1.98,1.06,3.23-.91,6.12-1.5,10.6-1.78,13.43l5.18,.08c2.49,.06,3.74,1.33,3.74,3.83,0,1.3-.34,2.27-1.02,2.89-.68,.62-1.84,.93-3.48,.93h-5.1c-.11,2.95-.17,5.27-.17,6.97,0,6.01,.28,10.2,.85,12.58,.57,2.38,1.56,3.57,2.97,3.57,.91,0,1.56-.33,1.96-.98,.4-.65,.62-1.74,.68-3.27,.06-1.25,.4-2.15,1.02-2.72,.62-.57,1.64-.85,3.06-.85,1.59,0,2.73,.34,3.44,1.02Z"/><path class="cls-3" d="M1063.36,277.26c-1.3-1.27-1.96-2.9-1.96-4.89s.65-3.61,1.96-4.89c1.3-1.28,3-1.91,5.1-1.91,1.98,0,3.63,.64,4.93,1.91,1.3,1.27,1.96,2.88,1.96,4.8s-.65,3.63-1.96,4.93c-1.3,1.3-2.97,1.96-5.01,1.96s-3.71-.64-5.02-1.91Zm-.04,45.9c-.99-.77-1.46-1.8-1.4-3.1l.68-32.98c.06-1.36,.57-2.41,1.53-3.14,.96-.74,2.21-1.11,3.74-1.11s2.88,.38,3.87,1.15c.99,.77,1.46,1.86,1.4,3.27l-.68,32.81c-.06,1.3-.58,2.34-1.57,3.1-.99,.76-2.25,1.15-3.78,1.15s-2.79-.38-3.78-1.15Z"/><path class="cls-3" d="M1090.85,319.55c-4.22-3.63-6.33-8.93-6.33-15.9,0-4.48,.91-8.43,2.72-11.86,1.81-3.43,4.42-6.11,7.82-8.03,3.4-1.93,7.4-2.89,11.99-2.89s8.57,.96,12.11,2.89c3.54,1.93,6.29,4.63,8.25,8.12s2.93,7.52,2.93,12.11c0,6.74-2.07,11.93-6.21,15.56-4.14,3.63-9.66,5.44-16.58,5.44s-12.48-1.81-16.7-5.44Zm25.67-5.91c2.24-2.18,3.36-5.42,3.36-9.73s-1.11-7.88-3.32-10.71c-2.21-2.83-5.27-4.25-9.18-4.25s-6.83,1.33-9.09,4c-2.27,2.66-3.4,6.23-3.4,10.71s1.15,7.81,3.44,9.99c2.29,2.18,5.31,3.27,9.05,3.27s6.9-1.09,9.14-3.27Z"/><path class="cls-3" d="M1172.5,286.61c2.66,3.43,3.99,8.54,3.99,15.34l-.08,19.46c0,1.13-.48,1.98-1.44,2.55-.96,.57-2.18,.85-3.66,.85s-2.72-.25-3.74-.76c-1.02-.51-1.53-1.28-1.53-2.29v-19.89c0-4.36-.48-7.49-1.45-9.39-.96-1.9-2.58-2.85-4.84-2.85s-3.88,.89-5.19,2.68c-1.3,1.79-2.32,4.72-3.06,8.8-.4,2.49-.6,5.33-.6,8.5l.08,11.47c0,1.25-.47,2.2-1.4,2.85-.93,.65-2.2,.98-3.78,.98s-2.85-.34-3.78-1.02c-.94-.68-1.4-1.62-1.4-2.81,0-9.52-.2-18.93-.6-28.22,0-.91-.14-1.7-.42-2.38-.28-.68-.61-1.3-.98-1.87-.37-.57-.61-.96-.72-1.19-.34-.45-.51-.99-.51-1.61,0-1.02,.61-1.98,1.83-2.89,1.22-.91,2.37-1.36,3.44-1.36,.57,0,1.1,.17,1.61,.51,.51,.34,1.08,.93,1.7,1.79,1.36,1.81,2.04,3.51,2.04,5.1v.68c1.02-2.32,2.59-4.26,4.72-5.82,2.12-1.56,4.94-2.34,8.46-2.34,4.87,0,8.64,1.71,11.31,5.14Z"/><path class="cls-3" d="M1192.04,322.7c-2.95-1.87-5.1-4.31-6.46-7.31-.4-.96-.57-1.7-.51-2.21,.11-1.02,.68-1.96,1.7-2.81,1.02-.85,2.12-1.27,3.31-1.27,.79,0,1.42,.18,1.87,.55,.45,.37,.96,.89,1.53,1.57,1.59,2.04,3,3.53,4.25,4.46,1.25,.94,2.8,1.4,4.67,1.4,1.76,0,3.24-.4,4.46-1.19,1.22-.79,1.83-1.84,1.83-3.15,0-1.42-.67-2.51-2-3.27-1.33-.76-3.47-1.66-6.42-2.68-3-1.02-5.43-1.98-7.27-2.89-1.84-.91-3.43-2.22-4.76-3.95-1.33-1.73-2-3.92-2-6.59s.74-4.9,2.21-6.88c1.47-1.98,3.47-3.51,5.99-4.59,2.52-1.08,5.28-1.62,8.29-1.62,3.17,0,5.94,.59,8.29,1.79,2.35,1.19,4.15,2.76,5.4,4.72,1.25,1.96,1.87,4.07,1.87,6.33,0,1.42-.35,2.46-1.06,3.15-.71,.68-1.88,1.02-3.53,1.02s-2.65-.25-3.19-.76c-.54-.51-.89-1.22-1.06-2.12-.4-3.8-2.63-5.7-6.71-5.7-2.04,0-3.57,.44-4.59,1.32-1.02,.88-1.53,1.91-1.53,3.1,0,1.42,.68,2.52,2.04,3.32,1.36,.79,3.54,1.7,6.54,2.72,2.89,.91,5.27,1.81,7.14,2.72,1.87,.91,3.47,2.21,4.8,3.91,1.33,1.7,2,3.88,2,6.54,0,3-.84,5.48-2.51,7.44-1.67,1.96-3.8,3.4-6.38,4.33-2.58,.94-5.23,1.4-7.95,1.4-3.91,0-7.34-.93-10.29-2.8Z"/></g></svg>