<?xml version="1.0" encoding="UTF-8"?><svg id="Calque_1" xmlns="http://www.w3.org/2000/svg" viewBox="0 0 124.24 124.24"><defs><style>.cls-1{fill:#ec6e38;opacity:.8;}.cls-2{fill:#08aade;}</style></defs><circle class="cls-1" cx="62.12" cy="62.12" r="62.12"/><path class="cls-2" d="M83.6,51.16c.48,.35,.72,.87,.72,1.56,0,1.28-.72,2.19-2.16,2.72-.37,.16-1.96,.76-4.76,1.8s-6.47,2.36-11,3.96c-3.2,1.12-5.92,2.23-8.16,3.32-2.24,1.09-3.36,1.88-3.36,2.36,0,.53,1.09,1.36,3.28,2.48,2.19,1.12,5.01,2.37,8.48,3.76,4,1.55,7.6,2.75,10.8,3.6,3.2,.85,4.93,1.31,5.2,1.36,1.97,.53,2.96,1.41,2.96,2.64,0,.69-.23,1.24-.68,1.64-.45,.4-1.05,.6-1.8,.6-.91,0-3.48-.63-7.72-1.88-4.24-1.25-7.75-2.39-10.52-3.4-5.33-1.92-9.44-3.76-12.32-5.52s-4.32-3.49-4.32-5.2,1.35-3.29,4.04-4.92c2.69-1.63,6.68-3.43,11.96-5.4,5.87-2.19,10.09-3.73,12.68-4.64,2.59-.91,4.2-1.36,4.84-1.36,.75,0,1.36,.17,1.84,.52Z"/></svg>