<svg id="Calque_1" data-name="Calque 1" xmlns="http://www.w3.org/2000/svg" viewBox="0 0 405.88 352.14"><defs><style>.cls-1{fill:none;stroke:#12abe0;stroke-miterlimit:10;}</style></defs><path class="cls-1" d="M260.71,136.79s-.53,8.83,3.7,14.3v9.17s-10.94,12.18-18.17,10.59c0,0,.17-2.29-6.88-11.47,0,0,.88-21.35-6.36-27.35,0,0,5.3-14.65,9.36-10.59l6.35,4.41s13.94,1.59,6.7,5.47c0,0,3.89,1.42,6.18-.7l-.53-2.3s.35-1.23,1.41-.17a25.65,25.65,0,0,0,1.94,1.76s3-1.23,2.65-7.06l3.35-.53s2.65-2.11-3-5.11c0,0,0-1.95-2.64-5.83l9.17-9.53s12.18,8.65,7.94,12.36c0,0,.18,12.35,8.12,10.05,0,0,9.71.36,10.94,6l8.65,4.59s-12.53-3.35-34.41,5.65c0,0-5.65,0-9.18-6.18Z" transform="translate(-190.94 -74.39)"/><path class="cls-1" d="M256.36,184.09l.82-1.77h3.06l3.64-2.35a3,3,0,0,0-3.17-2.23l-1.88,2.11-2.47,1.06s-1.06-1.88-2.36,0c0,0-2.23,1.53-.94,3.18A2.19,2.19,0,0,0,256.36,184.09Z" transform="translate(-190.94 -74.39)"/><path class="cls-1" d="M290.36,174.91s1.94-8.82,7.76-11.65c0,0,11.12,7.86,8.65,11.65,0,0-2.91,6-8.74,5.12C298,180,292.12,180.38,290.36,174.91Z" transform="translate(-190.94 -74.39)"/><path class="cls-1" d="M316,145.53l.13-.11c.51-.44,2.37-2.13,2-2.93s-3.71,0-3.71,0-1.58,2.2-.92,2.77S316,145.93,316,145.53Z" transform="translate(-190.94 -74.39)"/><path class="cls-1" d="M320.05,129.29l9.83-5.82s.4-2-1.94-1.76-8.64,5.2-8.64,5.2S317.53,129.25,320.05,129.29Z" transform="translate(-190.94 -74.39)"/><path class="cls-1" d="M245,107s5-3.41,4.76-4.73a2.85,2.85,0,0,0-2.2-1.62,6.19,6.19,0,0,0-3.59.59l-.5-.86,2.83-1.64s-.71-1.33-1.62-1.18a36.08,36.08,0,0,0-5.24,2.89.56.56,0,0,0-.19.77C240,102.4,242.07,105.58,245,107Z" transform="translate(-190.94 -74.39)"/><path class="cls-1" d="M237.24,97.52s1.41-1.84.29-2.49a4,4,0,0,0-2.88,0S233.59,98.54,237.24,97.52Z" transform="translate(-190.94 -74.39)"/><path class="cls-1" d="M223.18,76.62s-1.65-3.88-4.88,0a61.92,61.92,0,0,0-4.53,5.94s-4.65-2.3-6.94-.65,3.94,3.35,3.94,3.35,3.35.83,5.59,0c0,0,.94-3,3-2.82-.39,0,3.41,1.71,3.11,2.35.06.3,1.36-.11,1.36-.11S224.12,76.15,223.18,76.62Z" transform="translate(-190.94 -74.39)"/><path class="cls-1" d="M371.69,117.85s-4.7,2.94,4.83,12c0,0,4,6.12,13.41,4.24l2.94,6s-1.41,2.7-3.77,1.53c0,0-2.58-6.36-5.29-.47,0,0-4.47,2.11-2.71,5.64,0,0,2.12,5.06,5.53,5.18,0,0,2.12-4.47,6.24-2.12L404.05,151s4.94,2.59,1.41,4.35c.53-.32,1.17,6,6,.94,0,0,8.12-6.12,1.64-9.65l-.35-6.7s2.71-1.44-.47-1.9l-7.18-6.81s7.65-8.82-4.47-4.47c0,0-1.88-2.7,4-3.53,0,0,2.95-1.06-3.53-3.64l-1.29-1.77,2.71-1.53s2.35,3.65,3.17,0c0,0,5.06-4.23-1.29-3.76.59,0-6.12,3.17-6.12,3.17s-10.94-15.29-13.88-9.53c0,0-6.47-10.7-16.35-3.29C368.05,102.91,359.34,107.73,371.69,117.85Z" transform="translate(-190.94 -74.39)"/><path class="cls-1" d="M539,165.13s9.88,2.29,5.29-6.89c0,0-9.7-4.76-10.06-6.7,0,1.06-.7-1.94-4.41-2.3,0,0-5.82-8.47-11.29-9.88l-8.3-6s-.17-4.76-3.7-2.82c0,0-2.47-7.94-5.12-3.53,0,0,2.47-8.82-7.59-7.94l-12.88-12.71s-5.91-1.23-6.44,0S468,98.6,468,98.6s-2.3.7-2,2,5.91,8.2,5.91,8.2,1,6.44,6.62,8.47c0,0,1.67,5.74,7,6.71,0,0,2.47,4.68,5.2,4.59,0,0-1,5.91,4.06,4.5,0,0-.7,6.35,3.62,3.7,0,0-1.06,7.15,8.12,6.53,0,0,2.56,4.86,6.26,3.8,0,0,2.83,4,5.21,3.44-.45.05.79,4.85,5.82,2.82,0,0,.29,8.68,9.44,6.27Z" transform="translate(-190.94 -74.39)"/><path class="cls-1" d="M530.44,121.1s-.27-2.21,1.32-2.38S533,121.1,533,121.1,532.11,122.24,530.44,121.1Z" transform="translate(-190.94 -74.39)"/><path class="cls-1" d="M537.41,112.45s2.82-.09,1.68-1.59a3.34,3.34,0,0,0-2.83-1.32S535.47,112.27,537.41,112.45Z" transform="translate(-190.94 -74.39)"/><path class="cls-1" d="M535,119.72s3.38,0,3.41-1.45.93-.08,0-3.26-3.41,2.35-3.41,2.35S534.18,119,535,119.72Z" transform="translate(-190.94 -74.39)"/><path class="cls-1" d="M554.88,124.54v-5.83h-5.74a1.78,1.78,0,0,0,.45,2,2.91,2.91,0,0,0,2.35.88v2s-5.62,2.82-.85,5.82c.44,0,2.2,1.24,3.79,1.24s1.32,3,1.32,3,1.94,1.14,2.3,0,0-6.8,0-6.8A3.75,3.75,0,0,0,554.88,124.54Z" transform="translate(-190.94 -74.39)"/><path class="cls-1" d="M573.14,140.86V138l-5.11.62a6.28,6.28,0,0,0,3.35,4.85s-.18,3.53,3.62,2.12c0,0,2.82-3.88,2-5.12Z" transform="translate(-190.94 -74.39)"/><path class="cls-1" d="M556.47,174a3.88,3.88,0,0,0,3.26-.35c1.5-1-.17-3.53-.17-3.53S554.61,170.38,556.47,174Z" transform="translate(-190.94 -74.39)"/><path class="cls-1" d="M256.69,209.29s2.12-7.76,6-2.47,21.53,5.74,21.53,5.74l13.06,11.55v2.83l2.12-1.77,6.35,4.59v7.41s5.65-4.94,3.18-7.41c0,0,2.31-.75,2.64.2s5.48,12.51,2.65,14.39c0,0-9.41,11.88-19.17,34.12,0,0-.95,8-11.77,11.53a6.76,6.76,0,0,0-6.71-1.06s-.82-5.18-4.11-.59c0,0-6.12.59-8.12-3.18l-8.12,7.18s-13.29-2.47-8.94-6.94c0,0,7.53-9.3,6.71-14.71a7.41,7.41,0,0,1,2-7.76s5.76-2.71-1.65-10.71c0,0-10.47-9.41-8.59-22.35l-1.41-.71s-.94-1.76,0-2.59l2.12-.58-.12-5.18Z" transform="translate(-190.94 -74.39)"/><path class="cls-1" d="M413.55,224.49s-4.11-6.12-8.7-5.53c0,0,.35-4.36-10.83-2.36l-6.82-.52s-6.82-2.41-9.18,0l-6.82,6.41s-7.65-2-3.76,4.94c0,0-2,6.58-8.12,6.82l.82,6.94s4.24.24,7.65,9.3l-.35,6s22,18.23,34.94,16.82c0,0,.47,1.58,3.64,1.56s6.36,0,6.36,0a2.11,2.11,0,0,0,1.17-2.27,34.87,34.87,0,0,1,4.59-.23s9.18-.24,7.41-5.06l-.35-7.53s6.12-12,2.94-14.35l-8.82-7.89s-2-7-5.77-6.11Z" transform="translate(-190.94 -74.39)"/><path class="cls-1" d="M490.87,233.34a6.46,6.46,0,0,0-3.88-4.12s3.41-4.59,3.88-1.77c0,0,2,1.09,1.53,2.49,0,0-.23,2.46.59,2.69,0,0,1.53.59,1.53,3.65h1.18s.7-1.77,1.17-1.65,1.18,1.65,1.18,1.65h4.82s4-2.94,4.83-2.12a17.47,17.47,0,0,1,0,5.65h4s1.29,0,.7.94l.16,4.82,2.43.83s.59-.12,0,.58.26,3.18.26,3.18,3.74,4.94,6.21,0c0,0,1.65-2.35,4.12-1.41,0,0,.35-3.77,1.65-1.88s4.11,1.76,4.11,1.76,3.3-6.35,5.3-5.29v-2.59l-2.47-.24s0-2.11.47-2.11,2.59-.36,2.59-.36.58-2.23,1.76-.94a11.94,11.94,0,0,1,1.88,4.12l1.18-.24s.59-3.17,1.29-2.82l1.42.71v3.53l4.58.47s.71,2.82,0,3.64a8.3,8.3,0,0,0-1.17,2.47l2.47.24s1.76-6.47,2.59-4.12c0,0-.36-2.23,1.53.94,0,0-.59,2.94,0,3.18s4.7-2.82,4.82-4c0,0,3.53,5.29-1.29,11.41l.82,4.47s-.71,1.53-2.12,0a8.31,8.31,0,0,1-1.76-3.88s-5.06,6.47-12.71,6l.35,6.47s-2,3.88-5.06.94l-.7-3.88s-3.41-2-6.47-.47c0,0-2,5.06-3.77,4.12,0,0,1.25,5.29-3,1.88V270s-2.68-1.41-3.39,0c0,0-1.53,8.24-4,4.36,0,0-5.65-11.3-8.12-10.71,0,0-3.76-6.94-.59-7.88,0,0-7.88-12.36-11.64-9.77l-6.83-7.53-1-2.7H483s-1.65-1.53,0-2.59S490.87,233.34,490.87,233.34Z" transform="translate(-190.94 -74.39)"/><path class="cls-1" d="M507.23,226.54s-6.36,2.62-4.06-3.91a7.07,7.07,0,0,0,4.06-2.29h4.23v3.36A6.55,6.55,0,0,1,507.23,226.54Z" transform="translate(-190.94 -74.39)"/><path class="cls-1" d="M519.23,221.4l3.17-2.83h3s1.94-1.23,0-2.47-4.76,0-4.76,0-4.41,2.83-3.71,4.24S516.93,221.75,519.23,221.4Z" transform="translate(-190.94 -74.39)"/><path class="cls-1" d="M537.58,217.51v-3a1.8,1.8,0,0,0-2.82-1.58,6.41,6.41,0,0,0,0,3.88C535.46,218.57,537.58,217.51,537.58,217.51Z" transform="translate(-190.94 -74.39)"/><circle class="cls-1" cx="336.37" cy="145.7" r="1.05"/><circle class="cls-1" cx="339.55" cy="145.7" r="1.05"/><path class="cls-1" d="M543.8,214.6s-2.12.13-3-.53-.22-1.23-.22-1.23a2.44,2.44,0,0,1,2.87,0s3.66-1.33,4.63.22c0,0-.31,2.49-2.33,2.49C545.79,215.55,543.36,216.15,543.8,214.6Z" transform="translate(-190.94 -74.39)"/><ellipse class="cls-1" cx="361.29" cy="139.08" rx="0.84" ry="1.57"/><path class="cls-1" d="M550.34,240.81a2.11,2.11,0,0,1,.83-2.86s1.88-2.32,2.76-1.44,0,3.33,0,3.33A3.18,3.18,0,0,1,550.34,240.81Z" transform="translate(-190.94 -74.39)"/><ellipse class="cls-1" cx="366.93" cy="163.28" rx="1.53" ry="1.75"/><ellipse class="cls-1" cx="350.34" cy="204.03" rx="1.24" ry="1.62"/><path class="cls-1" d="M254.86,331.91s-2.82-6.18,5.3-10.41c0,0,1.29-2.3-2.89-1.77s-12.46,7.94-7,10.59l1.94,1.59L252,339.5s-2.47,7.23-.53,7.41c0,0-.53,8.47,6,10.59,0,0,.88,9.88,4.24,10.94V379s1.58,2.64,0,3.7a16.19,16.19,0,0,0-1.06,8.3s-15.27,7.59-12.22,11.64l5.16.71s1.41-.35.88,1.41a25.57,25.57,0,0,0-.7,4.59l4.41.88.53,2.47s1.76.36,1.76,0,3.88-7.23,14.3-12.35c0-1.06,7.41-2.65,3.17-11.12,0,0,2.65-1.76-11.12-5.29,0,0-1.41-2.12-2.29-2.47l-.18-12.71s2.28-8.12-.71-6.7l-2.64.17s.35-2.64-.88-2.12l-1.24-2.82h9.18l.18,4.77s6.53.7,7.58-19.95l-14.64-8.64s-1.24-4.24-4.59.17c0,0-1.24,5.83-2.12,4.59S254.86,331.91,254.86,331.91Z" transform="translate(-190.94 -74.39)"/><path class="cls-1" d="M288.44,417.54v-4.65s3.57-.55,3.22-1.83c0,0,3.62-4.94.75-5.69H289.5s-8.3,9.35-8.83,12.17A12.69,12.69,0,0,0,288.44,417.54Z" transform="translate(-190.94 -74.39)"/><circle class="cls-1" cx="213.2" cy="262.68" r="1.48"/><circle class="cls-1" cx="219.93" cy="262.27" r="1.08"/><ellipse class="cls-1" cx="213.6" cy="268.6" rx="1.88" ry="1.21"/><ellipse class="cls-1" cx="227.46" cy="275.12" rx="0.94" ry="1.82"/><circle class="cls-1" cx="155.02" cy="295.43" r="1.28"/><circle class="cls-1" cx="158.15" cy="298.69" r="1.38"/><circle class="cls-1" cx="161.68" cy="296.37" r="0.94"/><circle class="cls-1" cx="166.57" cy="300.22" r="1.52"/><circle class="cls-1" cx="163.16" cy="319.71" r="1.48"/><circle class="cls-1" cx="166.83" cy="316.65" r="1.78"/><circle class="cls-1" cx="176.51" cy="323.11" r="1.92"/><circle class="cls-1" cx="183.89" cy="326.12" r="1.09"/><circle class="cls-1" cx="197.89" cy="324.61" r="1.5"/><ellipse class="cls-1" cx="222.55" cy="319.95" rx="1.01" ry="1.51"/><circle class="cls-1" cx="229.69" cy="321.23" r="1.29"/><circle class="cls-1" cx="235.37" cy="323.57" r="1.05"/><circle class="cls-1" cx="251.1" cy="323.57" r="1.05"/><ellipse class="cls-1" cx="251.92" cy="316.21" rx="0.82" ry="1.35"/><circle class="cls-1" cx="246.46" cy="322.52" r="2.19"/><ellipse class="cls-1" cx="237.65" cy="315.68" rx="1.24" ry="0.81"/><circle class="cls-1" cx="240.98" cy="317.22" r="1.01"/><ellipse class="cls-1" cx="243.6" cy="312.25" rx="0.67" ry="1.14"/><circle class="cls-1" cx="230.58" cy="315.76" r="0.89"/><circle class="cls-1" cx="227.86" cy="316.21" r="1.35"/><circle class="cls-1" cx="226.65" cy="308.55" r="1.21"/><circle class="cls-1" cx="228.57" cy="306.7" r="1.11"/><circle class="cls-1" cx="228.1" cy="304.62" r="1.58"/><circle class="cls-1" cx="219.46" cy="310.09" r="1.55"/><circle class="cls-1" cx="214.77" cy="307.87" r="1.17"/><circle class="cls-1" cx="209.13" cy="302.33" r="1.18"/><ellipse class="cls-1" cx="214.55" cy="298.39" rx="0.94" ry="1.68"/><circle class="cls-1" cx="222.65" cy="295.26" r="1.11"/><circle class="cls-1" cx="213.07" cy="292.81" r="1.35"/><circle class="cls-1" cx="224.36" cy="287.66" r="1.71"/><path class="cls-1" d="M391.63,357.92l-3.36,3.23s-1.61,0-.94-1.62,3-2.42,3-2.42S392.46,357.13,391.63,357.92Z" transform="translate(-190.94 -74.39)"/><path class="cls-1" d="M413,344.2l-.54,2.15s-2.29,1.35-2.08,0,.06-3.76,2.08-4.57,3.9,2.42,3.9,2.42V347s-1.61.73-1.68,0S415.47,343.57,413,344.2Z" transform="translate(-190.94 -74.39)"/><path class="cls-1" d="M359.8,374.11h3.58v1.65l2.16.37s1.12.8,0,1.29-5.38.47-5.38.47S358.86,377,359.8,374.11Z" transform="translate(-190.94 -74.39)"/><path class="cls-1" d="M366.84,362.81l-2.78-.23s-1-1.75,0-2a28.37,28.37,0,0,1,3.54-.27l.76-.45h1.57l.31.76,3.1.7s3.36,2.44,1.3,2.8a22.81,22.81,0,0,1-5.19,0S367,364.11,366.84,362.81Z" transform="translate(-190.94 -74.39)"/><path class="cls-1" d="M382.13,360.34s4-.94,3.49-3-3.81.36-3.81.36l-4.08.44s-1.07,1.39,0,1.93S382.13,360.34,382.13,360.34Z" transform="translate(-190.94 -74.39)"/><path class="cls-1" d="M379.8,365.36c0-.13-.27-1.61-.27-1.61s-2-1-2.28-.23a34.81,34.81,0,0,0-.5,4.44s1.61,1.3,2.55.86,1.66-.63,1.53-1.08.36-1.17.36-1.17,1.52,0,1.47.63.81,1.35.81,1.35-.54,2,0,2.37a11.83,11.83,0,0,0,2.38.79,3.67,3.67,0,0,0,.45,1.38,4.81,4.81,0,0,1,0,2.59s-.24,1.32.86,1a6.68,6.68,0,0,1,2.5,0l-.36-3s-.47-1.53.19-1a4.48,4.48,0,0,1,1,1.83s-.13.89,1.12.39,2.92-.94,1.93-1.66a10.39,10.39,0,0,0-2.29-1.16l-1.12-1.41s-1.16-.83-2-.43-.13-1.35-1.57-1.21-.85-4.75-2.33-3.63S383,362,382,363.75,379.8,365.36,379.8,365.36Z" transform="translate(-190.94 -74.39)"/><path class="cls-1" d="M388,362.1v1.65l2,.56.72,1.77s1.12-.09.71,3.32h2.5s.3-2.42,0-2.56a3.45,3.45,0,0,1-.79-.72l.4-.37s.9-2-.9-2.23l-1.79-.26,0-1.21S388.58,361.26,388,362.1Z" transform="translate(-190.94 -74.39)"/><path class="cls-1" d="M404.32,363.75l2.29-3s1.12-.13.72.72l.08,2.47a1.7,1.7,0,0,1-1.54.8A1.56,1.56,0,0,1,404.32,363.75Z" transform="translate(-190.94 -74.39)"/><path class="cls-1" d="M400.51,367.69v-2.95s-2-.67-2.29,0a5.55,5.55,0,0,1-.85,1.33h-2.11s-.44,1.18.23,1.8a15.08,15.08,0,0,0,3.41,1.53,3.44,3.44,0,0,0,.49,1.7c.49.72,1.86.63,1.86.63s1.55-.49,1.41-1,.36-1.91-.4-2.45A4.06,4.06,0,0,0,400.51,367.69Z" transform="translate(-190.94 -74.39)"/><path class="cls-1" d="M410,377v-2s1.38-.47,0-1.21a2.06,2.06,0,0,0-2.42.33s-1.26,1.38-.16,2.32c0,0-2.13,1.55-.68,2.26,0,0,.3,1.58,2.39,1.31,0,0,2.72.18,2.45-1,0,0,1.12-1.08,0-1.59C411.59,377.42,409.76,377.39,410,377Z" transform="translate(-190.94 -74.39)"/><path class="cls-1" d="M520,357.07s-7.68,0-6.89-2.56l-5-.71s-1.86-1.59,0-2.29,2.73-3.27,2.73-3.27l-4.76-.53s2.64-5.56,5.91-4.67l8.47-10.94s1.32.35,1.23.88-4.14,5.29-2.64,5.56,2,3.17,2,3.17l3.88,1.06s-.62,3.62,0,4.33,1.32,1.67,5.12,1.58l2.29-2.38s.88-1,1.24.35a16.72,16.72,0,0,1,.44,2.12l5.29.09,6.44,5.38s2.12,1.77,0,2.83-.7,2.11-.7,2.11l2.82.53s.18,1.86-.53,1.77a23.34,23.34,0,0,0-3.53.44l-5.91,5.82-.35,6.71s8.29,5.56.53,7.59c0,0,1.23,5.47-3.62,5.38,0,0,1.41,5.21-2.91,5.29,0,0,4,7,6.53,5.92,0,0,.61,2.64-3.89,1.5,0,0-2.56-2.74-4.5-.8,0,0,.18,4.94-4.5,2.65l-3.09-3.53-1.58,3s-1.33,0-1.24-1,2.12-4.5.8-4.68l-5.65.53s6.62-4.85,5.82-6.7l-4.59-1.33s-2-2.91-1.23-5.29c0,0,3.7-.53,3.88.26,0,0,1.68.44,1.68,1.5s.17,2.74.17,2.74,2.47,1.85,3.44,1.59c0,0,.71,2.38,4.5,1,0,0,2.83-5.65-3.88-9.89l-4.32-4.05s-3.62-2.21,0-3.62h1.94s1.41-1.59-.09-2.74l-2.29.18a6.77,6.77,0,0,0,.17-4.77s-.7-1.23.09-1.58a1.24,1.24,0,0,0,.8-1.06l-.8-1.86Z" transform="translate(-190.94 -74.39)"/><ellipse class="cls-1" cx="313.14" cy="257.2" rx="3.15" ry="2.47"/><ellipse class="cls-1" cx="355.43" cy="291.97" rx="1.55" ry="2.29"/><path class="cls-1" d="M555.64,365.42s1.18-3,2.59-3.12v-5.12s-2.47-4.53-3.53,0l-1.94,2.47-3.12.12S553.53,365.48,555.64,365.42Z" transform="translate(-190.94 -74.39)"/><line class="cls-1" x1="150.31" y1="3.43" x2="150.31" y2="352.14"/><line class="cls-1" x1="260.3" y1="3.43" x2="260.3" y2="352.14"/><line class="cls-1" y1="118.49" x2="405.88" y2="118.49"/><line class="cls-1" y1="237.08" x2="405.88" y2="237.08"/></svg>