<svg id="Calque_1" data-name="Calque 1" xmlns="http://www.w3.org/2000/svg" viewBox="0 0 512 512"><defs><style>.cls-1{fill:none;}.cls-2{fill:#0fabdf;}</style></defs><path class="cls-1" d="M435.32,154.89h137v512h-216c-.1-1.32-.3-2.64-.3-4q0-124,0-247.94c0-1.29.16-2.58.29-4.51h70.28c3.11-29.7,6.16-58.72,9.28-88.45H356c0-15.81-.07-31,.05-46.11a64.51,64.51,0,0,1,1.08-13.27c1.61-7.44,4.68-14.41,12.77-16.77a58.37,58.37,0,0,1,15-2.2c14.83-.28,29.67-.1,44.5-.1H435c0-20.1,0-39.41,0-58.72C435,174.86,435.21,164.88,435.32,154.89Z" transform="translate(-60.28 -154.89)"/><path class="cls-1" d="M249.3,666.89h-189v-512h283c-.59.43-1.14,1.13-1.78,1.24-8.07,1.41-16.31,2.13-24.19,4.2-24.09,6.33-42.66,19.81-54.15,42.52C254,221,250.5,240.46,249.76,260.41c-.68,18.63-.14,37.31-.14,56v6H197v88.35h52.63v6.36q0,122.18,0,244.36C249.6,663.25,249.41,665.07,249.3,666.89Z" transform="translate(-60.28 -154.89)"/><path class="cls-2" d="M249.3,666.89c.11-1.82.3-3.64.31-5.46q0-122.17,0-244.36v-6.36H197V322.36h52.63v-6c0-18.65-.54-37.33.14-56,.74-20,4.24-39.39,13.43-57.56,11.49-22.71,30.06-36.19,54.15-42.52,7.88-2.07,16.12-2.79,24.19-4.2.64-.11,1.19-.81,1.78-1.24h92c-.11,10-.28,20-.3,30,0,19.31,0,38.62,0,58.72h-5.57c-14.83,0-29.67-.18-44.5.1a58.37,58.37,0,0,0-15,2.2c-8.09,2.36-11.16,9.33-12.77,16.77A64.51,64.51,0,0,0,356,275.91c-.12,15.15-.05,30.3-.05,46.11h79.86c-3.12,29.73-6.17,58.75-9.28,88.45H356.29c-.13,1.93-.29,3.22-.29,4.51q0,124,0,247.94c0,1.33.2,2.65.3,4Z" transform="translate(-60.28 -154.89)"/></svg>