<svg id="Calque_1" data-name="Calque 1" xmlns="http://www.w3.org/2000/svg" viewBox="0 0 398.77 376.02"><defs><style>.cls-1{fill:none;stroke:#0aabdf;stroke-miterlimit:10;stroke-width:6px;}</style></defs><path class="cls-1" d="M242.94,390.45s16.1-15.06,21.22,2.35c0,0,4.66,15.53,17.84,10.35,2.82,1.06,30.58,5.18,21.64,17.42-.47,2.35,10.83,26.35,31.06,16,0,0,14.12-9.42,25.41,4.7,1.89,2.36,11.3,17.88,28.71,12.71,0,0,18.35-.47,10.82,11.76,0,0-7.06,14.24-5.53,20.47-.11.94-.35,7.53,1.42,11.77,0,.59,4.82,17.88-3.3,23.76-.59,0-2,6.47-17.65,8.71,0,0-21.53,5.06-22.94,22.94,0,0-2.11,18.24,10.36,4.12,0,0,7.64-4.12,13.41,4,0,0,6.23,7.29,6.23,22.35,0,0,.83,3.88-3.41,20.47A57.3,57.3,0,0,0,376.94,624s1.41,13.06,17.53,14.94c0,0,9.88,1.88,8.11,9.41,0,0-4.35,13.88-12.11,20.71,0,0-12.83,16.35-23.89,17.06-.7,0-8.35,4.11-27.64,1.64,0,0-26.59-8.35-26-6.59,0,0-18.12-2.82-30.12,6,0,0-9.29,5.53-9.06,16.48,0,0,2.35,10.35-3.18,12.7,0,0-2.35,5.06-16.23,3.53,0,0-7.53,2-25.88-8.12,0,0-15.18-9.17-23.42-8.7H194.94s-15.65,3.17-29.18-1.65c0,0-9.41-1.06-24.82-15.06,0,0-10.94-9.53-8.83-16.7,0,0-.23-4.71,6.12-9.3,0,0,7.18-1.76,13.88-16.59,0,0,8.59-20.59,8.36-40.82,0,0-.47-28.94-7.06-36,0,0,1.76-1.77-18.47-20.12,0,0-4.83-6.35-10.94-27.06,0,0-.36-11.88-20.83-19.88,0,0-15.76-5.18-23.76-18.71,0,0-2-10.35,4-14.82,0,0,1.64-3.88,20.82-9.18,0,0,17.53-2.47,30.82,2.48,0,0,14.24,7.17,22.12,3.29,0,0,5.3-4.24-2.47-15.41,0,0-7.17-10.24,1.06-16,0,0,3.41-2.47,11.18.23,0,0,6.59.71,10.94,9.53,0,0,5.17,12.24,16.59,4.47,0,0,2.11-2,6-10.35,0,0,2.82-8,13.41-13.88,0,0,15.06-5.77,18.12-9.77,0,0,4.62-4.52,7-17.74a.41.41,0,0,1,.13-.25C239.56,393.3,241.43,390.45,242.94,390.45Z" transform="translate(-76.09 -381.4)"/><path class="cls-1" d="M455.45,685.88s6.23-.24,8.41,7.18c0,0,1.88,4.76,2.59,17.41,0,0,.35,11.06,1.76,13.82,0,0,3.53,9.41,3.35,10.94,0,0,1.65,8.94-2.82,12.77,0,0-2.94,5.88-11.24,6.17,0,0-4.58,1.83-13-4.35a31.43,31.43,0,0,1-11.17-19.65s-1.41-14.64,2.35-18.11c0,0,1.06-3.42,6.24-7.3,0,0,3.7-1.82,5-8.53C446.92,696.23,448.39,685.58,455.45,685.88Z" transform="translate(-76.09 -381.4)"/></svg>