<svg id="Calque_1" data-name="Calque 1" xmlns="http://www.w3.org/2000/svg" viewBox="0 0 254.36 227.05"><defs><style>.cls-1{fill:none;stroke:#14aadf;stroke-miterlimit:10;stroke-width:6px;}</style></defs><path class="cls-1" d="M290.52,460.28c-.09,3.24-.08,18.05,7.27,27.81a1,1,0,0,1,.2.61v17.69a1,1,0,0,1-.27.71c-2.52,2.73-21.93,23.19-35.5,21.12a1,1,0,0,1-.84-.83c-.39-1.83-2.49-7.69-13.51-22.06a1,1,0,0,1-.22-.67c.13-4.12.95-42.16-12.24-54.13a1,1,0,0,1-.28-1.15c1.66-4.36,11.12-28,18.54-20.6l12.55,8.72a1,1,0,0,0,.46.18c2.58.32,24.2,3.22,15.26,9.71a1,1,0,0,0,.41,1.88c2.54.47,6.54.68,9.49-1.63a1,1,0,0,0,.34-1l-.92-4s.71-2.48,2.83-.35c1.41,1.4,2.65,2.5,3.34,3.08a1.05,1.05,0,0,0,1.28.05c1.52-1.05,4.91-4.35,4.65-12.83a1,1,0,0,1,.88-1.08l5.48-.87a1.07,1.07,0,0,0,.61-.32c.92-1,3.27-4.75-5.81-9.75a1,1,0,0,1-.54-.76c-.17-1.22-1-4.72-4.8-10.5a1.07,1.07,0,0,1,.11-1.32l17.22-17.88a1,1,0,0,1,1.38-.11c4,2.95,22.24,17.15,15.55,23.95a1.06,1.06,0,0,0-.32.8c.14,3.39,1.64,23.82,16.14,19.78a.85.85,0,0,1,.32,0c1.86.09,19,1.27,21.71,11.6a1.07,1.07,0,0,0,.52.66l11.54,6.13a1,1,0,0,1-.58,2c-9.88-.91-31.63-.66-62.94,12.18a1.06,1.06,0,0,1-.43.08c-1.6-.08-11.23-1-17.73-11.59a1,1,0,0,0-1.34-.42l-9.2,4.3A1,1,0,0,0,290.52,460.28Z" transform="translate(-178.59 -332.24)"/><path class="cls-1" d="M282.22,554.55l1.29-2.78a1.05,1.05,0,0,1,.95-.6h5.17a1.06,1.06,0,0,0,.57-.17l6.38-4.11a1,1,0,0,0,.39-1.3,6.09,6.09,0,0,0-5.59-3.63,1.08,1.08,0,0,0-.82.36l-3.3,3.71a1,1,0,0,1-.37.27l-4,1.71a1.06,1.06,0,0,1-1.21-.28c-.75-.89-2.39-2.15-4.29.6,0,0-4.49,3.08-1.89,6.39,0,0,3.22,3.45,6.49.14A1.3,1.3,0,0,0,282.22,554.55Z" transform="translate(-178.59 -332.24)"/><path class="cls-1" d="M350.54,535.93c.57-2.34,4.58-17.31,14.95-22.81a1,1,0,0,1,1.1.09c3.34,2.44,21.36,16.1,16.85,23,0,0-5.85,12.06-17.55,10.29,0,0-11.67.69-15.33-10A1,1,0,0,1,350.54,535.93Z" transform="translate(-178.59 -332.24)"/><path class="cls-1" d="M402.06,477.19l.25-.22c1-.89,4.77-4.29,4-5.9s-5.67-.46-7.08-.1a1.07,1.07,0,0,0-.6.43c-.7,1-2.75,4.29-1.63,5.26C398.34,477.81,402,478,402.06,477.19Z" transform="translate(-178.59 -332.24)"/><path class="cls-1" d="M410.4,444.4l19-11.26a1,1,0,0,0,.52-.87c0-1.1-.41-3.29-3.95-2.95-4.43.41-16,9.35-17.26,10.36a1.15,1.15,0,0,0-.21.23c-.52.74-2.83,4.39,1.27,4.64A1,1,0,0,0,410.4,444.4Z" transform="translate(-178.59 -332.24)"/><path class="cls-1" d="M259.79,399.34c1.92-1.36,8.54-6.21,9-8.68a1,1,0,0,0-.09-.61,5.51,5.51,0,0,0-4.31-3.11,12.17,12.17,0,0,0-6.4.82,1,1,0,0,1-1.29-.45h0a1,1,0,0,1,.38-1.43l3.8-2.22a1,1,0,0,0,.29-1.55,3,3,0,0,0-2.57-1.38c-1.33.22-6.76,3.48-9.65,5.25a2.17,2.17,0,0,0-.69,3c1.77,2.75,5.5,7.82,10.42,10.42A1,1,0,0,0,259.79,399.34Z" transform="translate(-178.59 -332.24)"/><path class="cls-1" d="M243.34,380.81a1.09,1.09,0,0,0,.62-.43c.63-.93,2.19-3.61.35-4.67-1.68-1-4.08-.49-5.19-.19a1,1,0,0,0-.74.81C238.06,378,237.77,382.19,243.34,380.81Z" transform="translate(-178.59 -332.24)"/><path class="cls-1" d="M215.47,338.71s-3.31-7.8-9.81,0c-4.91,5.9-7.6,9.7-8.62,11.2a1,1,0,0,1-1.28.38c-2.36-1-9.36-3.66-13.15-.94-4.61,3.31,7.92,6.74,7.92,6.74s6.27,1.54,10.74.16a1,1,0,0,0,.65-.62c.51-1.33,2.25-5.13,5.4-5.23a1,1,0,0,1,.59.2c1,.66,5.44,2.84,6.1,4.11a1.06,1.06,0,0,0,1.09.6c.31-.05.63-.12.91-.19a1,1,0,0,0,.78-1C216.88,350.82,217.12,337.89,215.47,338.71Z" transform="translate(-178.59 -332.24)"/></svg>