<svg id="Calque_1" data-name="Calque 1" xmlns="http://www.w3.org/2000/svg" viewBox="0 0 1920 571"><defs><style>.cls-1{fill:#08aade;opacity:0.1;}.cls-2{fill:none;stroke:#fff;stroke-miterlimit:10;stroke-width:4px;}.cls-3{fill:#fff;}.cls-4{fill:#00abde;}</style></defs><path class="cls-1" d="M80,0H1840a80,80,0,0,1,80,80V571a0,0,0,0,1,0,0H0a0,0,0,0,1,0,0V80A80,80,0,0,1,80,0Z"/><path class="cls-2" d="M165.71,469.22s19.37-29.85-17.76-55.5c.22.16-25.26-21.38-53.8,4.27.87.66-2.83-.79-3.57,8.27l-17.86,6.29s-3.4.84-1.36,4.47a13.48,13.48,0,0,0,2.92,4.28s.2,1.54-3.09,3.15c0,0-2.53,1.5-.92,4.8,0,0-4.82,1.81-2.78,5.44l-5.31,6.94s-3.08,3.14,1.36,7.23l8.95,6.84s4.82,5.74.73,10.18l-8.29,10.85s-.25,3.94,1.48,5.26L92.5,521.93s3.77,2.19,5.33-.75c0,0,14.44-14.41,21.69-18.5l10.21-5.26s18.1-7.49,20.09-10.09c0,0,7-5.62,11-10.83A68,68,0,0,0,165.71,469.22Z" transform="translate(0.82 0)"/><path class="cls-2" d="M50,525.23s-3.49-8.86,5.45-8.9c0,0-3.77-7.69,7.16-7.59l26.09,19.93s4.81,9.18-5,9.26c-.06,0,1.93,9-6.9,7.1,0,0-1,10.27-10.85,3.4,0,0-16.11,5.58-16.33-12.47-.17-.13-8.12-6.82.51-10.92" transform="translate(0.82 0)"/><path class="cls-3" d="M119.07,448.36c-9.33,20.67-23.09,38.37-36,56.88l-2.35-1.49c12.36-18.48,25.77-36.08,35.62-56.09-1-.67-1.87-1.16-2.65-1.74a4.22,4.22,0,0,1-1.48-5.55,3.77,3.77,0,0,1,4.44-2.35c2.32.44,3.27,2.14,3.43,4.34a14.32,14.32,0,0,0-.06,2.16c.11.48.69.86,1.32,1.18-.14-2.84.15-5.39,3.12-6.31a4.26,4.26,0,0,1,5,1.8c1.41,2.15.9,3.58-2.46,7.07l2.06,1.57c2-3.93,3.4-5,5.78-4.35a4.34,4.34,0,0,1,3.35,4.43c.09,2.22-1.55,3.58-5.86,4.63,1.14.5,1.67.94,2.19.92a17.34,17.34,0,0,0,2.37-.57c2.13-.38,4.13.33,4.63,2.36a6.11,6.11,0,0,1-1.12,4.6c-1.38,1.74-3.52,1.74-5.41.39-.8-.57-1.5-1.29-2.67-2.33-16.55,14.66-30.23,32-44.62,49l-2.34-1.48c14.25-17.63,28-35.34,45.42-49.85C129.82,452.9,124.64,448.72,119.07,448.36Zm5.29-3.27,1.19.51,1.55-2.79-1.91-.6Zm-9.55-1.35,1.28-.15,0-3.19-2,.43Zm17,6.91,1,.85,2.34-2.16-1.62-1.17Zm3.7,8.36.42,1.22,3.11-.71-.83-1.82Z" transform="translate(0.82 0)"/><path class="cls-2" d="M165.71,284.22s19.37-29.85-17.76-55.5c.22.16-25.26-21.38-53.8,4.27.87.66-2.83-.79-3.57,8.27l-17.86,6.29s-3.4.84-1.36,4.47a13.48,13.48,0,0,0,2.92,4.28s.2,1.54-3.09,3.15c0,0-2.53,1.5-.92,4.8,0,0-4.82,1.81-2.78,5.44l-5.31,6.94s-3.08,3.14,1.36,7.23l8.95,6.84s4.82,5.74.73,10.18l-8.29,10.85s-.25,3.94,1.48,5.26L92.5,336.93s3.77,2.19,5.33-.75c0,0,14.44-14.41,21.69-18.5l10.21-5.26s18.1-7.49,20.09-10.09c0,0,7-5.62,11-10.83A68,68,0,0,0,165.71,284.22Z" transform="translate(0.82 0)"/><path class="cls-2" d="M50,340.23s-3.49-8.86,5.45-8.9c0,0-3.77-7.69,7.16-7.59l26.09,19.93s4.81,9.18-5,9.26c-.06-.05,1.93,9-6.9,7.1,0,0-1,10.27-10.85,3.4,0,0-16.11,5.58-16.33-12.47-.17-.13-8.12-6.82.51-10.92" transform="translate(0.82 0)"/><path class="cls-3" d="M119.07,263.36c-9.33,20.67-23.09,38.37-36,56.88l-2.35-1.49c12.36-18.48,25.77-36.08,35.62-56.09-1-.67-1.87-1.16-2.65-1.74a4.22,4.22,0,0,1-1.48-5.55,3.77,3.77,0,0,1,4.44-2.35c2.32.44,3.27,2.14,3.43,4.34a14.32,14.32,0,0,0-.06,2.16c.11.48.69.86,1.32,1.18-.14-2.84.15-5.39,3.12-6.31a4.26,4.26,0,0,1,5,1.8c1.41,2.15.9,3.58-2.46,7.07l2.06,1.57c2-3.93,3.4-5,5.78-4.35a4.34,4.34,0,0,1,3.35,4.43c.09,2.22-1.55,3.58-5.86,4.63,1.14.5,1.67.94,2.19.92a17.34,17.34,0,0,0,2.37-.57c2.13-.38,4.13.33,4.63,2.36a6.11,6.11,0,0,1-1.12,4.6c-1.38,1.74-3.52,1.74-5.41.39-.8-.57-1.5-1.29-2.67-2.33-16.55,14.66-30.23,32-44.62,49l-2.34-1.48c14.25-17.63,28-35.34,45.42-49.85C129.82,267.9,124.64,263.72,119.07,263.36Zm5.29-3.27,1.19.51,1.55-2.79-1.91-.6Zm-9.55-1.35,1.28-.15,0-3.19-2,.43Zm17,6.91,1,.85,2.34-2.16-1.62-1.17Zm3.7,8.36.42,1.22,3.11-.71-.83-1.82Z" transform="translate(0.82 0)"/><path class="cls-2" d="M165.71,99.22S185.08,69.37,148,43.72c.22.16-25.26-21.38-53.8,4.27.87.66-2.83-.79-3.57,8.27L72.72,62.55s-3.4.84-1.36,4.47a13.48,13.48,0,0,0,2.92,4.28s.2,1.54-3.09,3.15c0,0-2.53,1.5-.92,4.8,0,0-4.82,1.81-2.78,5.44l-5.31,6.94s-3.08,3.14,1.36,7.23l8.95,6.84s4.82,5.74.73,10.18l-8.29,10.85s-.25,3.94,1.48,5.26L92.5,151.93s3.77,2.19,5.33-.75c0,0,14.44-14.41,21.69-18.5l10.21-5.26s18.1-7.49,20.09-10.09c0,0,7-5.62,11-10.83A68,68,0,0,0,165.71,99.22Z" transform="translate(0.82 0)"/><path class="cls-2" d="M50,155.23s-3.49-8.86,5.45-8.9c0,0-3.77-7.69,7.16-7.59l26.09,19.93s4.81,9.18-5,9.26c-.06-.05,1.93,9-6.9,7.1,0,0-1,10.27-10.85,3.4,0,0-16.11,5.58-16.33-12.47-.17-.13-8.12-6.82.51-10.92" transform="translate(0.82 0)"/><path class="cls-3" d="M119.07,78.36C109.74,99,96,116.73,83.06,135.24l-2.35-1.49c12.36-18.48,25.77-36.08,35.62-56.09-1-.67-1.87-1.16-2.65-1.74a4.22,4.22,0,0,1-1.48-5.55A3.77,3.77,0,0,1,116.64,68c2.32.44,3.27,2.14,3.43,4.34a14.32,14.32,0,0,0-.06,2.16c.11.48.69.86,1.32,1.18-.14-2.84.15-5.39,3.12-6.31a4.26,4.26,0,0,1,5,1.8c1.41,2.15.9,3.58-2.46,7.07l2.06,1.57c2-3.93,3.4-5,5.78-4.35a4.34,4.34,0,0,1,3.35,4.43c.09,2.22-1.55,3.58-5.86,4.63,1.14.5,1.67.94,2.19.92a17.34,17.34,0,0,0,2.37-.57c2.13-.38,4.13.33,4.63,2.36a6.11,6.11,0,0,1-1.12,4.6c-1.38,1.74-3.52,1.74-5.41.39-.8-.57-1.5-1.29-2.67-2.33-16.55,14.66-30.23,32-44.62,49l-2.34-1.48c14.25-17.63,28-35.34,45.42-49.85C129.82,82.9,124.64,78.72,119.07,78.36Zm5.29-3.27,1.19.51,1.55-2.79-1.91-.6Zm-9.55-1.35,1.28-.15,0-3.19-2,.43Zm17,6.91,1,.85,2.34-2.16-1.62-1.17Zm3.7,8.36.42,1.22,3.11-.71-.83-1.82Z" transform="translate(0.82 0)"/><path class="cls-2" d="M330.71,357.22s19.37-29.85-17.76-55.5c.22.16-25.26-21.38-53.8,4.27.87.66-2.83-.79-3.57,8.27l-17.86,6.29s-3.4.84-1.36,4.47a13.48,13.48,0,0,0,2.92,4.28s.2,1.54-3.09,3.15c0,0-2.53,1.5-.92,4.8,0,0-4.82,1.81-2.78,5.44l-5.31,6.94s-3.08,3.14,1.36,7.23l9,6.84s4.82,5.74.73,10.18l-8.29,10.85s-.25,3.94,1.48,5.26l26.09,19.94s3.77,2.19,5.33-.75c0,0,14.44-14.41,21.69-18.5l10.21-5.26s18.1-7.49,20.09-10.09c0,0,7-5.62,11-10.83A68,68,0,0,0,330.71,357.22Z" transform="translate(0.82 0)"/><path class="cls-2" d="M215,413.23s-3.49-8.86,5.45-8.9c0,0-3.77-7.69,7.16-7.59l26.09,19.93s4.81,9.18-5,9.26c-.06-.05,1.93,9-6.9,7.1,0,0-1,10.27-10.85,3.4,0,0-16.11,5.58-16.33-12.47-.17-.13-8.12-6.82.51-10.92" transform="translate(0.82 0)"/><path class="cls-3" d="M284.07,336.36c-9.33,20.67-23.09,38.37-36,56.88l-2.35-1.49c12.36-18.48,25.77-36.08,35.62-56.09-1-.67-1.87-1.16-2.65-1.74a4.22,4.22,0,0,1-1.48-5.55,3.77,3.77,0,0,1,4.44-2.35c2.32.44,3.27,2.14,3.43,4.34a14.32,14.32,0,0,0-.06,2.16c.11.48.69.86,1.32,1.18-.14-2.84.15-5.39,3.12-6.31a4.26,4.26,0,0,1,5,1.8c1.41,2.15.9,3.58-2.46,7.07l2.06,1.57c2-3.93,3.4-5,5.78-4.35a4.34,4.34,0,0,1,3.35,4.43c.09,2.22-1.55,3.58-5.86,4.63,1.14.5,1.67.94,2.19.92a17.34,17.34,0,0,0,2.37-.57c2.13-.38,4.13.33,4.63,2.36a6.11,6.11,0,0,1-1.12,4.6c-1.38,1.74-3.52,1.74-5.41.39-.8-.57-1.5-1.29-2.67-2.33-16.55,14.66-30.23,32-44.62,49l-2.34-1.48c14.25-17.63,28-35.34,45.42-49.85C294.82,340.9,289.64,336.72,284.07,336.36Zm5.29-3.27,1.19.51,1.55-2.79-1.91-.6Zm-9.55-1.35,1.28-.15,0-3.19-1.95.43Zm17,6.91,1,.85,2.34-2.16-1.62-1.17Zm3.7,8.36.42,1.22,3.11-.71-.83-1.82Z" transform="translate(0.82 0)"/><path class="cls-2" d="M330.71,172.22s19.37-29.85-17.76-55.5c.22.16-25.26-21.38-53.8,4.27.87.66-2.83-.79-3.57,8.27l-17.86,6.29s-3.4.84-1.36,4.47a13.48,13.48,0,0,0,2.92,4.28s.2,1.54-3.09,3.15c0,0-2.53,1.5-.92,4.8,0,0-4.82,1.81-2.78,5.44l-5.31,6.94s-3.08,3.14,1.36,7.23l9,6.84s4.82,5.74.73,10.18l-8.29,10.85s-.25,3.94,1.48,5.26l26.09,19.94s3.77,2.19,5.33-.75c0,0,14.44-14.41,21.69-18.5l10.21-5.26s18.1-7.49,20.09-10.09c0,0,7-5.62,11-10.83A68,68,0,0,0,330.71,172.22Z" transform="translate(0.82 0)"/><path class="cls-2" d="M215,228.23s-3.49-8.86,5.45-8.9c0,0-3.77-7.69,7.16-7.59l26.09,19.93s4.81,9.18-5,9.26c-.06-.05,1.93,9-6.9,7.1,0,0-1,10.27-10.85,3.4,0,0-16.11,5.58-16.33-12.47-.17-.13-8.12-6.82.51-10.92" transform="translate(0.82 0)"/><path class="cls-3" d="M284.07,151.36c-9.33,20.67-23.09,38.37-36,56.88l-2.35-1.49c12.36-18.48,25.77-36.08,35.62-56.09-1-.67-1.87-1.16-2.65-1.74a4.22,4.22,0,0,1-1.48-5.55,3.77,3.77,0,0,1,4.44-2.35c2.32.44,3.27,2.14,3.43,4.34a14.32,14.32,0,0,0-.06,2.16c.11.48.69.86,1.32,1.18-.14-2.84.15-5.39,3.12-6.31a4.26,4.26,0,0,1,5,1.8c1.41,2.15.9,3.58-2.46,7.07l2.06,1.57c2-3.93,3.4-5,5.78-4.35a4.34,4.34,0,0,1,3.35,4.43c.09,2.22-1.55,3.58-5.86,4.63,1.14.5,1.67.94,2.19.92a17.34,17.34,0,0,0,2.37-.57c2.13-.38,4.13.33,4.63,2.36a6.11,6.11,0,0,1-1.12,4.6c-1.38,1.74-3.52,1.74-5.41.39-.8-.57-1.5-1.29-2.67-2.33-16.55,14.66-30.23,32-44.62,49l-2.34-1.48c14.25-17.63,28-35.34,45.42-49.85C294.82,155.9,289.64,151.72,284.07,151.36Zm5.29-3.27,1.19.51,1.55-2.79-1.91-.6Zm-9.55-1.35,1.28-.15,0-3.19-1.95.43Zm17,6.91,1,.85,2.34-2.16-1.62-1.17Zm3.7,8.36.42,1.22,3.11-.71-.83-1.82Z" transform="translate(0.82 0)"/><path class="cls-2" d="M507.71,469.22s19.37-29.85-17.76-55.5c.22.16-25.26-21.38-53.8,4.27.87.66-2.83-.79-3.57,8.27l-17.86,6.29s-3.4.84-1.36,4.47a13.48,13.48,0,0,0,2.92,4.28s.2,1.54-3.09,3.15c0,0-2.53,1.5-.92,4.8,0,0-4.82,1.81-2.78,5.44l-5.31,6.94s-3.08,3.14,1.36,7.23l8.95,6.84s4.82,5.74.73,10.18l-8.29,10.85s-.25,3.94,1.48,5.26l26.09,19.94s3.77,2.19,5.33-.75c0,0,14.44-14.41,21.69-18.5l10.21-5.26s18.1-7.49,20.09-10.09c0,0,7-5.62,11-10.83A68,68,0,0,0,507.71,469.22Z" transform="translate(0.82 0)"/><path class="cls-2" d="M392,525.23s-3.49-8.86,5.45-8.9c0,0-3.77-7.69,7.16-7.59l26.09,19.93s4.81,9.18-5,9.26c-.06,0,1.93,9-6.9,7.1,0,0-1,10.27-10.85,3.4,0,0-16.11,5.58-16.33-12.47-.17-.13-8.12-6.82.51-10.92" transform="translate(0.82 0)"/><path class="cls-3" d="M461.07,448.36c-9.33,20.67-23.09,38.37-36,56.88l-2.35-1.49c12.36-18.48,25.77-36.08,35.62-56.09-1-.67-1.87-1.16-2.65-1.74a4.22,4.22,0,0,1-1.48-5.55,3.77,3.77,0,0,1,4.44-2.35c2.32.44,3.27,2.14,3.43,4.34a14.32,14.32,0,0,0-.06,2.16c.11.48.69.86,1.32,1.18-.14-2.84.15-5.39,3.12-6.31a4.26,4.26,0,0,1,5,1.8c1.41,2.15.9,3.58-2.46,7.07l2.06,1.57c2-3.93,3.4-5,5.78-4.35a4.34,4.34,0,0,1,3.35,4.43c.09,2.22-1.55,3.58-5.86,4.63,1.14.5,1.67.94,2.19.92a17.34,17.34,0,0,0,2.37-.57c2.13-.38,4.13.33,4.63,2.36a6.11,6.11,0,0,1-1.12,4.6c-1.38,1.74-3.52,1.74-5.41.39-.8-.57-1.5-1.29-2.67-2.33-16.55,14.66-30.23,32-44.62,49l-2.34-1.48c14.25-17.63,28-35.34,45.42-49.85C471.82,452.9,466.64,448.72,461.07,448.36Zm5.29-3.27,1.19.51,1.55-2.79-1.91-.6Zm-9.55-1.35,1.28-.15,0-3.19-1.95.43Zm17,6.91,1,.85,2.34-2.16-1.62-1.17Zm3.7,8.36.42,1.22,3.11-.71-.83-1.82Z" transform="translate(0.82 0)"/><path class="cls-2" d="M507.71,284.22s19.37-29.85-17.76-55.5c.22.16-25.26-21.38-53.8,4.27.87.66-2.83-.79-3.57,8.27l-17.86,6.29s-3.4.84-1.36,4.47a13.48,13.48,0,0,0,2.92,4.28s.2,1.54-3.09,3.15c0,0-2.53,1.5-.92,4.8,0,0-4.82,1.81-2.78,5.44l-5.31,6.94s-3.08,3.14,1.36,7.23l8.95,6.84s4.82,5.74.73,10.18l-8.29,10.85s-.25,3.94,1.48,5.26l26.09,19.94s3.77,2.19,5.33-.75c0,0,14.44-14.41,21.69-18.5l10.21-5.26s18.1-7.49,20.09-10.09c0,0,7-5.62,11-10.83A68,68,0,0,0,507.71,284.22Z" transform="translate(0.82 0)"/><path class="cls-2" d="M392,340.23s-3.49-8.86,5.45-8.9c0,0-3.77-7.69,7.16-7.59l26.09,19.93s4.81,9.18-5,9.26c-.06-.05,1.93,9-6.9,7.1,0,0-1,10.27-10.85,3.4,0,0-16.11,5.58-16.33-12.47-.17-.13-8.12-6.82.51-10.92" transform="translate(0.82 0)"/><path class="cls-3" d="M461.07,263.36c-9.33,20.67-23.09,38.37-36,56.88l-2.35-1.49c12.36-18.48,25.77-36.08,35.62-56.09-1-.67-1.87-1.16-2.65-1.74a4.22,4.22,0,0,1-1.48-5.55,3.77,3.77,0,0,1,4.44-2.35c2.32.44,3.27,2.14,3.43,4.34a14.32,14.32,0,0,0-.06,2.16c.11.48.69.86,1.32,1.18-.14-2.84.15-5.39,3.12-6.31a4.26,4.26,0,0,1,5,1.8c1.41,2.15.9,3.58-2.46,7.07l2.06,1.57c2-3.93,3.4-5,5.78-4.35a4.34,4.34,0,0,1,3.35,4.43c.09,2.22-1.55,3.58-5.86,4.63,1.14.5,1.67.94,2.19.92a17.34,17.34,0,0,0,2.37-.57c2.13-.38,4.13.33,4.63,2.36a6.11,6.11,0,0,1-1.12,4.6c-1.38,1.74-3.52,1.74-5.41.39-.8-.57-1.5-1.29-2.67-2.33-16.55,14.66-30.23,32-44.62,49l-2.34-1.48c14.25-17.63,28-35.34,45.42-49.85C471.82,267.9,466.64,263.72,461.07,263.36Zm5.29-3.27,1.19.51,1.55-2.79-1.91-.6Zm-9.55-1.35,1.28-.15,0-3.19-1.95.43Zm17,6.91,1,.85,2.34-2.16-1.62-1.17Zm3.7,8.36.42,1.22,3.11-.71-.83-1.82Z" transform="translate(0.82 0)"/><path class="cls-2" d="M507.71,99.22S527.08,69.37,490,43.72c.22.16-25.26-21.38-53.8,4.27.87.66-2.83-.79-3.57,8.27l-17.86,6.29s-3.4.84-1.36,4.47a13.48,13.48,0,0,0,2.92,4.28s.2,1.54-3.09,3.15c0,0-2.53,1.5-.92,4.8,0,0-4.82,1.81-2.78,5.44l-5.31,6.94s-3.08,3.14,1.36,7.23l8.95,6.84s4.82,5.74.73,10.18l-8.29,10.85s-.25,3.94,1.48,5.26l26.09,19.94s3.77,2.19,5.33-.75c0,0,14.44-14.41,21.69-18.5l10.21-5.26s18.1-7.49,20.09-10.09c0,0,7-5.62,11-10.83A68,68,0,0,0,507.71,99.22Z" transform="translate(0.82 0)"/><path class="cls-2" d="M392,155.23s-3.49-8.86,5.45-8.9c0,0-3.77-7.69,7.16-7.59l26.09,19.93s4.81,9.18-5,9.26c-.06-.05,1.93,9-6.9,7.1,0,0-1,10.27-10.85,3.4,0,0-16.11,5.58-16.33-12.47-.17-.13-8.12-6.82.51-10.92" transform="translate(0.82 0)"/><path class="cls-3" d="M461.07,78.36c-9.33,20.67-23.09,38.37-36,56.88l-2.35-1.49c12.36-18.48,25.77-36.08,35.62-56.09-1-.67-1.87-1.16-2.65-1.74a4.22,4.22,0,0,1-1.48-5.55A3.77,3.77,0,0,1,458.64,68c2.32.44,3.27,2.14,3.43,4.34a14.32,14.32,0,0,0-.06,2.16c.11.48.69.86,1.32,1.18-.14-2.84.15-5.39,3.12-6.31a4.26,4.26,0,0,1,5,1.8c1.41,2.15.9,3.58-2.46,7.07l2.06,1.57c2-3.93,3.4-5,5.78-4.35a4.34,4.34,0,0,1,3.35,4.43c.09,2.22-1.55,3.58-5.86,4.63,1.14.5,1.67.94,2.19.92a17.34,17.34,0,0,0,2.37-.57c2.13-.38,4.13.33,4.63,2.36a6.11,6.11,0,0,1-1.12,4.6c-1.38,1.74-3.52,1.74-5.41.39-.8-.57-1.5-1.29-2.67-2.33-16.55,14.66-30.23,32-44.62,49l-2.34-1.48c14.25-17.63,28-35.34,45.42-49.85C471.82,82.9,466.64,78.72,461.07,78.36Zm5.29-3.27,1.19.51,1.55-2.79-1.91-.6Zm-9.55-1.35,1.28-.15,0-3.19-1.95.43Zm17,6.91,1,.85,2.34-2.16-1.62-1.17Zm3.7,8.36.42,1.22,3.11-.71-.83-1.82Z" transform="translate(0.82 0)"/><path class="cls-2" d="M672.71,357.22s19.37-29.85-17.76-55.5c.22.16-25.26-21.38-53.8,4.27.87.66-2.83-.79-3.57,8.27l-17.86,6.29s-3.4.84-1.36,4.47a13.48,13.48,0,0,0,2.92,4.28s.2,1.54-3.09,3.15c0,0-2.53,1.5-.92,4.8,0,0-4.82,1.81-2.78,5.44l-5.31,6.94s-3.08,3.14,1.36,7.23l9,6.84s4.82,5.74.73,10.18l-8.29,10.85s-.25,3.94,1.48,5.26l26.09,19.94s3.77,2.19,5.33-.75c0,0,14.44-14.41,21.69-18.5l10.21-5.26s18.1-7.49,20.09-10.09c0,0,7-5.62,11-10.83A68,68,0,0,0,672.71,357.22Z" transform="translate(0.82 0)"/><path class="cls-2" d="M557,413.23s-3.49-8.86,5.45-8.9c0,0-3.77-7.69,7.16-7.59l26.09,19.93s4.81,9.18-5,9.26c-.06-.05,1.93,9-6.9,7.1,0,0-1,10.27-10.85,3.4,0,0-16.11,5.58-16.33-12.47-.17-.13-8.12-6.82.51-10.92" transform="translate(0.82 0)"/><path class="cls-3" d="M626.07,336.36c-9.33,20.67-23.09,38.37-36,56.88l-2.35-1.49c12.36-18.48,25.77-36.08,35.62-56.09-1-.67-1.87-1.16-2.65-1.74a4.22,4.22,0,0,1-1.48-5.55,3.77,3.77,0,0,1,4.44-2.35c2.32.44,3.27,2.14,3.43,4.34a14.32,14.32,0,0,0-.06,2.16c.11.48.69.86,1.32,1.18-.14-2.84.15-5.39,3.12-6.31a4.26,4.26,0,0,1,5,1.8c1.41,2.15.9,3.58-2.46,7.07l2.06,1.57c2-3.93,3.4-5,5.78-4.35a4.34,4.34,0,0,1,3.35,4.43c.09,2.22-1.55,3.58-5.86,4.63,1.14.5,1.67.94,2.19.92a17.34,17.34,0,0,0,2.37-.57c2.13-.38,4.13.33,4.63,2.36a6.11,6.11,0,0,1-1.12,4.6c-1.38,1.74-3.52,1.74-5.41.39-.8-.57-1.5-1.29-2.67-2.33-16.55,14.66-30.23,32-44.62,49l-2.34-1.48c14.25-17.63,28-35.34,45.42-49.85C636.82,340.9,631.64,336.72,626.07,336.36Zm5.29-3.27,1.19.51,1.55-2.79-1.91-.6Zm-9.55-1.35,1.28-.15,0-3.19-1.95.43Zm17,6.91,1,.85,2.34-2.16-1.62-1.17Zm3.7,8.36.42,1.22,3.11-.71-.83-1.82Z" transform="translate(0.82 0)"/><path class="cls-2" d="M672.71,172.22s19.37-29.85-17.76-55.5c.22.16-25.26-21.38-53.8,4.27.87.66-2.83-.79-3.57,8.27l-17.86,6.29s-3.4.84-1.36,4.47a13.48,13.48,0,0,0,2.92,4.28s.2,1.54-3.09,3.15c0,0-2.53,1.5-.92,4.8,0,0-4.82,1.81-2.78,5.44l-5.31,6.94s-3.08,3.14,1.36,7.23l9,6.84s4.82,5.74.73,10.18l-8.29,10.85s-.25,3.94,1.48,5.26l26.09,19.94s3.77,2.19,5.33-.75c0,0,14.44-14.41,21.69-18.5l10.21-5.26s18.1-7.49,20.09-10.09c0,0,7-5.62,11-10.83A68,68,0,0,0,672.71,172.22Z" transform="translate(0.82 0)"/><path class="cls-2" d="M557,228.23s-3.49-8.86,5.45-8.9c0,0-3.77-7.69,7.16-7.59l26.09,19.93s4.81,9.18-5,9.26c-.06-.05,1.93,9-6.9,7.1,0,0-1,10.27-10.85,3.4,0,0-16.11,5.58-16.33-12.47-.17-.13-8.12-6.82.51-10.92" transform="translate(0.82 0)"/><path class="cls-3" d="M626.07,151.36c-9.33,20.67-23.09,38.37-36,56.88l-2.35-1.49c12.36-18.48,25.77-36.08,35.62-56.09-1-.67-1.87-1.16-2.65-1.74a4.22,4.22,0,0,1-1.48-5.55,3.77,3.77,0,0,1,4.44-2.35c2.32.44,3.27,2.14,3.43,4.34a14.32,14.32,0,0,0-.06,2.16c.11.48.69.86,1.32,1.18-.14-2.84.15-5.39,3.12-6.31a4.26,4.26,0,0,1,5,1.8c1.41,2.15.9,3.58-2.46,7.07l2.06,1.57c2-3.93,3.4-5,5.78-4.35a4.34,4.34,0,0,1,3.35,4.43c.09,2.22-1.55,3.58-5.86,4.63,1.14.5,1.67.94,2.19.92a17.34,17.34,0,0,0,2.37-.57c2.13-.38,4.13.33,4.63,2.36a6.11,6.11,0,0,1-1.12,4.6c-1.38,1.74-3.52,1.74-5.41.39-.8-.57-1.5-1.29-2.67-2.33-16.55,14.66-30.23,32-44.62,49l-2.34-1.48c14.25-17.63,28-35.34,45.42-49.85C636.82,155.9,631.64,151.72,626.07,151.36Zm5.29-3.27,1.19.51,1.55-2.79-1.91-.6Zm-9.55-1.35,1.28-.15,0-3.19-1.95.43Zm17,6.91,1,.85,2.34-2.16-1.62-1.17Zm3.7,8.36.42,1.22,3.11-.71-.83-1.82Z" transform="translate(0.82 0)"/><path class="cls-2" d="M849.71,469.22s19.37-29.85-17.76-55.5c.22.16-25.26-21.38-53.8,4.27.87.66-2.83-.79-3.57,8.27l-17.86,6.29s-3.4.84-1.36,4.47a13.48,13.48,0,0,0,2.92,4.28s.2,1.54-3.09,3.15c0,0-2.53,1.5-.92,4.8,0,0-4.82,1.81-2.78,5.44l-5.31,6.94s-3.08,3.14,1.36,7.23l9,6.84s4.82,5.74.73,10.18l-8.29,10.85s-.25,3.94,1.48,5.26l26.09,19.94s3.77,2.19,5.33-.75c0,0,14.44-14.41,21.69-18.5l10.21-5.26s18.1-7.49,20.09-10.09c0,0,7-5.62,11-10.83A68,68,0,0,0,849.71,469.22Z" transform="translate(0.82 0)"/><path class="cls-2" d="M734,525.23s-3.49-8.86,5.45-8.9c0,0-3.77-7.69,7.16-7.59l26.09,19.93s4.81,9.18-5,9.26c-.06,0,1.93,9-6.9,7.1,0,0-1,10.27-10.85,3.4,0,0-16.11,5.58-16.33-12.47-.17-.13-8.12-6.82.51-10.92" transform="translate(0.82 0)"/><path class="cls-3" d="M803.07,448.36c-9.33,20.67-23.09,38.37-36,56.88l-2.35-1.49c12.36-18.48,25.77-36.08,35.62-56.09-1-.67-1.87-1.16-2.65-1.74a4.22,4.22,0,0,1-1.48-5.55,3.77,3.77,0,0,1,4.44-2.35c2.32.44,3.27,2.14,3.43,4.34a14.32,14.32,0,0,0-.06,2.16c.11.48.69.86,1.32,1.18-.14-2.84.15-5.39,3.12-6.31a4.26,4.26,0,0,1,5,1.8c1.41,2.15.9,3.58-2.46,7.07l2.06,1.57c2-3.93,3.4-5,5.78-4.35a4.34,4.34,0,0,1,3.35,4.43c.09,2.22-1.55,3.58-5.86,4.63,1.14.5,1.67.94,2.19.92a17.34,17.34,0,0,0,2.37-.57c2.13-.38,4.13.33,4.63,2.36a6.11,6.11,0,0,1-1.12,4.6c-1.38,1.74-3.52,1.74-5.41.39-.8-.57-1.5-1.29-2.67-2.33-16.55,14.66-30.23,32-44.62,49l-2.34-1.48c14.25-17.63,28-35.34,45.42-49.85C813.82,452.9,808.64,448.72,803.07,448.36Zm5.29-3.27,1.19.51,1.55-2.79-1.91-.6Zm-9.55-1.35,1.28-.15,0-3.19-1.95.43Zm17,6.91,1,.85,2.34-2.16-1.62-1.17Zm3.7,8.36.42,1.22,3.11-.71-.83-1.82Z" transform="translate(0.82 0)"/><path class="cls-2" d="M849.71,284.22s19.37-29.85-17.76-55.5c.22.16-25.26-21.38-53.8,4.27.87.66-2.83-.79-3.57,8.27l-17.86,6.29s-3.4.84-1.36,4.47a13.48,13.48,0,0,0,2.92,4.28s.2,1.54-3.09,3.15c0,0-2.53,1.5-.92,4.8,0,0-4.82,1.81-2.78,5.44l-5.31,6.94s-3.08,3.14,1.36,7.23l9,6.84s4.82,5.74.73,10.18l-8.29,10.85s-.25,3.94,1.48,5.26l26.09,19.94s3.77,2.19,5.33-.75c0,0,14.44-14.41,21.69-18.5l10.21-5.26s18.1-7.49,20.09-10.09c0,0,7-5.62,11-10.83A68,68,0,0,0,849.71,284.22Z" transform="translate(0.82 0)"/><path class="cls-2" d="M734,340.23s-3.49-8.86,5.45-8.9c0,0-3.77-7.69,7.16-7.59l26.09,19.93s4.81,9.18-5,9.26c-.06-.05,1.93,9-6.9,7.1,0,0-1,10.27-10.85,3.4,0,0-16.11,5.58-16.33-12.47-.17-.13-8.12-6.82.51-10.92" transform="translate(0.82 0)"/><path class="cls-3" d="M803.07,263.36c-9.33,20.67-23.09,38.37-36,56.88l-2.35-1.49c12.36-18.48,25.77-36.08,35.62-56.09-1-.67-1.87-1.16-2.65-1.74a4.22,4.22,0,0,1-1.48-5.55,3.77,3.77,0,0,1,4.44-2.35c2.32.44,3.27,2.14,3.43,4.34a14.32,14.32,0,0,0-.06,2.16c.11.48.69.86,1.32,1.18-.14-2.84.15-5.39,3.12-6.31a4.26,4.26,0,0,1,5,1.8c1.41,2.15.9,3.58-2.46,7.07l2.06,1.57c2-3.93,3.4-5,5.78-4.35a4.34,4.34,0,0,1,3.35,4.43c.09,2.22-1.55,3.58-5.86,4.63,1.14.5,1.67.94,2.19.92a17.34,17.34,0,0,0,2.37-.57c2.13-.38,4.13.33,4.63,2.36a6.11,6.11,0,0,1-1.12,4.6c-1.38,1.74-3.52,1.74-5.41.39-.8-.57-1.5-1.29-2.67-2.33-16.55,14.66-30.23,32-44.62,49l-2.34-1.48c14.25-17.63,28-35.34,45.42-49.85C813.82,267.9,808.64,263.72,803.07,263.36Zm5.29-3.27,1.19.51,1.55-2.79-1.91-.6Zm-9.55-1.35,1.28-.15,0-3.19-1.95.43Zm17,6.91,1,.85,2.34-2.16-1.62-1.17Zm3.7,8.36.42,1.22,3.11-.71-.83-1.82Z" transform="translate(0.82 0)"/><path class="cls-2" d="M849.71,99.22S869.08,69.37,832,43.72c.22.16-25.26-21.38-53.8,4.27.87.66-2.83-.79-3.57,8.27l-17.86,6.29s-3.4.84-1.36,4.47a13.48,13.48,0,0,0,2.92,4.28s.2,1.54-3.09,3.15c0,0-2.53,1.5-.92,4.8,0,0-4.82,1.81-2.78,5.44l-5.31,6.94s-3.08,3.14,1.36,7.23l9,6.84s4.82,5.74.73,10.18l-8.29,10.85s-.25,3.94,1.48,5.26l26.09,19.94s3.77,2.19,5.33-.75c0,0,14.44-14.41,21.69-18.5l10.21-5.26s18.1-7.49,20.09-10.09c0,0,7-5.62,11-10.83A68,68,0,0,0,849.71,99.22Z" transform="translate(0.82 0)"/><path class="cls-2" d="M734,155.23s-3.49-8.86,5.45-8.9c0,0-3.77-7.69,7.16-7.59l26.09,19.93s4.81,9.18-5,9.26c-.06-.05,1.93,9-6.9,7.1,0,0-1,10.27-10.85,3.4,0,0-16.11,5.58-16.33-12.47-.17-.13-8.12-6.82.51-10.92" transform="translate(0.82 0)"/><path class="cls-3" d="M803.07,78.36c-9.33,20.67-23.09,38.37-36,56.88l-2.35-1.49c12.36-18.48,25.77-36.08,35.62-56.09-1-.67-1.87-1.16-2.65-1.74a4.22,4.22,0,0,1-1.48-5.55A3.77,3.77,0,0,1,800.64,68c2.32.44,3.27,2.14,3.43,4.34a14.32,14.32,0,0,0-.06,2.16c.11.48.69.86,1.32,1.18-.14-2.84.15-5.39,3.12-6.31a4.26,4.26,0,0,1,5,1.8c1.41,2.15.9,3.58-2.46,7.07l2.06,1.57c2-3.93,3.4-5,5.78-4.35a4.34,4.34,0,0,1,3.35,4.43c.09,2.22-1.55,3.58-5.86,4.63,1.14.5,1.67.94,2.19.92a17.34,17.34,0,0,0,2.37-.57c2.13-.38,4.13.33,4.63,2.36a6.11,6.11,0,0,1-1.12,4.6c-1.38,1.74-3.52,1.74-5.41.39-.8-.57-1.5-1.29-2.67-2.33-16.55,14.66-30.23,32-44.62,49l-2.34-1.48c14.25-17.63,28-35.34,45.42-49.85C813.82,82.9,808.64,78.72,803.07,78.36Zm5.29-3.27,1.19.51,1.55-2.79-1.91-.6Zm-9.55-1.35,1.28-.15,0-3.19-1.95.43Zm17,6.91,1,.85,2.34-2.16-1.62-1.17Zm3.7,8.36.42,1.22,3.11-.71-.83-1.82Z" transform="translate(0.82 0)"/><path class="cls-2" d="M1014.71,357.22s19.37-29.85-17.76-55.5c.22.16-25.26-21.38-53.8,4.27.87.66-2.83-.79-3.57,8.27l-17.86,6.29s-3.4.84-1.36,4.47a13.48,13.48,0,0,0,2.92,4.28s.2,1.54-3.09,3.15c0,0-2.53,1.5-.92,4.8,0,0-4.82,1.81-2.78,5.44l-5.31,6.94s-3.08,3.14,1.36,7.23l9,6.84s4.82,5.74.73,10.18l-8.29,10.85s-.25,3.94,1.48,5.26l26.09,19.94s3.77,2.19,5.33-.75c0,0,14.44-14.41,21.69-18.5l10.21-5.26s18.1-7.49,20.09-10.09c0,0,7-5.62,11-10.83A68,68,0,0,0,1014.71,357.22Z" transform="translate(0.82 0)"/><path class="cls-2" d="M899,413.23s-3.49-8.86,5.45-8.9c0,0-3.77-7.69,7.16-7.59l26.09,19.93s4.81,9.18-5,9.26c-.06-.05,1.93,9-6.9,7.1,0,0-1,10.27-10.85,3.4,0,0-16.11,5.58-16.33-12.47-.17-.13-8.12-6.82.51-10.92" transform="translate(0.82 0)"/><path class="cls-3" d="M968.07,336.36c-9.33,20.67-23.09,38.37-36,56.88l-2.35-1.49c12.36-18.48,25.77-36.08,35.62-56.09-1-.67-1.87-1.16-2.65-1.74a4.22,4.22,0,0,1-1.48-5.55,3.77,3.77,0,0,1,4.44-2.35c2.32.44,3.27,2.14,3.43,4.34a14.32,14.32,0,0,0-.06,2.16c.11.48.69.86,1.32,1.18-.14-2.84.15-5.39,3.12-6.31a4.26,4.26,0,0,1,5,1.8c1.41,2.15.9,3.58-2.46,7.07l2.06,1.57c2-3.93,3.4-5,5.78-4.35a4.34,4.34,0,0,1,3.35,4.43c.09,2.22-1.55,3.58-5.86,4.63,1.14.5,1.67.94,2.19.92a17.34,17.34,0,0,0,2.37-.57c2.13-.38,4.13.33,4.63,2.36a6.11,6.11,0,0,1-1.12,4.6c-1.38,1.74-3.52,1.74-5.41.39-.8-.57-1.5-1.29-2.67-2.33-16.55,14.66-30.23,32-44.62,49l-2.34-1.48c14.25-17.63,28-35.34,45.42-49.85C978.82,340.9,973.64,336.72,968.07,336.36Zm5.29-3.27,1.19.51,1.55-2.79-1.91-.6Zm-9.55-1.35,1.28-.15,0-3.19-1.95.43Zm17,6.91,1,.85,2.34-2.16-1.62-1.17Zm3.7,8.36.42,1.22,3.11-.71-.83-1.82Z" transform="translate(0.82 0)"/><path class="cls-2" d="M1014.71,172.22s19.37-29.85-17.76-55.5c.22.16-25.26-21.38-53.8,4.27.87.66-2.83-.79-3.57,8.27l-17.86,6.29s-3.4.84-1.36,4.47a13.48,13.48,0,0,0,2.92,4.28s.2,1.54-3.09,3.15c0,0-2.53,1.5-.92,4.8,0,0-4.82,1.81-2.78,5.44l-5.31,6.94s-3.08,3.14,1.36,7.23l9,6.84s4.82,5.74.73,10.18l-8.29,10.85s-.25,3.94,1.48,5.26l26.09,19.94s3.77,2.19,5.33-.75c0,0,14.44-14.41,21.69-18.5l10.21-5.26s18.1-7.49,20.09-10.09c0,0,7-5.62,11-10.83A68,68,0,0,0,1014.71,172.22Z" transform="translate(0.82 0)"/><path class="cls-2" d="M899,228.23s-3.49-8.86,5.45-8.9c0,0-3.77-7.69,7.16-7.59l26.09,19.93s4.81,9.18-5,9.26c-.06-.05,1.93,9-6.9,7.1,0,0-1,10.27-10.85,3.4,0,0-16.11,5.58-16.33-12.47-.17-.13-8.12-6.82.51-10.92" transform="translate(0.82 0)"/><path class="cls-3" d="M968.07,151.36c-9.33,20.67-23.09,38.37-36,56.88l-2.35-1.49c12.36-18.48,25.77-36.08,35.62-56.09-1-.67-1.87-1.16-2.65-1.74a4.22,4.22,0,0,1-1.48-5.55,3.77,3.77,0,0,1,4.44-2.35c2.32.44,3.27,2.14,3.43,4.34a14.32,14.32,0,0,0-.06,2.16c.11.48.69.86,1.32,1.18-.14-2.84.15-5.39,3.12-6.31a4.26,4.26,0,0,1,5,1.8c1.41,2.15.9,3.58-2.46,7.07l2.06,1.57c2-3.93,3.4-5,5.78-4.35a4.34,4.34,0,0,1,3.35,4.43c.09,2.22-1.55,3.58-5.86,4.63,1.14.5,1.67.94,2.19.92a17.34,17.34,0,0,0,2.37-.57c2.13-.38,4.13.33,4.63,2.36a6.11,6.11,0,0,1-1.12,4.6c-1.38,1.74-3.52,1.74-5.41.39-.8-.57-1.5-1.29-2.67-2.33-16.55,14.66-30.23,32-44.62,49l-2.34-1.48c14.25-17.63,28-35.34,45.42-49.85C978.82,155.9,973.64,151.72,968.07,151.36Zm5.29-3.27,1.19.51,1.55-2.79-1.91-.6Zm-9.55-1.35,1.28-.15,0-3.19-1.95.43Zm17,6.91,1,.85,2.34-2.16-1.62-1.17Zm3.7,8.36.42,1.22,3.11-.71-.83-1.82Z" transform="translate(0.82 0)"/><path class="cls-2" d="M1191.71,469.22s19.37-29.85-17.76-55.5c.22.16-25.26-21.38-53.8,4.27.87.66-2.83-.79-3.57,8.27l-17.86,6.29s-3.4.84-1.36,4.47a13.48,13.48,0,0,0,2.92,4.28s.2,1.54-3.09,3.15c0,0-2.53,1.5-.92,4.8,0,0-4.82,1.81-2.78,5.44l-5.31,6.94s-3.08,3.14,1.36,7.23l9,6.84s4.82,5.74.73,10.18l-8.29,10.85s-.25,3.94,1.48,5.26l26.09,19.94s3.77,2.19,5.33-.75c0,0,14.44-14.41,21.69-18.5l10.21-5.26s18.1-7.49,20.09-10.09c0,0,7-5.62,11-10.83A68,68,0,0,0,1191.71,469.22Z" transform="translate(0.82 0)"/><path class="cls-2" d="M1076,525.23s-3.49-8.86,5.45-8.9c0,0-3.77-7.69,7.16-7.59l26.09,19.93s4.81,9.18-5,9.26c-.06,0,1.93,9-6.9,7.1,0,0-1,10.27-10.85,3.4,0,0-16.11,5.58-16.33-12.47-.17-.13-8.12-6.82.51-10.92" transform="translate(0.82 0)"/><path class="cls-3" d="M1145.07,448.36c-9.33,20.67-23.09,38.37-36,56.88l-2.35-1.49c12.36-18.48,25.77-36.08,35.62-56.09-1-.67-1.87-1.16-2.65-1.74a4.22,4.22,0,0,1-1.48-5.55,3.77,3.77,0,0,1,4.44-2.35c2.32.44,3.27,2.14,3.43,4.34a14.32,14.32,0,0,0-.06,2.16c.11.48.69.86,1.32,1.18-.14-2.84.15-5.39,3.12-6.31a4.26,4.26,0,0,1,5,1.8c1.41,2.15.9,3.58-2.46,7.07l2.06,1.57c2-3.93,3.4-5,5.78-4.35a4.34,4.34,0,0,1,3.35,4.43c.09,2.22-1.55,3.58-5.86,4.63,1.14.5,1.67.94,2.19.92a17.34,17.34,0,0,0,2.37-.57c2.13-.38,4.13.33,4.63,2.36a6.11,6.11,0,0,1-1.12,4.6c-1.38,1.74-3.52,1.74-5.41.39-.8-.57-1.5-1.29-2.67-2.33-16.55,14.66-30.23,32-44.62,49l-2.34-1.48c14.25-17.63,28-35.34,45.42-49.85C1155.82,452.9,1150.64,448.72,1145.07,448.36Zm5.29-3.27,1.19.51,1.55-2.79-1.91-.6Zm-9.55-1.35,1.28-.15,0-3.19-2,.43Zm17,6.91,1,.85,2.34-2.16-1.62-1.17Zm3.7,8.36.42,1.22,3.11-.71-.83-1.82Z" transform="translate(0.82 0)"/><path class="cls-2" d="M1191.71,284.22s19.37-29.85-17.76-55.5c.22.16-25.26-21.38-53.8,4.27.87.66-2.83-.79-3.57,8.27l-17.86,6.29s-3.4.84-1.36,4.47a13.48,13.48,0,0,0,2.92,4.28s.2,1.54-3.09,3.15c0,0-2.53,1.5-.92,4.8,0,0-4.82,1.81-2.78,5.44l-5.31,6.94s-3.08,3.14,1.36,7.23l9,6.84s4.82,5.74.73,10.18l-8.29,10.85s-.25,3.94,1.48,5.26l26.09,19.94s3.77,2.19,5.33-.75c0,0,14.44-14.41,21.69-18.5l10.21-5.26s18.1-7.49,20.09-10.09c0,0,7-5.62,11-10.83A68,68,0,0,0,1191.71,284.22Z" transform="translate(0.82 0)"/><path class="cls-2" d="M1076,340.23s-3.49-8.86,5.45-8.9c0,0-3.77-7.69,7.16-7.59l26.09,19.93s4.81,9.18-5,9.26c-.06-.05,1.93,9-6.9,7.1,0,0-1,10.27-10.85,3.4,0,0-16.11,5.58-16.33-12.47-.17-.13-8.12-6.82.51-10.92" transform="translate(0.82 0)"/><path class="cls-3" d="M1145.07,263.36c-9.33,20.67-23.09,38.37-36,56.88l-2.35-1.49c12.36-18.48,25.77-36.08,35.62-56.09-1-.67-1.87-1.16-2.65-1.74a4.22,4.22,0,0,1-1.48-5.55,3.77,3.77,0,0,1,4.44-2.35c2.32.44,3.27,2.14,3.43,4.34a14.32,14.32,0,0,0-.06,2.16c.11.48.69.86,1.32,1.18-.14-2.84.15-5.39,3.12-6.31a4.26,4.26,0,0,1,5,1.8c1.41,2.15.9,3.58-2.46,7.07l2.06,1.57c2-3.93,3.4-5,5.78-4.35a4.34,4.34,0,0,1,3.35,4.43c.09,2.22-1.55,3.58-5.86,4.63,1.14.5,1.67.94,2.19.92a17.34,17.34,0,0,0,2.37-.57c2.13-.38,4.13.33,4.63,2.36a6.11,6.11,0,0,1-1.12,4.6c-1.38,1.74-3.52,1.74-5.41.39-.8-.57-1.5-1.29-2.67-2.33-16.55,14.66-30.23,32-44.62,49l-2.34-1.48c14.25-17.63,28-35.34,45.42-49.85C1155.82,267.9,1150.64,263.72,1145.07,263.36Zm5.29-3.27,1.19.51,1.55-2.79-1.91-.6Zm-9.55-1.35,1.28-.15,0-3.19-2,.43Zm17,6.91,1,.85,2.34-2.16-1.62-1.17Zm3.7,8.36.42,1.22,3.11-.71-.83-1.82Z" transform="translate(0.82 0)"/><path class="cls-2" d="M1191.71,99.22s19.37-29.85-17.76-55.5c.22.16-25.26-21.38-53.8,4.27.87.66-2.83-.79-3.57,8.27l-17.86,6.29s-3.4.84-1.36,4.47a13.48,13.48,0,0,0,2.92,4.28s.2,1.54-3.09,3.15c0,0-2.53,1.5-.92,4.8,0,0-4.82,1.81-2.78,5.44l-5.31,6.94s-3.08,3.14,1.36,7.23l9,6.84s4.82,5.74.73,10.18l-8.29,10.85s-.25,3.94,1.48,5.26l26.09,19.94s3.77,2.19,5.33-.75c0,0,14.44-14.41,21.69-18.5l10.21-5.26s18.1-7.49,20.09-10.09c0,0,7-5.62,11-10.83A68,68,0,0,0,1191.71,99.22Z" transform="translate(0.82 0)"/><path class="cls-2" d="M1076,155.23s-3.49-8.86,5.45-8.9c0,0-3.77-7.69,7.16-7.59l26.09,19.93s4.81,9.18-5,9.26c-.06-.05,1.93,9-6.9,7.1,0,0-1,10.27-10.85,3.4,0,0-16.11,5.58-16.33-12.47-.17-.13-8.12-6.82.51-10.92" transform="translate(0.82 0)"/><path class="cls-3" d="M1145.07,78.36c-9.33,20.67-23.09,38.37-36,56.88l-2.35-1.49c12.36-18.48,25.77-36.08,35.62-56.09-1-.67-1.87-1.16-2.65-1.74a4.22,4.22,0,0,1-1.48-5.55,3.77,3.77,0,0,1,4.44-2.35c2.32.44,3.27,2.14,3.43,4.34a14.32,14.32,0,0,0-.06,2.16c.11.48.69.86,1.32,1.18-.14-2.84.15-5.39,3.12-6.31a4.26,4.26,0,0,1,5,1.8c1.41,2.15.9,3.58-2.46,7.07l2.06,1.57c2-3.93,3.4-5,5.78-4.35a4.34,4.34,0,0,1,3.35,4.43c.09,2.22-1.55,3.58-5.86,4.63,1.14.5,1.67.94,2.19.92a17.34,17.34,0,0,0,2.37-.57c2.13-.38,4.13.33,4.63,2.36a6.11,6.11,0,0,1-1.12,4.6c-1.38,1.74-3.52,1.74-5.41.39-.8-.57-1.5-1.29-2.67-2.33-16.55,14.66-30.23,32-44.62,49l-2.34-1.48c14.25-17.63,28-35.34,45.42-49.85C1155.82,82.9,1150.64,78.72,1145.07,78.36Zm5.29-3.27,1.19.51,1.55-2.79-1.91-.6Zm-9.55-1.35,1.28-.15,0-3.19-2,.43Zm17,6.91,1,.85,2.34-2.16-1.62-1.17Zm3.7,8.36.42,1.22,3.11-.71-.83-1.82Z" transform="translate(0.82 0)"/><path class="cls-2" d="M1356.71,357.22s19.37-29.85-17.76-55.5c.22.16-25.26-21.38-53.8,4.27.87.66-2.83-.79-3.57,8.27l-17.86,6.29s-3.4.84-1.36,4.47a13.48,13.48,0,0,0,2.92,4.28s.2,1.54-3.09,3.15c0,0-2.53,1.5-.92,4.8,0,0-4.82,1.81-2.78,5.44l-5.31,6.94s-3.08,3.14,1.36,7.23l9,6.84s4.82,5.74.73,10.18l-8.29,10.85s-.25,3.94,1.48,5.26l26.09,19.94s3.77,2.19,5.33-.75c0,0,14.44-14.41,21.69-18.5l10.21-5.26s18.1-7.49,20.09-10.09c0,0,7-5.62,11-10.83A68,68,0,0,0,1356.71,357.22Z" transform="translate(0.82 0)"/><path class="cls-2" d="M1241,413.23s-3.49-8.86,5.45-8.9c0,0-3.77-7.69,7.16-7.59l26.09,19.93s4.81,9.18-5,9.26c-.06-.05,1.93,9-6.9,7.1,0,0-1,10.27-10.85,3.4,0,0-16.11,5.58-16.33-12.47-.17-.13-8.12-6.82.51-10.92" transform="translate(0.82 0)"/><path class="cls-3" d="M1310.07,336.36c-9.33,20.67-23.09,38.37-36,56.88l-2.35-1.49c12.36-18.48,25.77-36.08,35.62-56.09-1-.67-1.87-1.16-2.65-1.74a4.22,4.22,0,0,1-1.48-5.55,3.77,3.77,0,0,1,4.44-2.35c2.32.44,3.27,2.14,3.43,4.34a14.32,14.32,0,0,0-.06,2.16c.11.48.69.86,1.32,1.18-.14-2.84.15-5.39,3.12-6.31a4.26,4.26,0,0,1,5,1.8c1.41,2.15.9,3.58-2.46,7.07l2.06,1.57c2-3.93,3.4-5,5.78-4.35a4.34,4.34,0,0,1,3.35,4.43c.09,2.22-1.55,3.58-5.86,4.63,1.14.5,1.67.94,2.19.92a17.34,17.34,0,0,0,2.37-.57c2.13-.38,4.13.33,4.63,2.36a6.11,6.11,0,0,1-1.12,4.6c-1.38,1.74-3.52,1.74-5.41.39-.8-.57-1.5-1.29-2.67-2.33-16.55,14.66-30.23,32-44.62,49l-2.34-1.48c14.25-17.63,28-35.34,45.42-49.85C1320.82,340.9,1315.64,336.72,1310.07,336.36Zm5.29-3.27,1.19.51,1.55-2.79-1.91-.6Zm-9.55-1.35,1.28-.15,0-3.19-2,.43Zm17,6.91,1,.85,2.34-2.16-1.62-1.17Zm3.7,8.36.42,1.22,3.11-.71-.83-1.82Z" transform="translate(0.82 0)"/><path class="cls-2" d="M1356.71,172.22s19.37-29.85-17.76-55.5c.22.16-25.26-21.38-53.8,4.27.87.66-2.83-.79-3.57,8.27l-17.86,6.29s-3.4.84-1.36,4.47a13.48,13.48,0,0,0,2.92,4.28s.2,1.54-3.09,3.15c0,0-2.53,1.5-.92,4.8,0,0-4.82,1.81-2.78,5.44l-5.31,6.94s-3.08,3.14,1.36,7.23l9,6.84s4.82,5.74.73,10.18l-8.29,10.85s-.25,3.94,1.48,5.26l26.09,19.94s3.77,2.19,5.33-.75c0,0,14.44-14.41,21.69-18.5l10.21-5.26s18.1-7.49,20.09-10.09c0,0,7-5.62,11-10.83A68,68,0,0,0,1356.71,172.22Z" transform="translate(0.82 0)"/><path class="cls-2" d="M1241,228.23s-3.49-8.86,5.45-8.9c0,0-3.77-7.69,7.16-7.59l26.09,19.93s4.81,9.18-5,9.26c-.06-.05,1.93,9-6.9,7.1,0,0-1,10.27-10.85,3.4,0,0-16.11,5.58-16.33-12.47-.17-.13-8.12-6.82.51-10.92" transform="translate(0.82 0)"/><path class="cls-3" d="M1310.07,151.36c-9.33,20.67-23.09,38.37-36,56.88l-2.35-1.49c12.36-18.48,25.77-36.08,35.62-56.09-1-.67-1.87-1.16-2.65-1.74a4.22,4.22,0,0,1-1.48-5.55,3.77,3.77,0,0,1,4.44-2.35c2.32.44,3.27,2.14,3.43,4.34a14.32,14.32,0,0,0-.06,2.16c.11.48.69.86,1.32,1.18-.14-2.84.15-5.39,3.12-6.31a4.26,4.26,0,0,1,5,1.8c1.41,2.15.9,3.58-2.46,7.07l2.06,1.57c2-3.93,3.4-5,5.78-4.35a4.34,4.34,0,0,1,3.35,4.43c.09,2.22-1.55,3.58-5.86,4.63,1.14.5,1.67.94,2.19.92a17.34,17.34,0,0,0,2.37-.57c2.13-.38,4.13.33,4.63,2.36a6.11,6.11,0,0,1-1.12,4.6c-1.38,1.74-3.52,1.74-5.41.39-.8-.57-1.5-1.29-2.67-2.33-16.55,14.66-30.23,32-44.62,49l-2.34-1.48c14.25-17.63,28-35.34,45.42-49.85C1320.82,155.9,1315.64,151.72,1310.07,151.36Zm5.29-3.27,1.19.51,1.55-2.79-1.91-.6Zm-9.55-1.35,1.28-.15,0-3.19-2,.43Zm17,6.91,1,.85,2.34-2.16-1.62-1.17Zm3.7,8.36.42,1.22,3.11-.71-.83-1.82Z" transform="translate(0.82 0)"/><path class="cls-2" d="M1533.71,469.22s19.37-29.85-17.76-55.5c.22.16-25.26-21.38-53.8,4.27.87.66-2.83-.79-3.57,8.27l-17.86,6.29s-3.4.84-1.36,4.47a13.48,13.48,0,0,0,2.92,4.28s.2,1.54-3.09,3.15c0,0-2.53,1.5-.92,4.8,0,0-4.82,1.81-2.78,5.44l-5.31,6.94s-3.08,3.14,1.36,7.23l9,6.84s4.82,5.74.73,10.18l-8.29,10.85s-.25,3.94,1.48,5.26l26.09,19.94s3.77,2.19,5.33-.75c0,0,14.44-14.41,21.69-18.5l10.21-5.26s18.1-7.49,20.09-10.09c0,0,7-5.62,11-10.83A68,68,0,0,0,1533.71,469.22Z" transform="translate(0.82 0)"/><path class="cls-2" d="M1418,525.23s-3.49-8.86,5.45-8.9c0,0-3.77-7.69,7.16-7.59l26.09,19.93s4.81,9.18-5,9.26c-.06,0,1.93,9-6.9,7.1,0,0-1,10.27-10.85,3.4,0,0-16.11,5.58-16.33-12.47-.17-.13-8.12-6.82.51-10.92" transform="translate(0.82 0)"/><path class="cls-3" d="M1487.07,448.36c-9.33,20.67-23.09,38.37-36,56.88l-2.35-1.49c12.36-18.48,25.77-36.08,35.62-56.09-1-.67-1.87-1.16-2.65-1.74a4.22,4.22,0,0,1-1.48-5.55,3.77,3.77,0,0,1,4.44-2.35c2.32.44,3.27,2.14,3.43,4.34a14.32,14.32,0,0,0-.06,2.16c.11.48.69.86,1.32,1.18-.14-2.84.15-5.39,3.12-6.31a4.26,4.26,0,0,1,5,1.8c1.41,2.15.9,3.58-2.46,7.07l2.06,1.57c2-3.93,3.4-5,5.78-4.35a4.34,4.34,0,0,1,3.35,4.43c.09,2.22-1.55,3.58-5.86,4.63,1.14.5,1.67.94,2.19.92a17.34,17.34,0,0,0,2.37-.57c2.13-.38,4.13.33,4.63,2.36a6.11,6.11,0,0,1-1.12,4.6c-1.38,1.74-3.52,1.74-5.41.39-.8-.57-1.5-1.29-2.67-2.33-16.55,14.66-30.23,32-44.62,49l-2.34-1.48c14.25-17.63,28-35.34,45.42-49.85C1497.82,452.9,1492.64,448.72,1487.07,448.36Zm5.29-3.27,1.19.51,1.55-2.79-1.91-.6Zm-9.55-1.35,1.28-.15,0-3.19-2,.43Zm17,6.91,1,.85,2.34-2.16-1.62-1.17Zm3.7,8.36.42,1.22,3.11-.71-.83-1.82Z" transform="translate(0.82 0)"/><path class="cls-2" d="M1533.71,284.22s19.37-29.85-17.76-55.5c.22.16-25.26-21.38-53.8,4.27.87.66-2.83-.79-3.57,8.27l-17.86,6.29s-3.4.84-1.36,4.47a13.48,13.48,0,0,0,2.92,4.28s.2,1.54-3.09,3.15c0,0-2.53,1.5-.92,4.8,0,0-4.82,1.81-2.78,5.44l-5.31,6.94s-3.08,3.14,1.36,7.23l9,6.84s4.82,5.74.73,10.18l-8.29,10.85s-.25,3.94,1.48,5.26l26.09,19.94s3.77,2.19,5.33-.75c0,0,14.44-14.41,21.69-18.5l10.21-5.26s18.1-7.49,20.09-10.09c0,0,7-5.62,11-10.83A68,68,0,0,0,1533.71,284.22Z" transform="translate(0.82 0)"/><path class="cls-2" d="M1418,340.23s-3.49-8.86,5.45-8.9c0,0-3.77-7.69,7.16-7.59l26.09,19.93s4.81,9.18-5,9.26c-.06-.05,1.93,9-6.9,7.1,0,0-1,10.27-10.85,3.4,0,0-16.11,5.58-16.33-12.47-.17-.13-8.12-6.82.51-10.92" transform="translate(0.82 0)"/><path class="cls-3" d="M1487.07,263.36c-9.33,20.67-23.09,38.37-36,56.88l-2.35-1.49c12.36-18.48,25.77-36.08,35.62-56.09-1-.67-1.87-1.16-2.65-1.74a4.22,4.22,0,0,1-1.48-5.55,3.77,3.77,0,0,1,4.44-2.35c2.32.44,3.27,2.14,3.43,4.34a14.32,14.32,0,0,0-.06,2.16c.11.48.69.86,1.32,1.18-.14-2.84.15-5.39,3.12-6.31a4.26,4.26,0,0,1,5,1.8c1.41,2.15.9,3.58-2.46,7.07l2.06,1.57c2-3.93,3.4-5,5.78-4.35a4.34,4.34,0,0,1,3.35,4.43c.09,2.22-1.55,3.58-5.86,4.63,1.14.5,1.67.94,2.19.92a17.34,17.34,0,0,0,2.37-.57c2.13-.38,4.13.33,4.63,2.36a6.11,6.11,0,0,1-1.12,4.6c-1.38,1.74-3.52,1.74-5.41.39-.8-.57-1.5-1.29-2.67-2.33-16.55,14.66-30.23,32-44.62,49l-2.34-1.48c14.25-17.63,28-35.34,45.42-49.85C1497.82,267.9,1492.64,263.72,1487.07,263.36Zm5.29-3.27,1.19.51,1.55-2.79-1.91-.6Zm-9.55-1.35,1.28-.15,0-3.19-2,.43Zm17,6.91,1,.85,2.34-2.16-1.62-1.17Zm3.7,8.36.42,1.22,3.11-.71-.83-1.82Z" transform="translate(0.82 0)"/><path class="cls-2" d="M1533.71,99.22s19.37-29.85-17.76-55.5c.22.16-25.26-21.38-53.8,4.27.87.66-2.83-.79-3.57,8.27l-17.86,6.29s-3.4.84-1.36,4.47a13.48,13.48,0,0,0,2.92,4.28s.2,1.54-3.09,3.15c0,0-2.53,1.5-.92,4.8,0,0-4.82,1.81-2.78,5.44l-5.31,6.94s-3.08,3.14,1.36,7.23l9,6.84s4.82,5.74.73,10.18l-8.29,10.85s-.25,3.94,1.48,5.26l26.09,19.94s3.77,2.19,5.33-.75c0,0,14.44-14.41,21.69-18.5l10.21-5.26s18.1-7.49,20.09-10.09c0,0,7-5.62,11-10.83A68,68,0,0,0,1533.71,99.22Z" transform="translate(0.82 0)"/><path class="cls-2" d="M1418,155.23s-3.49-8.86,5.45-8.9c0,0-3.77-7.69,7.16-7.59l26.09,19.93s4.81,9.18-5,9.26c-.06-.05,1.93,9-6.9,7.1,0,0-1,10.27-10.85,3.4,0,0-16.11,5.58-16.33-12.47-.17-.13-8.12-6.82.51-10.92" transform="translate(0.82 0)"/><path class="cls-3" d="M1487.07,78.36c-9.33,20.67-23.09,38.37-36,56.88l-2.35-1.49c12.36-18.48,25.77-36.08,35.62-56.09-1-.67-1.87-1.16-2.65-1.74a4.22,4.22,0,0,1-1.48-5.55,3.77,3.77,0,0,1,4.44-2.35c2.32.44,3.27,2.14,3.43,4.34a14.32,14.32,0,0,0-.06,2.16c.11.48.69.86,1.32,1.18-.14-2.84.15-5.39,3.12-6.31a4.26,4.26,0,0,1,5,1.8c1.41,2.15.9,3.58-2.46,7.07l2.06,1.57c2-3.93,3.4-5,5.78-4.35a4.34,4.34,0,0,1,3.35,4.43c.09,2.22-1.55,3.58-5.86,4.63,1.14.5,1.67.94,2.19.92a17.34,17.34,0,0,0,2.37-.57c2.13-.38,4.13.33,4.63,2.36a6.11,6.11,0,0,1-1.12,4.6c-1.38,1.74-3.52,1.74-5.41.39-.8-.57-1.5-1.29-2.67-2.33-16.55,14.66-30.23,32-44.62,49l-2.34-1.48c14.25-17.63,28-35.34,45.42-49.85C1497.82,82.9,1492.64,78.72,1487.07,78.36Zm5.29-3.27,1.19.51,1.55-2.79-1.91-.6Zm-9.55-1.35,1.28-.15,0-3.19-2,.43Zm17,6.91,1,.85,2.34-2.16-1.62-1.17Zm3.7,8.36.42,1.22,3.11-.71-.83-1.82Z" transform="translate(0.82 0)"/><path class="cls-2" d="M1698.71,357.22s19.37-29.85-17.76-55.5c.22.16-25.26-21.38-53.8,4.27.87.66-2.83-.79-3.57,8.27l-17.86,6.29s-3.4.84-1.36,4.47a13.48,13.48,0,0,0,2.92,4.28s.2,1.54-3.09,3.15c0,0-2.53,1.5-.92,4.8,0,0-4.82,1.81-2.78,5.44l-5.31,6.94s-3.08,3.14,1.36,7.23l9,6.84s4.82,5.74.73,10.18l-8.29,10.85s-.25,3.94,1.48,5.26l26.09,19.94s3.77,2.19,5.33-.75c0,0,14.44-14.41,21.69-18.5l10.21-5.26s18.1-7.49,20.09-10.09c0,0,7-5.62,11-10.83A68,68,0,0,0,1698.71,357.22Z" transform="translate(0.82 0)"/><path class="cls-2" d="M1583,413.23s-3.49-8.86,5.45-8.9c0,0-3.77-7.69,7.16-7.59l26.09,19.93s4.81,9.18-5,9.26c-.06-.05,1.93,9-6.9,7.1,0,0-1,10.27-10.85,3.4,0,0-16.11,5.58-16.33-12.47-.17-.13-8.12-6.82.51-10.92" transform="translate(0.82 0)"/><path class="cls-3" d="M1652.07,336.36c-9.33,20.67-23.09,38.37-36,56.88l-2.35-1.49c12.36-18.48,25.77-36.08,35.62-56.09-1-.67-1.87-1.16-2.65-1.74a4.22,4.22,0,0,1-1.48-5.55,3.77,3.77,0,0,1,4.44-2.35c2.32.44,3.27,2.14,3.43,4.34a14.32,14.32,0,0,0-.06,2.16c.11.48.69.86,1.32,1.18-.14-2.84.15-5.39,3.12-6.31a4.26,4.26,0,0,1,5,1.8c1.41,2.15.9,3.58-2.46,7.07l2.06,1.57c2-3.93,3.4-5,5.78-4.35a4.34,4.34,0,0,1,3.35,4.43c.09,2.22-1.55,3.58-5.86,4.63,1.14.5,1.67.94,2.19.92a17.34,17.34,0,0,0,2.37-.57c2.13-.38,4.13.33,4.63,2.36a6.11,6.11,0,0,1-1.12,4.6c-1.38,1.74-3.52,1.74-5.41.39-.8-.57-1.5-1.29-2.67-2.33-16.55,14.66-30.23,32-44.62,49l-2.34-1.48c14.25-17.63,28-35.34,45.42-49.85C1662.82,340.9,1657.64,336.72,1652.07,336.36Zm5.29-3.27,1.19.51,1.55-2.79-1.91-.6Zm-9.55-1.35,1.28-.15,0-3.19-2,.43Zm17,6.91,1,.85,2.34-2.16-1.62-1.17Zm3.7,8.36.42,1.22,3.11-.71-.83-1.82Z" transform="translate(0.82 0)"/><path class="cls-2" d="M1698.71,172.22s19.37-29.85-17.76-55.5c.22.16-25.26-21.38-53.8,4.27.87.66-2.83-.79-3.57,8.27l-17.86,6.29s-3.4.84-1.36,4.47a13.48,13.48,0,0,0,2.92,4.28s.2,1.54-3.09,3.15c0,0-2.53,1.5-.92,4.8,0,0-4.82,1.81-2.78,5.44l-5.31,6.94s-3.08,3.14,1.36,7.23l9,6.84s4.82,5.74.73,10.18l-8.29,10.85s-.25,3.94,1.48,5.26l26.09,19.94s3.77,2.19,5.33-.75c0,0,14.44-14.41,21.69-18.5l10.21-5.26s18.1-7.49,20.09-10.09c0,0,7-5.62,11-10.83A68,68,0,0,0,1698.71,172.22Z" transform="translate(0.82 0)"/><path class="cls-2" d="M1583,228.23s-3.49-8.86,5.45-8.9c0,0-3.77-7.69,7.16-7.59l26.09,19.93s4.81,9.18-5,9.26c-.06-.05,1.93,9-6.9,7.1,0,0-1,10.27-10.85,3.4,0,0-16.11,5.58-16.33-12.47-.17-.13-8.12-6.82.51-10.92" transform="translate(0.82 0)"/><path class="cls-3" d="M1652.07,151.36c-9.33,20.67-23.09,38.37-36,56.88l-2.35-1.49c12.36-18.48,25.77-36.08,35.62-56.09-1-.67-1.87-1.16-2.65-1.74a4.22,4.22,0,0,1-1.48-5.55,3.77,3.77,0,0,1,4.44-2.35c2.32.44,3.27,2.14,3.43,4.34a14.32,14.32,0,0,0-.06,2.16c.11.48.69.86,1.32,1.18-.14-2.84.15-5.39,3.12-6.31a4.26,4.26,0,0,1,5,1.8c1.41,2.15.9,3.58-2.46,7.07l2.06,1.57c2-3.93,3.4-5,5.78-4.35a4.34,4.34,0,0,1,3.35,4.43c.09,2.22-1.55,3.58-5.86,4.63,1.14.5,1.67.94,2.19.92a17.34,17.34,0,0,0,2.37-.57c2.13-.38,4.13.33,4.63,2.36a6.11,6.11,0,0,1-1.12,4.6c-1.38,1.74-3.52,1.74-5.41.39-.8-.57-1.5-1.29-2.67-2.33-16.55,14.66-30.23,32-44.62,49l-2.34-1.48c14.25-17.63,28-35.34,45.42-49.85C1662.82,155.9,1657.64,151.72,1652.07,151.36Zm5.29-3.27,1.19.51,1.55-2.79-1.91-.6Zm-9.55-1.35,1.28-.15,0-3.19-2,.43Zm17,6.91,1,.85,2.34-2.16-1.62-1.17Zm3.7,8.36.42,1.22,3.11-.71-.83-1.82Z" transform="translate(0.82 0)"/><path class="cls-2" d="M1875.71,469.22s19.37-29.85-17.76-55.5c.22.16-25.26-21.38-53.8,4.27.87.66-2.83-.79-3.57,8.27l-17.86,6.29s-3.4.84-1.36,4.47a13.48,13.48,0,0,0,2.92,4.28s.2,1.54-3.09,3.15c0,0-2.53,1.5-.92,4.8,0,0-4.82,1.81-2.78,5.44l-5.31,6.94s-3.08,3.14,1.36,7.23l9,6.84s4.82,5.74.73,10.18l-8.29,10.85s-.25,3.94,1.48,5.26l26.09,19.94s3.77,2.19,5.33-.75c0,0,14.44-14.41,21.69-18.5l10.21-5.26s18.1-7.49,20.09-10.09c0,0,7-5.62,11-10.83A68,68,0,0,0,1875.71,469.22Z" transform="translate(0.82 0)"/><path class="cls-2" d="M1760,525.23s-3.49-8.86,5.45-8.9c0,0-3.77-7.69,7.16-7.59l26.09,19.93s4.81,9.18-5,9.26c-.06,0,1.93,9-6.9,7.1,0,0-1,10.27-10.85,3.4,0,0-16.11,5.58-16.33-12.47-.17-.13-8.12-6.82.51-10.92" transform="translate(0.82 0)"/><path class="cls-3" d="M1829.07,448.36c-9.33,20.67-23.09,38.37-36,56.88l-2.35-1.49c12.36-18.48,25.77-36.08,35.62-56.09-1-.67-1.87-1.16-2.65-1.74a4.22,4.22,0,0,1-1.48-5.55,3.77,3.77,0,0,1,4.44-2.35c2.32.44,3.27,2.14,3.43,4.34a14.32,14.32,0,0,0-.06,2.16c.11.48.69.86,1.32,1.18-.14-2.84.15-5.39,3.12-6.31a4.26,4.26,0,0,1,5,1.8c1.41,2.15.9,3.58-2.46,7.07l2.06,1.57c2-3.93,3.4-5,5.78-4.35a4.34,4.34,0,0,1,3.35,4.43c.09,2.22-1.55,3.58-5.86,4.63,1.14.5,1.67.94,2.19.92a17.34,17.34,0,0,0,2.37-.57c2.13-.38,4.13.33,4.63,2.36a6.11,6.11,0,0,1-1.12,4.6c-1.38,1.74-3.52,1.74-5.41.39-.8-.57-1.5-1.29-2.67-2.33-16.55,14.66-30.23,32-44.62,49l-2.34-1.48c14.25-17.63,28-35.34,45.42-49.85C1839.82,452.9,1834.64,448.72,1829.07,448.36Zm5.29-3.27,1.19.51,1.55-2.79-1.91-.6Zm-9.55-1.35,1.28-.15,0-3.19-2,.43Zm17,6.91,1,.85,2.34-2.16-1.62-1.17Zm3.7,8.36.42,1.22,3.11-.71-.83-1.82Z" transform="translate(0.82 0)"/><path class="cls-2" d="M1875.71,284.22s19.37-29.85-17.76-55.5c.22.16-25.26-21.38-53.8,4.27.87.66-2.83-.79-3.57,8.27l-17.86,6.29s-3.4.84-1.36,4.47a13.48,13.48,0,0,0,2.92,4.28s.2,1.54-3.09,3.15c0,0-2.53,1.5-.92,4.8,0,0-4.82,1.81-2.78,5.44l-5.31,6.94s-3.08,3.14,1.36,7.23l9,6.84s4.82,5.74.73,10.18l-8.29,10.85s-.25,3.94,1.48,5.26l26.09,19.94s3.77,2.19,5.33-.75c0,0,14.44-14.41,21.69-18.5l10.21-5.26s18.1-7.49,20.09-10.09c0,0,7-5.62,11-10.83A68,68,0,0,0,1875.71,284.22Z" transform="translate(0.82 0)"/><path class="cls-2" d="M1760,340.23s-3.49-8.86,5.45-8.9c0,0-3.77-7.69,7.16-7.59l26.09,19.93s4.81,9.18-5,9.26c-.06-.05,1.93,9-6.9,7.1,0,0-1,10.27-10.85,3.4,0,0-16.11,5.58-16.33-12.47-.17-.13-8.12-6.82.51-10.92" transform="translate(0.82 0)"/><path class="cls-3" d="M1829.07,263.36c-9.33,20.67-23.09,38.37-36,56.88l-2.35-1.49c12.36-18.48,25.77-36.08,35.62-56.09-1-.67-1.87-1.16-2.65-1.74a4.22,4.22,0,0,1-1.48-5.55,3.77,3.77,0,0,1,4.44-2.35c2.32.44,3.27,2.14,3.43,4.34a14.32,14.32,0,0,0-.06,2.16c.11.48.69.86,1.32,1.18-.14-2.84.15-5.39,3.12-6.31a4.26,4.26,0,0,1,5,1.8c1.41,2.15.9,3.58-2.46,7.07l2.06,1.57c2-3.93,3.4-5,5.78-4.35a4.34,4.34,0,0,1,3.35,4.43c.09,2.22-1.55,3.58-5.86,4.63,1.14.5,1.67.94,2.19.92a17.34,17.34,0,0,0,2.37-.57c2.13-.38,4.13.33,4.63,2.36a6.11,6.11,0,0,1-1.12,4.6c-1.38,1.74-3.52,1.74-5.41.39-.8-.57-1.5-1.29-2.67-2.33-16.55,14.66-30.23,32-44.62,49l-2.34-1.48c14.25-17.63,28-35.34,45.42-49.85C1839.82,267.9,1834.64,263.72,1829.07,263.36Zm5.29-3.27,1.19.51,1.55-2.79-1.91-.6Zm-9.55-1.35,1.28-.15,0-3.19-2,.43Zm17,6.91,1,.85,2.34-2.16-1.62-1.17Zm3.7,8.36.42,1.22,3.11-.71-.83-1.82Z" transform="translate(0.82 0)"/><path class="cls-2" d="M1875.71,99.22s19.37-29.85-17.76-55.5c.22.16-25.26-21.38-53.8,4.27.87.66-2.83-.79-3.57,8.27l-17.86,6.29s-3.4.84-1.36,4.47a13.48,13.48,0,0,0,2.92,4.28s.2,1.54-3.09,3.15c0,0-2.53,1.5-.92,4.8,0,0-4.82,1.81-2.78,5.44l-5.31,6.94s-3.08,3.14,1.36,7.23l9,6.84s4.82,5.74.73,10.18l-8.29,10.85s-.25,3.94,1.48,5.26l26.09,19.94s3.77,2.19,5.33-.75c0,0,14.44-14.41,21.69-18.5l10.21-5.26s18.1-7.49,20.09-10.09c0,0,7-5.62,11-10.83A68,68,0,0,0,1875.71,99.22Z" transform="translate(0.82 0)"/><path class="cls-2" d="M1760,155.23s-3.49-8.86,5.45-8.9c0,0-3.77-7.69,7.16-7.59l26.09,19.93s4.81,9.18-5,9.26c-.06-.05,1.93,9-6.9,7.1,0,0-1,10.27-10.85,3.4,0,0-16.11,5.58-16.33-12.47-.17-.13-8.12-6.82.51-10.92" transform="translate(0.82 0)"/><path class="cls-3" d="M1829.07,78.36c-9.33,20.67-23.09,38.37-36,56.88l-2.35-1.49c12.36-18.48,25.77-36.08,35.62-56.09-1-.67-1.87-1.16-2.65-1.74a4.22,4.22,0,0,1-1.48-5.55,3.77,3.77,0,0,1,4.44-2.35c2.32.44,3.27,2.14,3.43,4.34a14.32,14.32,0,0,0-.06,2.16c.11.48.69.86,1.32,1.18-.14-2.84.15-5.39,3.12-6.31a4.26,4.26,0,0,1,5,1.8c1.41,2.15.9,3.58-2.46,7.07l2.06,1.57c2-3.93,3.4-5,5.78-4.35a4.34,4.34,0,0,1,3.35,4.43c.09,2.22-1.55,3.58-5.86,4.63,1.14.5,1.67.94,2.19.92a17.34,17.34,0,0,0,2.37-.57c2.13-.38,4.13.33,4.63,2.36a6.11,6.11,0,0,1-1.12,4.6c-1.38,1.74-3.52,1.74-5.41.39-.8-.57-1.5-1.29-2.67-2.33-16.55,14.66-30.23,32-44.62,49l-2.34-1.48c14.25-17.63,28-35.34,45.42-49.85C1839.82,82.9,1834.64,78.72,1829.07,78.36Zm5.29-3.27,1.19.51,1.55-2.79-1.91-.6Zm-9.55-1.35,1.28-.15,0-3.19-2,.43Zm17,6.91,1,.85,2.34-2.16-1.62-1.17Zm3.7,8.36.42,1.22,3.11-.71-.83-1.82Z" transform="translate(0.82 0)"/><path class="cls-4" d="M735,291.29a9.21,9.21,0,0,1-5.14-6q-1.27-4.15-1.28-12.83a164.42,164.42,0,0,1,.9-17.94q.88-8.16,2.42-17.17a4.86,4.86,0,0,1,2.08-3.27,7.56,7.56,0,0,1,4.46-1.23,6.13,6.13,0,0,1,4.38,1.4,5,5,0,0,1,1.49,3.78,10.7,10.7,0,0,1-.17,1.53q-1.78,10.45-2.72,17.81a121,121,0,0,0-.94,15.43,34.55,34.55,0,0,0,.39,6.12,4,4,0,0,0,1.53,2.72,6.64,6.64,0,0,0,3.61.76q5.26,0,18.19-2.38a7.13,7.13,0,0,1,1.19-.08,4.29,4.29,0,0,1,3.53,1.65,6.1,6.1,0,0,1,1.31,3.87c0,3-2.18,4.9-6.54,5.7-3.91.73-6.87,1.23-8.88,1.48a61.29,61.29,0,0,1-7.61.39Q738.9,293.08,735,291.29Z" transform="translate(0.82 0)"/><path class="cls-4" d="M786.81,290.78a18.69,18.69,0,0,1-7.95-8,24.77,24.77,0,0,1-2.64-11.56,22.08,22.08,0,0,1,3-11.52,20.94,20.94,0,0,1,8.25-7.86,25.7,25.7,0,0,1,22.27-.51A17.71,17.71,0,0,1,820.08,268q0,3.66-1.31,5.23t-4.47,1.57H786.85a7.2,7.2,0,0,0,1.44,4.12,11.24,11.24,0,0,0,4.34,3.53,15.12,15.12,0,0,0,6.88,1.45,12.25,12.25,0,0,0,5.61-1.07,18.68,18.68,0,0,0,4.25-3.18,4.94,4.94,0,0,1,3.32-1.45,5.46,5.46,0,0,1,3.65,1.49,4.37,4.37,0,0,1,1.7,3.36,5.08,5.08,0,0,1-1,3,16.88,16.88,0,0,1-6,5.23q-4.26,2.42-11.14,2.42A26.94,26.94,0,0,1,786.81,290.78Zm22.05-23.63c.51,0,.84-.08,1-.25a1.53,1.53,0,0,0,.21-.94,6.53,6.53,0,0,0-3.18-5.52,13.44,13.44,0,0,0-7.87-2.21,13.88,13.88,0,0,0-6.5,1.44,11.56,11.56,0,0,0-4.21,3.53,7,7,0,0,0-1.44,3.95Z" transform="translate(0.82 0)"/><path class="cls-4" d="M868,290.27a19,19,0,0,1-7.74-7.39,21.49,21.49,0,0,1-2.76-11,23.52,23.52,0,0,1,2.89-11.6,21.43,21.43,0,0,1,8-8.25,22.53,22.53,0,0,1,11.61-3,23,23,0,0,1,12.28,3.31,17.34,17.34,0,0,1,7.44,8.59,7.45,7.45,0,0,1,.68,2.8c0,1.87-1.31,3.12-3.91,3.74a9.19,9.19,0,0,1-2,.26,4.14,4.14,0,0,1-2.77-.9,12.47,12.47,0,0,1-2.33-2.93A15,15,0,0,0,885.7,260a8.29,8.29,0,0,0-5-1.49,9.53,9.53,0,0,0-7.82,3.87,15.2,15.2,0,0,0-3.06,9.73q0,5.35,2.76,8.37c1.84,2,4.52,3,8,3q5,0,7.44-2.59a8.65,8.65,0,0,0,2.42-6.08,3.29,3.29,0,0,1,1.4-2.51,5.85,5.85,0,0,1,3.79-1.14,7.32,7.32,0,0,1,4.37,1.1c1,.74,1.49,2,1.49,3.91a15.43,15.43,0,0,1-9.39,14.32q-5,2.43-12.88,2.43A23.63,23.63,0,0,1,868,290.27Z" transform="translate(0.82 0)"/><path class="cls-4" d="M913.79,287.42q-6.33-5.64-6.33-15.85a24.4,24.4,0,0,1,2.81-11.81,20,20,0,0,1,7.94-8.08,24.31,24.31,0,0,1,12.12-2.89,25.07,25.07,0,0,1,12.41,3,20.75,20.75,0,0,1,8.28,8.28A24.63,24.63,0,0,1,954,272.17q0,9.94-6.21,15.42t-16.83,5.49Q920.12,293.08,913.79,287.42Zm25-6.71q2.85-2.94,2.85-8.71a16.86,16.86,0,0,0-2.76-9.74,9.21,9.21,0,0,0-8.12-4,9.78,9.78,0,0,0-8,3.65q-3,3.66-3,9.78,0,5.94,2.89,9c1.92,2,4.61,3,8.07,3S936.88,282.66,938.78,280.71Z" transform="translate(0.82 0)"/><path class="cls-4" d="M996.92,254.61Q1001,259.85,1001,270l-.08,19.21a2.94,2.94,0,0,1-1.74,2.72,8.94,8.94,0,0,1-4.3.94,10.75,10.75,0,0,1-4.37-.85c-1.28-.57-1.92-1.36-1.92-2.38l.09-19.72q0-6.21-1.36-8.67a4.52,4.52,0,0,0-4.25-2.47A4.47,4.47,0,0,0,979.2,261c-1,1.47-1.78,4.34-2.46,8.59a47.81,47.81,0,0,0-.6,7.9l.09,11a3.82,3.82,0,0,1-1.66,3.35,9.26,9.26,0,0,1-9,0,3.84,3.84,0,0,1-1.66-3.31q0-17.69-.51-27.54a6.15,6.15,0,0,0-.47-1.92,10,10,0,0,0-.89-1.65c-.34-.51-.59-.91-.77-1.19a3.9,3.9,0,0,1-.51-1.87,4.35,4.35,0,0,1,2.09-3.36,6.73,6.73,0,0,1,4-1.57,3.2,3.2,0,0,1,1.82.59,9.72,9.72,0,0,1,2,2,10.81,10.81,0,0,1,1.36,2.12,5.16,5.16,0,0,1,.43,2.13V257a13.61,13.61,0,0,1,4.63-5.4,14.08,14.08,0,0,1,8.2-2.16Q992.8,249.39,996.92,254.61Z" transform="translate(0.82 0)"/><path class="cls-4" d="M1019.19,290.27a19,19,0,0,1-7.73-7.39,21.39,21.39,0,0,1-2.77-11,23.62,23.62,0,0,1,2.89-11.6,21.46,21.46,0,0,1,8-8.25,22.47,22.47,0,0,1,11.6-3,23,23,0,0,1,12.28,3.31,17.34,17.34,0,0,1,7.44,8.59,7.45,7.45,0,0,1,.68,2.8q0,2.81-3.91,3.74a9.19,9.19,0,0,1-2,.26,4.11,4.11,0,0,1-2.76-.9,12.46,12.46,0,0,1-2.34-2.93,15,15,0,0,0-3.66-3.95,8.29,8.29,0,0,0-5-1.49,9.53,9.53,0,0,0-7.82,3.87,15.2,15.2,0,0,0-3.06,9.73q0,5.35,2.76,8.37c1.84,2,4.52,3,8,3q5,0,7.44-2.59a8.61,8.61,0,0,0,2.42-6.08,3.27,3.27,0,0,1,1.41-2.51,5.8,5.8,0,0,1,3.78-1.14,7.35,7.35,0,0,1,4.38,1.1c1,.74,1.48,2,1.48,3.91a15.43,15.43,0,0,1-9.39,14.32q-5,2.43-12.88,2.43A23.66,23.66,0,0,1,1019.19,290.27Z" transform="translate(0.82 0)"/><path class="cls-4" d="M1070.11,290.78a18.69,18.69,0,0,1-7.95-8,24.77,24.77,0,0,1-2.64-11.56,22.08,22.08,0,0,1,3-11.52,20.94,20.94,0,0,1,8.25-7.86,25.7,25.7,0,0,1,22.27-.51A17.71,17.71,0,0,1,1103.38,268q0,3.66-1.31,5.23t-4.47,1.57h-27.45a7.2,7.2,0,0,0,1.44,4.12,11.24,11.24,0,0,0,4.34,3.53,15.12,15.12,0,0,0,6.88,1.45,12.25,12.25,0,0,0,5.61-1.07,18.68,18.68,0,0,0,4.25-3.18,4.94,4.94,0,0,1,3.32-1.45,5.46,5.46,0,0,1,3.65,1.49,4.37,4.37,0,0,1,1.7,3.36,5.08,5.08,0,0,1-1,3,16.88,16.88,0,0,1-6,5.23q-4.26,2.42-11.14,2.42A26.94,26.94,0,0,1,1070.11,290.78Zm22.05-23.63c.51,0,.84-.08,1-.25a1.53,1.53,0,0,0,.21-.94,6.53,6.53,0,0,0-3.18-5.52,13.44,13.44,0,0,0-7.87-2.21,13.88,13.88,0,0,0-6.5,1.44,11.56,11.56,0,0,0-4.21,3.53,7,7,0,0,0-1.44,3.95Z" transform="translate(0.82 0)"/><path class="cls-4" d="M1146.86,252a19,19,0,0,1,7.44,7.73,24.55,24.55,0,0,1,2.63,11.61,24.11,24.11,0,0,1-2.67,11.64,18.77,18.77,0,0,1-7.53,7.61,22.68,22.68,0,0,1-11.13,2.68,31.15,31.15,0,0,1-6.8-.73A22,22,0,0,1,1124,291l-.09,8.16q-.17,5.26-.17,8.07a3.91,3.91,0,0,1-1.78,3.32,7.56,7.56,0,0,1-4.51,1.27,6.52,6.52,0,0,1-4.5-1.44,4.24,4.24,0,0,1-1.45-3.66q.35-3.66.43-8.16t.08-11.3l.09-10q.16-7.49.17-13.35a11.46,11.46,0,0,0-.38-3.36,5.62,5.62,0,0,0-1.15-2,11,11,0,0,1-1.11-1.41,2.48,2.48,0,0,1-.34-1.31,5.18,5.18,0,0,1,2.21-3.83,7,7,0,0,1,4.51-1.87,3.51,3.51,0,0,1,2.29.85,16.62,16.62,0,0,1,3.32,4.17,14.73,14.73,0,0,1,5.52-4.25,20,20,0,0,1,8.67-1.7A21.69,21.69,0,0,1,1146.86,252Zm-5,28.52q2.76-3.31,2.76-9.44,0-5.78-2.47-9a8.57,8.57,0,0,0-7.22-3.18,11.42,11.42,0,0,0-5.36,1.19A10,10,0,0,0,1126,263a5.62,5.62,0,0,0-1.27,3.27l-.17,15.05c.28.45,1.47,1,3.57,1.57a22,22,0,0,0,6,.89A9.58,9.58,0,0,0,1141.85,280.5Z" transform="translate(0.82 0)"/><path class="cls-4" d="M1194.25,277a4.5,4.5,0,0,1,1.27,3.57,11.85,11.85,0,0,1-3.57,9,12.52,12.52,0,0,1-9,3.4q-7.39,0-10.79-6t-3.4-19c0-2.6,0-4.5.08-5.69a14.77,14.77,0,0,0-1.95-.09q-4.85-.08-4.85-4.67a4.74,4.74,0,0,1,1.23-3.57c.82-.8,2.28-1.16,4.38-1.11l1.87.09q.6-5.28,2-12.92a4.43,4.43,0,0,1,1.91-3.11,7.13,7.13,0,0,1,4-1.06,6.83,6.83,0,0,1,4.5,1.36,4.18,4.18,0,0,1,1.62,3.32l-.09.68L1183,244c-.68,4.64-1.14,7.82-1.36,9.52,1.92.11,3.4.17,4.42.17,2.89.05,4.33,1.56,4.33,4.5a4.33,4.33,0,0,1-1.19,3.32,5.82,5.82,0,0,1-4,1.1H1181c-.06,1.14-.09,2.95-.09,5.44,0,4.2.1,7.41.3,9.65a14.51,14.51,0,0,0,.89,4.55c.4.79.91,1.19,1.53,1.19a1.49,1.49,0,0,0,1.53-.77,7.38,7.38,0,0,0,.34-2.72q0-4,4.68-4A6.2,6.2,0,0,1,1194.25,277Z" transform="translate(0.82 0)"/></svg>