<svg id="Calque_1" data-name="Calque 1" xmlns="http://www.w3.org/2000/svg" viewBox="0 0 512 512"><defs><style>.cls-1{fill:#0fabdf;}.cls-2{fill:none;}</style></defs><path class="cls-1" d="M42,480.89v-132a15.38,15.38,0,0,0,1.27-3.79c1.07-17.81,1.69-35.65,3.14-53.43,1.42-17.51,6.74-34.13,14.65-49.71a127.9,127.9,0,0,1,31.7-40.07,139.43,139.43,0,0,1,35.81-21.6c22.92-9.77,47.38-11.71,71.84-13,15.58-.81,31.2-.73,46.8-1.15,1.28,0,2.53-.82,3.79-1.26H363a18.06,18.06,0,0,0,4.29,1.26c4.16.18,8.36-.29,12.48.15,17.31,1.84,34.65,3.55,51.88,6,16.09,2.32,31.87,6.32,46.49,13.67,24.08,12.11,42.12,30.69,54.46,54.38,11.54,22.14,15.35,46.58,18,71.1,1.19,11,1.41,22.08,2.16,33.12,0,.79.82,1.53,1.25,2.29v110c-.44.93-1.23,1.85-1.26,2.79-.74,21.53-1.27,43.07-2.12,64.59a245,245,0,0,1-2.11,26.12,165,165,0,0,1-19,56.61,110.79,110.79,0,0,1-45,44.66c-22.47,12.13-47,17.33-71.88,20.74-13.69,1.87-27.6,2.14-41.41,3.22a12.48,12.48,0,0,0-3.29,1.27H264c-.93-.44-1.84-1.23-2.79-1.26-21.85-.74-43.72-1.17-65.57-2.15a276.12,276.12,0,0,1-33.4-3.16c-18.7-3.16-36.56-9.1-52.85-19.13-25.44-15.68-44-37.24-54-65.42-8.38-23.46-9-48.29-11-72.81-.79-9.89-.72-19.85-1.14-29.78C43.22,482.4,42.43,481.65,42,480.89ZM276.83,210.57l0-.79c-23.37.93-46.77,1.35-70.09,3a435.38,435.38,0,0,0-44.86,5.94,80.49,80.49,0,0,0-49.33,28.81c-14.22,17.25-19.85,37.91-21.71,59.66-1.26,14.66-2.12,29.42-2,44.13.45,52.55-2,105.14,1.91,157.64,1.08,14.44,2.5,28.86,4,43.26,1.89,18.38,10.06,33.94,22.74,47C127.93,610,141,616.78,155.38,621.3c17,5.34,34.68,5.6,52.18,6.78,17.85,1.21,35.75,1.51,53.64,2.11,12.27.42,24.55,1,36.82.95,18.94-.07,37.89-.32,56.82-1,16-.58,32-1.65,48-3a175,175,0,0,0,45.48-9.75c24.16-8.77,39.56-25.39,48.26-49.32,6.77-18.61,7.46-38,8.69-57.27,1.11-17.35,1.55-34.75,2.06-52.14.5-16.93.93-33.88,1-50.82,0-13.44-.48-26.88-1-40.32-.52-14.38-.65-28.83-2.13-43.12a356,356,0,0,0-7-44.61c-5.92-25.25-21.7-43.2-44.82-54.57-17.13-8.44-35.81-10.38-54.51-11.57-15.86-1-31.76-1.52-47.64-2-14.61-.49-29.22-.79-43.82-1C297.16,210.45,287,210.57,276.83,210.57Z" transform="translate(-42 -164.89)"/><path class="cls-2" d="M368,676.89a12.48,12.48,0,0,1,3.29-1.27c13.81-1.08,27.72-1.35,41.41-3.22,24.9-3.41,49.41-8.61,71.88-20.74a110.79,110.79,0,0,0,45-44.66,165,165,0,0,0,19-56.61,245,245,0,0,0,2.11-26.12c.85-21.52,1.38-43.06,2.12-64.59,0-.94.82-1.86,1.26-2.79v220Z" transform="translate(-42 -164.89)"/><path class="cls-2" d="M554,346.89c-.43-.76-1.2-1.5-1.25-2.29-.75-11-1-22.13-2.16-33.12-2.64-24.52-6.45-49-18-71.1-12.34-23.69-30.38-42.27-54.46-54.38-14.62-7.35-30.4-11.35-46.49-13.67-17.23-2.48-34.57-4.19-51.88-6-4.12-.44-8.32,0-12.48-.15a18.06,18.06,0,0,1-4.29-1.26H554Z" transform="translate(-42 -164.89)"/><path class="cls-2" d="M42,480.89c.43.76,1.22,1.51,1.25,2.29.42,9.93.35,19.89,1.14,29.78,2,24.52,2.61,49.35,11,72.81,10.05,28.18,28.57,49.74,54,65.42,16.29,10,34.15,16,52.85,19.13a276.12,276.12,0,0,0,33.4,3.16c21.85,1,43.72,1.41,65.57,2.15,1,0,1.86.82,2.79,1.26H42Z" transform="translate(-42 -164.89)"/><path class="cls-2" d="M251,164.89c-1.26.44-2.51,1.23-3.79,1.26-15.6.42-31.22.34-46.8,1.15-24.46,1.28-48.92,3.22-71.84,13a139.43,139.43,0,0,0-35.81,21.6A127.9,127.9,0,0,0,61.06,242c-7.91,15.58-13.23,32.2-14.65,49.71-1.45,17.78-2.07,35.62-3.14,53.43A15.38,15.38,0,0,1,42,348.89v-184Z" transform="translate(-42 -164.89)"/><path class="cls-2" d="M276.83,210.57c10.16,0,20.33-.12,30.5,0,14.6.22,29.21.52,43.82,1,15.88.52,31.78,1,47.64,2,18.7,1.19,37.38,3.13,54.51,11.57,23.12,11.37,38.9,29.32,44.82,54.57a356,356,0,0,1,7,44.61c1.48,14.29,1.61,28.74,2.13,43.12.48,13.44,1,26.88,1,40.32,0,16.94-.47,33.89-1,50.82-.51,17.39-.95,34.79-2.06,52.14-1.23,19.31-1.92,38.66-8.69,57.27-8.7,23.93-24.1,40.55-48.26,49.32a175,175,0,0,1-45.48,9.75c-16,1.34-32,2.41-48,3-18.93.69-37.88.94-56.82,1-12.27,0-24.55-.53-36.82-.95-17.89-.6-35.79-.9-53.64-2.11-17.5-1.18-35.14-1.44-52.18-6.78C141,616.78,127.93,610,117.43,599.17c-12.68-13-20.85-28.6-22.74-47-1.48-14.4-2.9-28.82-4-43.26-3.93-52.5-1.46-105.09-1.91-157.64-.12-14.71.74-29.47,2-44.13,1.86-21.75,7.49-42.41,21.71-59.66a80.49,80.49,0,0,1,49.33-28.81,435.38,435.38,0,0,1,44.86-5.94c23.32-1.62,46.72-2,70.09-3ZM298,290.1c-74.39-.8-129.45,59-131.6,125.13C163.84,494,225.57,551,297,551.3c38.25.18,71.28-14.29,97.44-42.86,22.8-24.9,34-54.82,34-88.11,0-35.4-12.7-66.74-38.05-91.9S333.93,290.41,298,290.1Zm165.68-5.2c.84-16.9-13.51-30.87-30-30.63-18.11.26-30.87,12.77-31.17,30.38a30.38,30.38,0,0,0,30.65,30.93C451.31,315.6,464.45,301,463.68,284.9Z" transform="translate(-42 -164.89)"/><path class="cls-1" d="M298,290.1c35.93.31,66.92,13.13,92.33,38.33s38,56.5,38.05,91.9c0,33.29-11.18,63.21-34,88.11-26.16,28.57-59.19,43-97.44,42.86C225.57,551,163.84,494,166.4,415.23,168.55,349.14,223.61,289.3,298,290.1Zm-.84,215.11C344.53,504.63,382,467.69,382,421c0-47.43-36.1-84.71-84.95-84.94-46-.23-82.9,36.45-84.32,81.62C211.17,467.41,250.92,504.73,297.16,505.21Z" transform="translate(-42 -164.89)"/><path class="cls-1" d="M463.68,284.9c.77,16.12-12.37,30.7-30.53,30.68a30.38,30.38,0,0,1-30.65-30.93c.3-17.61,13.06-30.12,31.17-30.38C450.17,254,464.52,268,463.68,284.9Z" transform="translate(-42 -164.89)"/><path class="cls-2" d="M297.16,505.21c-46.24-.48-86-37.8-84.43-87.53,1.42-45.17,38.3-81.85,84.32-81.62,48.85.23,85,37.51,84.95,84.94C382,467.69,344.53,504.63,297.16,505.21Z" transform="translate(-42 -164.89)"/></svg>