<?xml version="1.0" encoding="UTF-8"?><svg id="Calque_1" xmlns="http://www.w3.org/2000/svg" viewBox="0 0 220.44 65.39"><defs><style>.cls-1{fill:#54a4db;font-family:Mali-Light, Mali;font-size:9.2px;}.cls-2{fill:#14aadf;}.cls-3{fill:#ed6f3b;}</style></defs><path class="cls-2" d="M29.8,32.29c.53,.49,.8,1.17,.8,2.04,0,2.23-.61,4.25-1.83,6.06-1.22,1.82-2.93,3.25-5.12,4.3-2.19,1.05-4.67,1.57-7.43,1.57-3.1,0-5.88-.63-8.34-1.88-2.46-1.25-4.39-3.08-5.78-5.48-1.39-2.4-2.09-5.22-2.09-8.48s.67-6.39,2.02-9.12c1.35-2.73,3.16-4.87,5.45-6.44,2.29-1.57,4.79-2.35,7.52-2.35,3.67,0,6.5,1,8.51,3.01v-.85c0-.56,.25-1.04,.75-1.43,.5-.39,1.16-.59,1.97-.59,.88,0,1.57,.22,2.07,.66,.5,.44,.75,1.08,.75,1.93l-.05,4.79c-.03,1.13-.27,1.98-.71,2.56-.44,.58-1.14,.87-2.11,.87-1.07,0-1.85-.34-2.35-1.03-1.1-1.53-2.19-2.7-3.29-3.5-1.1-.8-2.54-1.2-4.32-1.2s-3.49,.56-5.1,1.69c-1.61,1.13-2.91,2.66-3.9,4.61-.99,1.94-1.48,4.07-1.48,6.39,0,2.16,.49,4.05,1.46,5.66,.97,1.61,2.26,2.84,3.88,3.69,1.61,.85,3.36,1.27,5.24,1.27,1.44,0,2.8-.27,4.09-.8,1.28-.53,2.33-1.31,3.12-2.33,.8-1.02,1.2-2.23,1.2-3.64,0-.81,.25-1.47,.75-1.97,.5-.5,1.21-.75,2.12-.75s1.68,.24,2.21,.73Z"/><path class="cls-2" d="M56.05,41.62c.17,.56,.37,1.03,.59,1.39,.22,.36,.33,.59,.33,.68,0,.63-.25,1.17-.75,1.62-.5,.45-1.13,.68-1.88,.68-.63,0-1.27-.36-1.93-1.08-.66-.72-1.05-1.47-1.17-2.26-1.22,2.32-3.42,3.48-6.58,3.48-2.73,0-4.82-.95-6.27-2.84-1.46-1.9-2.19-4.43-2.19-7.59v-11.28c0-.59,.27-1.09,.8-1.48,.53-.39,1.21-.59,2.02-.59s1.46,.2,2.02,.59c.56,.39,.85,.89,.85,1.48v11.23c0,1.79,.28,3.24,.85,4.35,.56,1.11,1.46,1.67,2.68,1.67,1.54,0,2.66-.71,3.38-2.14,.72-1.43,1.08-3.64,1.08-6.65v-8.41c0-.75,.26-1.33,.78-1.74,.52-.41,1.2-.61,2.04-.61s1.59,.21,2.14,.63c.55,.42,.82,1,.82,1.72l.14,14.95c0,.91,.09,1.65,.26,2.21Z"/><path class="cls-2" d="M65.07,44.98c-.52-.45-.78-1.04-.78-1.76l-.28-31.87c0-.75,.27-1.35,.82-1.81,.55-.45,1.26-.68,2.14-.68s1.53,.22,2.04,.66c.52,.44,.78,1.03,.78,1.79l.24,31.91c0,.75-.28,1.35-.85,1.79-.56,.44-1.25,.66-2.07,.66s-1.53-.23-2.04-.68Z"/><path class="cls-2" d="M79.71,19.79c-.72-.71-1.08-1.61-1.08-2.7s.36-2,1.08-2.7,1.66-1.06,2.82-1.06c1.1,0,2,.35,2.73,1.06s1.08,1.59,1.08,2.66-.36,2.01-1.08,2.73c-.72,.72-1.64,1.08-2.77,1.08s-2.05-.35-2.77-1.06Zm-.02,25.38c-.55-.42-.81-.99-.78-1.72l.38-18.24c.03-.75,.31-1.33,.85-1.74,.53-.41,1.22-.61,2.07-.61s1.59,.21,2.14,.63c.55,.42,.81,1.03,.78,1.81l-.38,18.14c-.03,.72-.32,1.29-.87,1.72s-1.25,.63-2.09,.63-1.54-.21-2.09-.63Z"/><path class="cls-2" d="M112.94,24.96c1.47,1.9,2.21,4.72,2.21,8.48l-.05,10.76c0,.63-.27,1.1-.8,1.41-.53,.31-1.21,.47-2.02,.47s-1.5-.14-2.07-.42c-.56-.28-.85-.71-.85-1.27v-11c0-2.41-.27-4.14-.8-5.19-.53-1.05-1.43-1.57-2.68-1.57s-2.15,.49-2.87,1.48c-.72,.99-1.29,2.61-1.69,4.86-.22,1.38-.33,2.95-.33,4.7l.05,6.35c0,.69-.26,1.21-.78,1.57-.52,.36-1.21,.54-2.09,.54s-1.57-.19-2.09-.56c-.52-.38-.78-.89-.78-1.55,0-5.26-.11-10.46-.33-15.6,0-.5-.08-.94-.24-1.32-.16-.38-.34-.72-.54-1.03-.21-.31-.34-.53-.4-.66-.19-.25-.28-.55-.28-.89,0-.56,.34-1.1,1.01-1.6,.67-.5,1.31-.75,1.9-.75,.31,0,.61,.09,.89,.28s.59,.52,.94,.99c.75,1,1.13,1.94,1.13,2.82v.38c.56-1.28,1.43-2.36,2.61-3.22,1.17-.86,2.73-1.29,4.68-1.29,2.7,0,4.78,.95,6.25,2.84Z"/><path class="cls-3" d="M134.38,1.76c1.15,1.18,1.73,2.77,1.73,4.79,0,3.98-1.73,7.54-5.18,10.66-.67,.58-1.3,.86-1.87,.86-.67,0-1.26-.2-1.76-.61-.5-.41-.76-.92-.76-1.55,0-.58,.24-1.18,.72-1.8,.1-.1,.4-.46,.9-1.08,.5-.62,1.02-1.32,1.55-2.09h-.07c-1.39,0-2.7-.46-3.92-1.37-1.22-.91-1.84-2.38-1.84-4.39,0-1.44,.54-2.66,1.62-3.67,1.08-1.01,2.48-1.51,4.21-1.51,1.97,0,3.53,.59,4.68,1.76Zm-6.26,5.11c.38,.41,.94,.61,1.66,.61s1.27-.2,1.66-.61c.38-.41,.58-.9,.58-1.48,0-1.34-.77-2.02-2.3-2.02-.62,0-1.14,.2-1.55,.61-.41,.41-.61,.88-.61,1.4,0,.58,.19,1.07,.58,1.48Z"/><path class="cls-2" d="M171.01,43.41c.09,.28,.14,.53,.14,.75,0,.78-.32,1.39-.96,1.81-.64,.42-1.4,.63-2.28,.63-.69,0-1.29-.14-1.79-.42-.5-.28-.83-.71-.99-1.27l-1.79-6.49-10.86-.05c-.22,.75-.43,1.46-.63,2.14-.2,.67-.38,1.29-.54,1.86l-.7,2.4c-.19,.6-.53,1.04-1.01,1.34-.49,.3-1.06,.45-1.72,.45-.88,0-1.64-.22-2.28-.66-.64-.44-.96-1.02-.96-1.74,0-.16,.03-.42,.09-.8l6.67-20.02,1.64-5.03c.66-2.04,1.38-3.49,2.16-4.37,.78-.88,1.8-1.32,3.05-1.32s2.19,.39,2.91,1.17c.72,.78,1.39,2.15,2.02,4.09,1.35,4.07,2.93,9.2,4.75,15.37h1.32c.66,0,1.18,.22,1.55,.66,.38,.44,.56,1.08,.56,1.93,0,1.76-.55,2.63-1.64,2.63h-.24l1.5,4.93Zm-9.12-10.25c-.94-3.51-1.75-6.42-2.44-8.74-.06-.22-.13-.41-.19-.56-.06-.16-.11-.31-.14-.47-.25-.88-.46-1.52-.61-1.93-.16-.41-.31-.61-.47-.61s-.31,.2-.47,.61c-.16,.41-.31,.91-.47,1.5-.16,.63-.27,1.03-.33,1.22l-2.68,8.93,7.8,.05Z"/><path class="cls-2" d="M180.6,19.79c-.72-.71-1.08-1.61-1.08-2.7s.36-2,1.08-2.7,1.66-1.06,2.82-1.06c1.1,0,2,.35,2.73,1.06s1.08,1.59,1.08,2.66-.36,2.01-1.08,2.73c-.72,.72-1.64,1.08-2.77,1.08s-2.05-.35-2.77-1.06Zm-.02,25.38c-.55-.42-.81-.99-.78-1.72l.38-18.24c.03-.75,.31-1.33,.85-1.74,.53-.41,1.22-.61,2.07-.61s1.59,.21,2.14,.63c.55,.42,.81,1.03,.78,1.81l-.38,18.14c-.03,.72-.32,1.29-.87,1.72s-1.25,.63-2.09,.63-1.54-.21-2.09-.63Z"/><path class="cls-2" d="M212.18,23.72c1.28,1.29,1.93,2.93,1.93,4.94s-.62,3.45-1.86,4.51c-1.24,1.07-2.83,1.6-4.77,1.6-.94,0-1.6-.15-1.97-.45-.38-.3-.56-.78-.56-1.43s.13-1.07,.4-1.34c.27-.27,.65-.43,1.15-.49,1.91-.22,2.87-1.06,2.87-2.54,0-.69-.18-1.25-.54-1.69-.36-.44-.89-.66-1.57-.66-.97,0-1.86,.49-2.66,1.48-.8,.99-1.44,2.17-1.93,3.55-.49,1.38-.79,2.62-.92,3.71-.19,1.91-.28,4.45-.28,7.61,0,1.57-.2,2.62-.61,3.17s-1.13,.82-2.16,.82-1.74-.2-2.21-.61c-.47-.41-.72-1.05-.75-1.93v-8.08c0-1.72-.04-3.26-.12-4.61-.08-1.35-.21-2.98-.4-4.89l-.28-2.91c-.06-.69,.16-1.25,.66-1.67,.5-.42,1.19-.63,2.07-.63,1.47,0,2.27,.69,2.4,2.07,.06,1.1,.12,2.44,.19,4.04,.59-1.63,1.5-2.95,2.73-3.97,1.22-1.02,2.68-1.53,4.37-1.53,1.94,0,3.56,.64,4.84,1.93Z"/><text class="cls-1" transform="translate(215.75 60.76)"><tspan x="0" y="0">x</tspan></text></svg>