<svg id="Calque_1" data-name="Calque 1" xmlns="http://www.w3.org/2000/svg" viewBox="0 0 269.82 78.3"><defs><style>.cls-1{fill:#08aade;}.cls-2{fill:#ec6e38;}.cls-3{fill:none;stroke:#08aade;stroke-linecap:round;stroke-miterlimit:10;stroke-width:3px;}</style></defs><path class="cls-1" d="M377.28,547.35a2.65,2.65,0,0,1,.8,2,10.65,10.65,0,0,1-1.83,6.06,12.46,12.46,0,0,1-5.13,4.3,16.94,16.94,0,0,1-7.42,1.57,18,18,0,0,1-8.34-1.88,13.73,13.73,0,0,1-5.78-5.47,16.55,16.55,0,0,1-2.1-8.49,20.35,20.35,0,0,1,2-9.11,16.46,16.46,0,0,1,5.46-6.44,13,13,0,0,1,7.52-2.35c3.66,0,6.5,1,8.5,3v-.85a1.75,1.75,0,0,1,.76-1.43,3.1,3.1,0,0,1,2-.59,3,3,0,0,1,2.07.66,2.42,2.42,0,0,1,.75,1.92l0,4.8a4.39,4.39,0,0,1-.7,2.56,2.49,2.49,0,0,1-2.12.87,2.72,2.72,0,0,1-2.35-1A15.16,15.16,0,0,0,368,534a7.15,7.15,0,0,0-4.32-1.19,8.73,8.73,0,0,0-5.1,1.69,12.26,12.26,0,0,0-3.9,4.6,13.91,13.91,0,0,0-1.48,6.39,10.8,10.8,0,0,0,1.45,5.67,9.89,9.89,0,0,0,3.88,3.69,11.21,11.21,0,0,0,5.24,1.27,10.61,10.61,0,0,0,4.09-.8A7.53,7.53,0,0,0,371,553a5.71,5.71,0,0,0,1.2-3.64,2.69,2.69,0,0,1,.75-2,2.85,2.85,0,0,1,2.11-.75A3.18,3.18,0,0,1,377.28,547.35Z" transform="translate(-307.73 -483.36)"/><path class="cls-1" d="M403.53,556.68a6.1,6.1,0,0,0,.59,1.39,2,2,0,0,1,.33.68,2.08,2.08,0,0,1-.76,1.62,2.65,2.65,0,0,1-1.88.68,2.73,2.73,0,0,1-1.92-1.08,4.4,4.4,0,0,1-1.18-2.26q-1.83,3.48-6.58,3.48a7.43,7.43,0,0,1-6.27-2.84,12.14,12.14,0,0,1-2.19-7.59V539.48a1.77,1.77,0,0,1,.8-1.48,3.33,3.33,0,0,1,2-.59,3.44,3.44,0,0,1,2,.59,1.73,1.73,0,0,1,.85,1.48v11.23a9.54,9.54,0,0,0,.85,4.35,2.8,2.8,0,0,0,2.67,1.67,3.56,3.56,0,0,0,3.39-2.14,15.48,15.48,0,0,0,1.08-6.65v-8.41a2.08,2.08,0,0,1,.77-1.74,3.21,3.21,0,0,1,2.05-.61,3.42,3.42,0,0,1,2.14.63,2.05,2.05,0,0,1,.82,1.72l.14,14.94A7.81,7.81,0,0,0,403.53,556.68Z" transform="translate(-307.73 -483.36)"/><path class="cls-1" d="M412.55,560a2.25,2.25,0,0,1-.77-1.76l-.28-31.87a2.24,2.24,0,0,1,.82-1.81,3.27,3.27,0,0,1,2.14-.68,3,3,0,0,1,2,.66,2.21,2.21,0,0,1,.78,1.79l.23,31.91a2.13,2.13,0,0,1-.84,1.78,3.29,3.29,0,0,1-2.07.66A3,3,0,0,1,412.55,560Z" transform="translate(-307.73 -483.36)"/><path class="cls-1" d="M427.19,534.85a3.93,3.93,0,0,1,0-5.41,3.87,3.87,0,0,1,2.82-1.05,3.76,3.76,0,0,1,2.73,1.05,3.59,3.59,0,0,1,1.08,2.66,3.7,3.7,0,0,1-1.08,2.73,3.74,3.74,0,0,1-2.77,1.08A3.83,3.83,0,0,1,427.19,534.85Zm0,25.38a1.9,1.9,0,0,1-.77-1.72l.37-18.23a2.17,2.17,0,0,1,.85-1.74,3.29,3.29,0,0,1,2.07-.61,3.39,3.39,0,0,1,2.13.63,2.05,2.05,0,0,1,.78,1.81l-.38,18.14a2.16,2.16,0,0,1-.87,1.72,3.31,3.31,0,0,1-2.09.63A3.35,3.35,0,0,1,427.17,560.23Z" transform="translate(-307.73 -483.36)"/><path class="cls-1" d="M460.42,540c1.48,1.9,2.21,4.72,2.21,8.48l-.05,10.77a1.54,1.54,0,0,1-.79,1.41,4,4,0,0,1-2,.47,4.6,4.6,0,0,1-2.07-.43,1.34,1.34,0,0,1-.85-1.27v-11a12.33,12.33,0,0,0-.8-5.2,2.76,2.76,0,0,0-2.68-1.57,3.36,3.36,0,0,0-2.86,1.48,12.3,12.3,0,0,0-1.7,4.86,30.19,30.19,0,0,0-.32,4.7l0,6.35a1.8,1.8,0,0,1-.77,1.57,3.63,3.63,0,0,1-2.1.54,3.54,3.54,0,0,1-2.09-.56,1.83,1.83,0,0,1-.77-1.55q0-7.91-.33-15.61a3.29,3.29,0,0,0-.24-1.31,5.67,5.67,0,0,0-.54-1c-.2-.31-.33-.53-.4-.65a1.51,1.51,0,0,1-.28-.9,2.09,2.09,0,0,1,1-1.6,3.27,3.27,0,0,1,1.91-.75,1.64,1.64,0,0,1,.89.28,4.32,4.32,0,0,1,.94,1,4.8,4.8,0,0,1,1.13,2.82v.38a7.37,7.37,0,0,1,7.28-4.51A7.43,7.43,0,0,1,460.42,540Z" transform="translate(-307.73 -483.36)"/><path class="cls-2" d="M481.86,516.82a6.56,6.56,0,0,1,1.73,4.79q0,6-5.18,10.66a3,3,0,0,1-1.88.86,2.69,2.69,0,0,1-1.76-.61A1.94,1.94,0,0,1,474,531a3,3,0,0,1,.72-1.8q.15-.15.9-1.08c.51-.62,1-1.32,1.55-2.09h-.07a6.39,6.39,0,0,1-3.92-1.37,5.09,5.09,0,0,1-1.84-4.39,4.84,4.84,0,0,1,1.62-3.67,5.91,5.91,0,0,1,4.21-1.51A6.27,6.27,0,0,1,481.86,516.82Zm-6.26,5.11a2.14,2.14,0,0,0,1.65.62,2.16,2.16,0,0,0,1.66-.62,2.08,2.08,0,0,0,.58-1.47c0-1.34-.77-2-2.31-2a2.14,2.14,0,0,0-1.55.61,2,2,0,0,0-.61,1.41A2,2,0,0,0,475.6,521.93Z" transform="translate(-307.73 -483.36)"/><path class="cls-1" d="M518.49,558.47a2.23,2.23,0,0,1,.14.75,2,2,0,0,1-1,1.81,4.06,4.06,0,0,1-2.28.63,3.58,3.58,0,0,1-1.78-.42,2,2,0,0,1-1-1.27l-1.79-6.49-10.85,0c-.22.75-.44,1.46-.64,2.14s-.38,1.29-.54,1.85l-.7,2.4a2.33,2.33,0,0,1-1,1.34,3.16,3.16,0,0,1-1.71.45,3.92,3.92,0,0,1-2.28-.66,2,2,0,0,1-1-1.74,5.9,5.9,0,0,1,.09-.8l6.67-20,1.65-5A12.57,12.57,0,0,1,502.7,529a3.89,3.89,0,0,1,3.06-1.32,3.74,3.74,0,0,1,2.91,1.18,11.38,11.38,0,0,1,2,4.09q2,6.1,4.75,15.36h1.31a2,2,0,0,1,1.56.66,2.92,2.92,0,0,1,.56,1.93c0,1.76-.55,2.63-1.65,2.63H517Zm-9.12-10.25c-.93-3.51-1.75-6.42-2.44-8.74a4.21,4.21,0,0,0-.19-.57,2.54,2.54,0,0,1-.14-.47c-.25-.87-.45-1.51-.61-1.92s-.31-.61-.47-.61-.31.2-.47.61a15.21,15.21,0,0,0-.47,1.5c-.16.63-.27,1-.33,1.22l-2.68,8.93Z" transform="translate(-307.73 -483.36)"/><path class="cls-1" d="M528.08,534.85a3.93,3.93,0,0,1,0-5.41,3.87,3.87,0,0,1,2.82-1.05,3.76,3.76,0,0,1,2.73,1.05,3.59,3.59,0,0,1,1.08,2.66,3.7,3.7,0,0,1-1.08,2.73,3.77,3.77,0,0,1-2.78,1.08A3.83,3.83,0,0,1,528.08,534.85Zm0,25.38a1.93,1.93,0,0,1-.78-1.72l.38-18.23a2.19,2.19,0,0,1,.84-1.74,3.33,3.33,0,0,1,2.07-.61,3.42,3.42,0,0,1,2.14.63,2.05,2.05,0,0,1,.78,1.81l-.38,18.14a2.16,2.16,0,0,1-.87,1.72,3.78,3.78,0,0,1-4.18,0Z" transform="translate(-307.73 -483.36)"/><path class="cls-1" d="M559.66,538.77a6.68,6.68,0,0,1,1.93,4.94,5.64,5.64,0,0,1-1.85,4.51,7,7,0,0,1-4.78,1.6,3.26,3.26,0,0,1-2-.45,1.71,1.71,0,0,1-.56-1.43,1.84,1.84,0,0,1,.4-1.34,1.86,1.86,0,0,1,1.15-.49c1.91-.22,2.86-1.07,2.86-2.54a2.56,2.56,0,0,0-.54-1.69,1.91,1.91,0,0,0-1.57-.66,3.42,3.42,0,0,0-2.66,1.48,11.92,11.92,0,0,0-1.92,3.55,17.24,17.24,0,0,0-.92,3.71q-.29,2.87-.28,7.61a5.73,5.73,0,0,1-.61,3.18,2.56,2.56,0,0,1-2.16.82A3.35,3.35,0,0,1,544,561a2.59,2.59,0,0,1-.76-1.93V551c0-1.73,0-3.26-.11-4.61s-.21-3-.4-4.89l-.28-2.91a1.82,1.82,0,0,1,.65-1.67,3.14,3.14,0,0,1,2.07-.63,2.1,2.1,0,0,1,2.4,2.06c.06,1.1.12,2.45.19,4.05a9.12,9.12,0,0,1,2.72-4,6.64,6.64,0,0,1,4.37-1.52A6.56,6.56,0,0,1,559.66,538.77Z" transform="translate(-307.73 -483.36)"/><path class="cls-3" d="M507.23,508.32s20-29,51-11.65c0,0,28.58,13.07,13.25,51.58" transform="translate(-307.73 -483.36)"/><line class="cls-3" x1="250.55" y1="13.3" x2="254.81" y2="6.77"/><line class="cls-3" x1="262.28" y1="9.82" x2="249.09" y2="1.5"/><path class="cls-3" d="M561.41,510.43s8.68,6.05,6,19.56" transform="translate(-307.73 -483.36)"/><path class="cls-2" d="M323.79,542.32c-.31,0-.67,0-1.08,0a1.51,1.51,0,0,1-1.12-.43,1.46,1.46,0,0,1-.43-1.08,1.44,1.44,0,0,1,.45-1.08,1.38,1.38,0,0,1,1.1-.39q2.27.18,7.41.18l4.14,0c.68,0,1.77,0,3.28,0a1.4,1.4,0,0,1,1,.42,1.49,1.49,0,0,1,.41,1.1,1.57,1.57,0,0,1-.41,1.11,1.41,1.41,0,0,1-1.07.43h-7.59C327.27,542.46,325.23,542.42,323.79,542.32Z" transform="translate(-307.73 -483.36)"/><path class="cls-2" d="M315.65,551.49q-2.26,0-6.37,0a1.47,1.47,0,0,1-1.55-1.51,1.44,1.44,0,0,1,.43-1.06,1.53,1.53,0,0,1,1.12-.41l8.39,0c1.68,0,3.86,0,6.55,0q3.42,0,7.45.11l5.87.07a1.36,1.36,0,0,1,1,.42,1.49,1.49,0,0,1,.4,1.1,1.57,1.57,0,0,1-.41,1.11,1.41,1.41,0,0,1-1.07.43c-1.46,0-4,0-7.52-.14l-3-.07c-1.05,0-2,0-2.94,0Z" transform="translate(-307.73 -483.36)"/><path class="cls-2" d="M313.85,560.77a1.53,1.53,0,0,1-1.06-.49,1.49,1.49,0,0,1-.41-1.06,1.44,1.44,0,0,1,.48-1.12,1.6,1.6,0,0,1,1.21-.39q4.46.31,7.13.32,2.24,0,6.12-.14.9,0,2.7-.06c1.2,0,2.32-.05,3.38-.05l2,0c.4,0,1,0,1.87,0a1.78,1.78,0,0,1,1.24.4,1.27,1.27,0,0,1,.45,1,1.48,1.48,0,0,1-.5,1.12,1.72,1.72,0,0,1-1.19.47c-.75,0-1.31,0-1.69,0l-1.87,0q-3.21,0-6.92.18-4.4.13-6.73.14Q317.56,561.09,313.85,560.77Z" transform="translate(-307.73 -483.36)"/></svg>