<svg id="Calque_1" data-name="Calque 1" xmlns="http://www.w3.org/2000/svg" viewBox="0 0 253.43 253.43"><defs><style>.cls-1{fill:#fff;}.cls-2{fill:#ed6e38;opacity:0.6;}.cls-3{fill:none;stroke:#16abe0;stroke-miterlimit:10;stroke-width:5px;}</style></defs><circle class="cls-1" cx="126.71" cy="126.71" r="126.71"/><circle class="cls-2" cx="126.71" cy="126.71" r="126.71"/><polygon class="cls-3" points="131.96 65.62 142.09 86.15 164.75 89.44 148.36 105.42 152.23 127.99 131.96 117.33 111.7 127.99 115.57 105.42 99.18 89.44 121.83 86.15 131.96 65.62"/><polygon class="cls-3" points="96.62 113.03 106.76 133.56 129.41 136.85 113.02 152.83 116.89 175.39 96.62 164.74 76.36 175.39 80.23 152.83 63.84 136.85 86.49 133.56 96.62 113.03"/><polygon class="cls-3" points="167.87 113.03 178.01 133.56 200.66 136.85 184.27 152.83 188.14 175.39 167.87 164.74 147.61 175.39 151.48 152.83 135.09 136.85 157.74 133.56 167.87 113.03"/></svg>