<?xml version="1.0" encoding="UTF-8"?><svg id="Calque_1" xmlns="http://www.w3.org/2000/svg" viewBox="0 0 149.66 149.82"><defs><style>.cls-1{fill:#fff;}.cls-2{fill:#89c44a;}.cls-2,.cls-3{opacity:.6;}.cls-3{fill:#00abde;}</style></defs><circle class="cls-1" cx="74.83" cy="74.99" r="74.83"/><circle class="cls-3" cx="74.83" cy="74.99" r="74.83"/><path class="cls-1" d="M83.18,.34s10.95,13.73-7.58,18.74c0,0-8.64,5.7,0,14.08,0,0,14.41,19.67,46.41,20.48,0,0,8.06,3.38,4.62,10.27l-9,39.63s-2.74,6.63-6.71,9.34l-21.97,11.35s-7.24,1.4-7.94-5.76l3.53-25.57s1.85-33.6-23.21-44.17l-29.12-9.16s-6.71-4.1-4.24-10.13l4.59-16.2S52.65-2.48,83.18,.34Z"/><path class="cls-2" d="M83.18,.34s10.95,13.73-7.58,18.74c0,0-8.64,5.7,0,14.08,0,0,14.41,19.67,46.41,20.48,0,0,8.06,3.38,4.62,10.27l-9,39.63s-2.74,6.63-6.71,9.34l-21.97,11.35s-7.24,1.4-7.94-5.76l3.53-25.57s1.85-33.6-23.21-44.17l-29.12-9.16s-6.71-4.1-4.24-10.13l4.59-16.2S52.65-2.48,83.18,.34Z"/><path class="cls-1" d="M0,76.43H9.78s6.57-.66,10.81-6.47c0,0,5.59-13.96,13-13.54,0,0,23.59-.3,23.24,28.11,0,0,.29,2.37-3.06,7.82,0,0-4.68,8.48-4.94,14.11l.03,6.62s1.38,6.92,5.62,9.68c0,0,9.24,8.09,9.65,10.85,0,0,1.82,2.88,.59,7.01,0,0,.06,1.62-7.06,7.37,0,0-25.08-4.35-43.59-28.94C14.06,119.04,0,101.63,0,76.43Z"/><path class="cls-2" d="M0,76.43H9.78s6.57-.66,10.81-6.47c0,0,5.59-13.96,13-13.54,0,0,23.59-.3,23.24,28.11,0,0,.29,2.37-3.06,7.82,0,0-4.68,8.48-4.94,14.11l.03,6.62s1.38,6.92,5.62,9.68c0,0,9.24,8.09,9.65,10.85,0,0,1.82,2.88,.59,7.01,0,0,.06,1.62-7.06,7.37,0,0-25.08-4.35-43.59-28.94C14.06,119.04,0,101.63,0,76.43Z"/></svg>