<svg id="Calque_1" data-name="Calque 1" xmlns="http://www.w3.org/2000/svg" viewBox="0 0 375.26 264.55"><defs><style>.cls-1{fill:#fff;}.cls-1,.cls-3,.cls-4{stroke:#fff;}.cls-1,.cls-3,.cls-4,.cls-7{stroke-miterlimit:10;}.cls-2{fill:#8bc04e;opacity:0.2;}.cls-3{fill:#d8d8d8;}.cls-4{fill:#0aabdf;}.cls-5{fill:#f7b394;}.cls-6{fill:#413218;}.cls-7{fill:none;stroke:#ed6e3a;stroke-linecap:round;stroke-width:4px;}</style></defs><rect class="cls-1" x="0.5" y="0.5" width="374.26" height="263.55" rx="23.09"/><rect class="cls-2" x="0.5" y="0.5" width="374.26" height="263.55" rx="23.09"/><rect class="cls-3" x="30.92" y="57.99" width="148.56" height="148.56"/><path class="cls-4" d="M145.76,683.25s-2.31-30,24.89-38.76c0,0,25.16,21.92,56.34,0,0,0,28.31,6.32,26.46,38.76Z" transform="translate(-95.25 -480.97)"/><path class="cls-5" d="M200.65,654s-31.14,5.87-38.31-34.41c0,0-13.37-3.42-13.37-15,0,0-.49-10.92,11.74-11.25,0,0,3.42-12.55,14.1-14.18a34.4,34.4,0,0,0,21.11-7.66,27.43,27.43,0,0,0,20.71,8.31s17,4.57,15.32,14.51c0,0,15.49,3.1,14.19,14.51,0,0,2.44,10.27-11.9,11.09C234.24,619.91,231,655.94,200.65,654Z" transform="translate(-95.25 -480.97)"/><path class="cls-6" d="M197.52,576s-8.37,9.68-24.83,11.75c0,0-9.4-.18-13.36,11.29,0,0-3.19-21.16.95-26.71,0,0,7.43-24.83,33.1-25.21,0,0,24.84-3.1,36.12,20.88,0,0,5.18,5,4.05,29.72A17.84,17.84,0,0,0,217.18,585S211.54,586.67,197.52,576Z" transform="translate(-95.25 -480.97)"/><line class="cls-7" x1="202.39" y1="78.61" x2="344.51" y2="78.61"/><line class="cls-7" x1="202.39" y1="114.61" x2="344.51" y2="114.61"/><line class="cls-7" x1="202.39" y1="150.61" x2="344.51" y2="150.61"/><line class="cls-7" x1="202.39" y1="186.61" x2="278.85" y2="186.61"/></svg>