<?xml version="1.0" encoding="UTF-8"?><svg id="Calque_1" xmlns="http://www.w3.org/2000/svg" viewBox="0 0 203.96 206.05"><defs><style>.cls-1{fill:#f5b79d;}.cls-2{fill:#ead853;}.cls-3{fill:#fefdfd;}.cls-4{fill:#f6b292;}.cls-5{fill:#bdd898;}.cls-6{fill:#41331a;}.cls-7{fill:#eed6bb;}.cls-8{fill:#f5bc98;}.cls-9{fill:#ec6f3c;}.cls-10{fill:#ea1c27;}.cls-11{fill:#fefefe;}</style></defs><path class="cls-1" d="M115.96,206.04v-.25c14.93,0,29.86,0,44.78,0,13.65,0,27.3,0,40.95,.02,.96,0,1.34-.2,1.29-1.24-.08-1.67-.01-3.35,0-5.02,.07,.02,.15,.03,.22,.01,0,1.92-.03,3.84,.02,5.75,.01,.6-.14,.74-.74,.74-6.23-.03-12.46-.02-18.69-.02H115.96Z"/><path class="cls-4" d="M113.53,72.09c4.92,1.77,9.32,4.33,12.57,8.55,2.36,3.07,3.51,6.56,3.54,10.44,0,1.34-.26,2.7,.22,4.02-1.33,3.38-2.82,6.71-3.59,10.29-.52,.42-1.03,.87-1.57,1.27-2.85,2.12-6.15,2.91-9.59,3.27-.58,.06-.98,.14-1.04,.84-.26,3.49-.93,6.93-1.7,10.34-1.93,8.48-4.89,16.55-9.63,23.91-1.84,2.86-4.09,5.38-6.43,7.83h.01l-.36,.24c-2.13,1.86-4.42,3.5-6.93,4.82-5.15,2.71-10.69,3.67-16.46,3.55-1.23-.54-2.39-.08-3.57,.23-3.33,.03-6.67,.16-9.98-.46-5.02-.93-9.63-2.89-13.97-5.52l-.28-.24h.01c-.11-.19-.28-.26-.49-.24h0c-1.33-1.12-2.7-2.21-3.97-3.4-5.96-5.55-10-12.36-13.01-19.85-2.81-6.98-4.49-14.27-5.73-21.66-.11-.67-.42-.91-.99-1.14-6.33-2.54-11.52-6.46-14.34-12.83-2.88-6.5-2.92-13.09,.52-19.46,1.91-3.53,4.98-5.62,8.88-6.51,.35-.08,.7-.16,1.05-.24,.28,2.64,.56,5.27,.84,7.97,.5-.27,.47-.73,.58-1.07,.58-1.75,1.28-3.44,2.17-5.05,2.89-5.27,6.89-9.19,13.03-10.33,1.76-.33,3.56-.45,5.31-.86,10.77-2.49,19.95-7.71,27.35-15.96,.69-.77,1.03-.96,1.9-.18,4.24,3.78,8.71,7.26,13.75,9.92,3.04,1.61,6.17,3.06,9.74,2.89,1.34-.07,2.63,.1,3.91,.38,7.18,1.56,12.1,5.96,15.51,12.28,1.02,1.89,1.76,3.89,2.47,6.24l.26-4.27Z"/><path class="cls-5" d="M72.57,161.45c5.77,.12,11.3-.84,16.46-3.55,2.51-1.32,4.8-2.96,6.93-4.82,.17-.01,.32-.06,.36-.25h-.01c.45,.1,.75-.19,1.08-.42,1.54-1.07,3.11-2.1,4.6-3.23,3.22-2.43,3.18-2.41,6.94-.71,7.46,3.37,13.69,8.29,18.7,14.75,1.83,2.36,3.57,4.8,4.69,7.61-1.79,1.31-3.71,2.45-5.34,3.98-5.03,4.7-7.9,10.6-9.57,17.17-1.14,4.46-1.53,9-1.5,13.59-.56-.01-1.12-.04-1.68-.04-37.46,0-74.92,0-112.38,0-1.8,0-1.84,0-1.83-1.81,.06-12.11,2.13-23.8,7.72-34.66,4.68-9.1,11.56-16.03,20.81-20.6,2.49-1.23,4.27-1.44,6.41,.77,2.32,2.4,5.33,4.04,8.25,5.68,.34,.19,.68,.45,1.12,.33h0c.07,.26,.26,.28,.49,.24h-.01c-.02,.2-.07,.44,.28,.23,4.35,2.63,8.95,4.59,13.97,5.52,3.31,.61,6.64,.49,9.98,.46,1.2,.05,2.39,.06,3.57-.23Z"/><path class="cls-6" d="M113.53,72.09l-.26,4.27c-.71-2.34-1.45-4.35-2.47-6.24-3.41-6.32-8.33-10.72-15.51-12.28-1.29-.28-2.58-.44-3.91-.38-3.57,.18-6.7-1.28-9.74-2.89-5.04-2.66-9.52-6.14-13.75-9.92-.87-.78-1.21-.59-1.9,.18-7.4,8.25-16.58,13.47-27.35,15.96-1.75,.4-3.55,.53-5.31,.86-6.14,1.14-10.13,5.07-13.03,10.33-.88,1.61-1.59,3.3-2.17,5.05-.11,.34-.08,.8-.58,1.07-.28-2.7-.56-5.33-.84-7.97-.31-5.21-.73-10.43-.63-15.65,.08-4.34,.03-8.75,1.4-12.92,2.94-8.95,6.43-17.66,12.44-25.11C36.56,8.22,44.75,2.47,55.37,.77c14.81-2.37,28.24,.55,39.54,10.94,5.67,5.22,9.31,11.8,12.75,18.63,4.54,9.01,5.14,18.64,5.71,28.35,.26,4.46,.11,8.93,.16,13.39Z"/><path class="cls-2" d="M184.01,127.55l-.15,2.48c-.41-1.36-.84-2.52-1.43-3.62-1.98-3.67-4.84-6.23-9-7.13-.75-.16-1.5-.26-2.27-.22-2.07,.1-3.89-.74-5.66-1.68-2.93-1.54-5.53-3.56-7.98-5.76-.5-.45-.7-.34-1.1,.11-4.29,4.79-9.63,7.82-15.88,9.26-1.02,.23-2.06,.31-3.08,.5-3.56,.66-5.88,2.94-7.56,6-.51,.93-.92,1.92-1.26,2.93-.07,.2-.04,.47-.34,.62-.17-1.57-.33-3.1-.49-4.63-.18-3.03-.42-6.05-.36-9.09,.05-2.52,.02-5.08,.81-7.5,1.71-5.2,3.73-10.25,7.22-14.58,3.86-4.78,8.61-8.12,14.78-9.11,8.6-1.37,16.4,.32,22.95,6.35,3.29,3.03,5.4,6.85,7.4,10.81,2.64,5.23,2.98,10.82,3.31,16.46,.15,2.59,.06,5.18,.09,7.78Z"/><path class="cls-9" d="M143.53,174.53c3.86,2.13,7.83,3.94,12.35,3.95,4.05,0,8.12,.1,12.1-.91,2.55-.65,4.84-1.84,6.87-3.49,.56-.46,1.25-.7,1.75-1.22,.12-.1,.3-.16,.26-.38l-.02,.02c.25,.09,.41,0,.49-.25v.02c1.22-.52,2.24-1.37,3.21-2.23,.82-.72,1.53-.74,2.48-.35,8.73,3.6,14.56,9.95,17.76,18.76,1.3,3.58,1.99,7.29,2.19,11.09,0,1.68-.07,3.35,0,5.02,.05,1.04-.33,1.24-1.29,1.24-13.65-.03-27.3-.02-40.95-.02-14.93,0-29.85,0-44.78,0l-.08-.23c-.03-4.59,.37-9.13,1.5-13.59,1.67-6.57,4.55-12.47,9.57-17.17,1.63-1.53,3.55-2.67,5.34-3.98,.39,.03,.69-.18,.99-.38,1.76-1.19,3.23-1.15,4.85,.5,1.27,1.3,2.83,2.43,4.66,3h-.01c-.03,.19,.11,.22,.25,.24h-.01l.5,.35Z"/><path class="cls-8" d="M187.1,149.02c-.5-.12-.75-.35-.47-.9,.28-.58,.51-1.18,.77-1.77,.06,.91-.08,1.79-.29,2.67Z"/><path class="cls-7" d="M72.57,161.45c-1.18,.29-2.37,.28-3.57,.23,1.17-.31,2.34-.77,3.57-.23Z"/><path class="cls-11" d="M44.79,155.47c-.23,.04-.42,.02-.49-.25,.21-.02,.39,.05,.49,.25Z"/><path class="cls-11" d="M45.05,155.71c-.35,.21-.3-.03-.28-.24l.28,.24Z"/><path class="cls-3" d="M96.31,152.83c-.04,.19-.19,.24-.36,.25,.12-.08,.24-.17,.36-.25Z"/><path class="cls-11" d="M177.33,172.25c-.09,.24-.24,.34-.49,.25,.09-.23,.24-.33,.49-.25Z"/><path class="cls-3" d="M143.53,174.53l-.5-.37c.27-.01,.45,.08,.5,.37Z"/><path class="cls-11" d="M176.85,172.48c.04,.21-.14,.27-.26,.38l.26-.38Z"/><path class="cls-3" d="M143.04,174.18c-.15-.02-.29-.05-.25-.25,.16,0,.26,.08,.25,.25Z"/><g><path class="cls-2" d="M129.14,149.16s-13.13,6.63-9.7,15.86,11.61-10.13,11.61-10.13c0,0,.3-7.05-1.91-5.73Z"/><path class="cls-2" d="M118.11,164.67c-1.57,.29-4.2,1.35-4.74,5.23-.03,.19-.08,.37-.17,.54-.31,.59-1.17,1.97-2.79,2.94s4.31,.39,6.71,.11c.59-.07,1.09-.44,1.34-.98l2.06-4.47c.24-.51,.2-1.11-.09-1.59l-.59-.98c-.36-.59-1.04-.93-1.72-.8Z"/><g><path class="cls-10" d="M119.42,166.33s.98-4.45-1.3-6.29-5.64,3.15-5.64,3.15c0,0,3.15,4.45,6.94,3.15Z"/><path class="cls-10" d="M118.57,165.59s4.45-.98,6.29,1.3-3.15,5.64-3.15,5.64c0,0-4.45-3.15-3.15-6.94Z"/></g></g><g><path class="cls-2" d="M184.93,149.16s13.13,6.63,9.7,15.86-11.61-10.13-11.61-10.13c0,0-.3-7.05,1.91-5.73Z"/><path class="cls-2" d="M195.96,164.67c1.57,.29,4.2,1.35,4.74,5.23,.03,.19,.08,.37,.17,.54,.31,.59,1.17,1.97,2.79,2.94s-4.31,.39-6.71,.11c-.59-.07-1.09-.44-1.34-.98l-2.06-4.47c-.24-.51-.2-1.11,.09-1.59l.59-.98c.36-.59,1.04-.93,1.72-.8Z"/><g><path class="cls-10" d="M194.66,166.33s-.98-4.45,1.3-6.29,5.64,3.15,5.64,3.15c0,0-3.15,4.45-6.94,3.15Z"/><path class="cls-10" d="M195.51,165.59s-4.45-.98-6.29,1.3,3.15,5.64,3.15,5.64c0,0,4.45-3.15,3.15-6.94Z"/></g></g><path class="cls-4" d="M184.01,127.55c2.86,1.03,5.41,2.51,7.3,4.96,1.37,1.78,2.04,3.81,2.06,6.06,0,.78-.15,1.57,.13,2.33-.77,1.96-1.64,3.9-2.08,5.98-.3,.25-.6,.5-.91,.74-1.65,1.23-3.57,1.69-5.57,1.9-.34,.03-.57,.08-.6,.49-.15,2.03-.54,4.02-.99,6-1.12,4.93-2.84,9.61-5.59,13.88-1.07,1.66-2.37,3.12-3.73,4.54h0l-.21,.14c-1.24,1.08-2.57,2.03-4.02,2.8-2.99,1.57-6.21,2.13-9.55,2.06-.71-.31-1.39-.05-2.07,.13-1.94,.02-3.87,.09-5.79-.26-2.92-.54-5.59-1.68-8.11-3.2l-.16-.14h0c-.06-.11-.16-.15-.29-.14h0c-.77-.65-1.57-1.28-2.31-1.97-3.46-3.22-5.81-7.18-7.56-11.52-1.63-4.05-2.61-8.28-3.32-12.58-.07-.39-.24-.53-.57-.66-3.68-1.47-6.69-3.75-8.33-7.45-1.67-3.78-1.69-7.6,.3-11.3,1.11-2.05,2.89-3.27,5.15-3.78,.2-.05,.4-.09,.61-.14,.16,1.53,.32,3.06,.49,4.63,.29-.16,.27-.42,.34-.62,.34-1.01,.75-2,1.26-2.93,1.68-3.06,4-5.34,7.56-6,1.02-.19,2.06-.26,3.08-.5,6.25-1.45,11.58-4.47,15.88-9.26,.4-.45,.6-.56,1.1-.11,2.46,2.2,5.06,4.21,7.98,5.76,1.77,.93,3.58,1.78,5.66,1.68,.78-.04,1.52,.06,2.27,.22,4.17,.9,7.02,3.46,9,7.13,.59,1.1,1.02,2.26,1.43,3.62l.15-2.48Z"/></svg>