<?xml version="1.0" encoding="UTF-8"?><svg id="Calque_1" xmlns="http://www.w3.org/2000/svg" viewBox="0 0 217.67 231.96"><defs><style>.cls-1{fill:#ed6e38;}.cls-2{fill:#f7b394;}.cls-3{fill:#5a5a5a;}.cls-4{fill:#413218;}.cls-5{fill:#0aabdf;}.cls-6{fill:none;stroke:#c3c1c2;stroke-miterlimit:10;stroke-width:5px;}.cls-7{fill:#8bc04e;}</style></defs><circle class="cls-5" cx="92.53" cy="92.53" r="92.53"/><path class="cls-7" d="M42.36,159.78s-2.31-30,24.89-38.76c0,0,25.17,21.92,56.35,0,0,0,28.31,6.32,26.46,38.76H42.36Z"/><path class="cls-2" d="M97.25,130.52s-31.14,5.87-38.31-34.41c0,0-13.37-3.42-13.37-15,0,0-.49-10.92,11.74-11.25,0,0,3.42-12.55,14.1-14.18,7.7-.12,15.13-2.82,21.12-7.66,5.41,5.58,12.93,8.6,20.7,8.31,0,0,17,4.57,15.33,14.51,0,0,15.49,3.1,14.18,14.51,0,0,2.45,10.28-11.9,11.09,0,0-3.26,36.03-33.59,34.08Z"/><path class="cls-4" d="M94.13,52.48s-8.37,9.68-24.83,11.75c0,0-9.41-.18-13.36,11.29,0,0-3.2-21.16,.94-26.71,0,0,7.43-24.83,33.11-25.21,0,0,24.83-3.1,36.12,20.88,0,0,5.17,5,4,29.72-2.18-7.29-8.76-12.39-16.36-12.69,0,0-5.61,1.69-19.62-9.03Z"/><circle class="cls-1" cx="150.14" cy="164.43" r="67.53"/><path class="cls-6" d="M131.44,157.8s-4.06-29.26,18.57-28.92,18.56,28.92,18.56,28.92"/><rect class="cls-3" x="128.78" y="157.26" width="42.71" height="42.71"/><circle cx="150" cy="173.93" r="6.64"/><polygon points="147.01 179.75 145.74 191.89 154.26 191.89 152.84 179.75 147.01 179.75"/></svg>