<?xml version="1.0" encoding="UTF-8"?><svg id="Calque_1" xmlns="http://www.w3.org/2000/svg" viewBox="0 0 78.49 121.19"><defs><style>.cls-1{fill:#ed6e38;}.cls-2{fill:#fff;}</style></defs><path class="cls-1" d="M10.67,10.14s24.15-22.82,55.31,0c1.62,1.52,25.73,27.36,2.37,72.35,0,0-19.37,36.26-35.9,38.7,0,0-14.19,.46-11.16-13.9,0,0,2.1-4.67,8.99-12.25,0,0,12.16-13.81,19.38-26.98,0,0-12.73,8.66-33.27-2.31,0,0-16.8-7.32-16.34-30.56,0,0-1.4-13.79,10.62-25.05Z"/><path class="cls-2" d="M20.3,34.07s-.05-17.26,18.09-19.18c0,0,18.14-1.48,19.72,16.11,0,0,2.19,16.54-17.42,18.73,0,0-18.9,2.19-20.39-15.67Z"/></svg>