<svg id="Calque_1" data-name="Calque 1" xmlns="http://www.w3.org/2000/svg" viewBox="0 0 333 227.76"><defs><style>.cls-1{fill:none;stroke:#14aadf;stroke-miterlimit:10;stroke-width:6px;}</style></defs><circle class="cls-1" cx="200.33" cy="8.64" r="5.64"/><circle class="cls-1" cx="221" cy="6.76" r="3.76"/><ellipse class="cls-1" cx="200.33" cy="29.31" rx="5.64" ry="3.76"/><ellipse class="cls-1" cx="247.31" cy="49.98" rx="3.76" ry="5.64"/><circle class="cls-1" cx="6.76" cy="115.76" r="3.76"/><circle class="cls-1" cx="18.03" cy="127.03" r="3.76"/><circle class="cls-1" cx="29.31" cy="119.52" r="3.76"/><circle class="cls-1" cx="46.22" cy="132.67" r="5.64"/><circle class="cls-1" cx="34.95" cy="196.57" r="5.64"/><circle class="cls-1" cx="46.22" cy="189.05" r="5.64"/><circle class="cls-1" cx="80.05" cy="207.84" r="5.64"/><circle class="cls-1" cx="104.48" cy="221" r="3.76"/><circle class="cls-1" cx="147.71" cy="215.36" r="5.64"/><ellipse class="cls-1" cx="232.28" cy="200.33" rx="3.76" ry="5.64"/><circle class="cls-1" cx="254.83" cy="202.21" r="3.76"/><circle class="cls-1" cx="273.62" cy="209.72" r="3.76"/><circle class="cls-1" cx="326.24" cy="209.72" r="3.76"/><ellipse class="cls-1" cx="328.12" cy="187.17" rx="1.88" ry="3.76"/><circle class="cls-1" cx="311.21" cy="205.97" r="7.52"/><ellipse class="cls-1" cx="281.14" cy="185.29" rx="3.76" ry="1.88"/><circle class="cls-1" cx="292.41" cy="190.93" r="3.76"/><ellipse class="cls-1" cx="301.81" cy="172.14" rx="1.88" ry="3.76"/><circle class="cls-1" cx="258.59" cy="183.41" r="3.76"/><circle class="cls-1" cx="247.31" cy="187.17" r="3.76"/><circle class="cls-1" cx="243.55" cy="160.86" r="3.76"/><circle class="cls-1" cx="251.07" cy="153.34" r="3.76"/><circle class="cls-1" cx="249.19" cy="147.71" r="5.64"/><circle class="cls-1" cx="219.12" cy="166.5" r="5.64"/><circle class="cls-1" cx="205.97" cy="157.1" r="3.76"/><circle class="cls-1" cx="187.17" cy="142.07" r="3.76"/><ellipse class="cls-1" cx="205.97" cy="128.91" rx="3.76" ry="5.64"/><circle class="cls-1" cx="232.28" cy="115.76" r="3.76"/><circle class="cls-1" cx="198.45" cy="108.24" r="3.76"/><circle class="cls-1" cx="237.91" cy="91.33" r="5.64"/><path class="cls-1" d="M302.4,344.89,291.24,355.6s-5.35,0-3.12-5.35,10-8,10-8S305.14,342.26,302.4,344.89Z" transform="translate(-143.69 -266.89)"/><path class="cls-1" d="M372.33,299.38l-1.79,7.14s-7.58,4.46-6.91,0,.22-12.49,6.91-15.17,12.94,8,12.94,8v9.12s-5.35,2.43-5.58,0S380.46,297.3,372.33,299.38Z" transform="translate(-143.69 -266.89)"/><path class="cls-1" d="M194.93,397.68h11.9v5.5l7.14,1.21s3.71,2.66,0,4.3-17.85,1.56-17.85,1.56S191.8,407.2,194.93,397.68Z" transform="translate(-143.69 -266.89)"/><path class="cls-1" d="M220.15,362.25l-9.23-.75s-3.42-5.8,0-6.54,11.75-.9,11.75-.9l2.53-1.48h5.21l1,2.53,10.26,2.3s11.16,8.11,4.32,9.3-17.21,0-17.21,0S220.74,366.56,220.15,362.25Z" transform="translate(-143.69 -266.89)"/><path class="cls-1" d="M270.86,352.92s13.39-3.12,11.61-10-12.65,1.19-12.65,1.19l-13.53,1.49s-3.57,4.61,0,6.39S270.86,352.92,270.86,352.92Z" transform="translate(-143.69 -266.89)"/><path class="cls-1" d="M263.13,369.58c0-.44-.89-5.33-.89-5.33s-6.6-3.44-7.54-.77S253,378.21,253,378.21s5.35,4.31,8.47,2.82,5.51-2.08,5.06-3.57,1.19-3.86,1.19-3.86,5.06,0,4.91,2.08,2.68,4.46,2.68,4.46-1.79,6.69,0,7.88,7.88,2.61,7.88,2.61a12.16,12.16,0,0,0,1.49,4.57c1.48,3.09,0,8.59,0,8.59s-.79,4.39,2.87,3.46a22.07,22.07,0,0,1,8.28,0l-1.19-9.85s-1.55-5.06.64-3.2,3.38,6.05,3.38,6.05-.45,2.95,3.72,1.31,9.66-3.12,6.39-5.5a33.58,33.58,0,0,0-7.58-3.87l-3.72-4.69s-3.87-2.75-6.55-1.41-.44-4.46-5.2-4S282.91,366.31,278,370s-4.31-11.57-7.58-5.78S263.13,369.58,263.13,369.58Z" transform="translate(-143.69 -266.89)"/><path class="cls-1" d="M289.52,358.44v5.48l6.54,1.85,2.38,5.87s3.72-.3,2.38,11h8.28s1-8,0-8.48a12.14,12.14,0,0,1-2.63-2.38l1.34-1.24s3-6.5-3-7.39l-5.95-.89-.15-4S291.6,355.66,289.52,358.44Z" transform="translate(-143.69 -266.89)"/><path class="cls-1" d="M344.49,364.25l7.58-10s3.72-.44,2.38,2.38l.29,8.18s-1.19,2.53-5.13,2.68A5.17,5.17,0,0,1,344.49,364.25Z" transform="translate(-143.69 -266.89)"/><path class="cls-1" d="M330.86,376.77V367s-6.69-2.23-7.58,0a18.24,18.24,0,0,1-2.83,4.41h-7s-1.49,3.91.74,6,11.31,5.05,11.31,5.05a11.41,11.41,0,0,0,1.63,5.66c1.64,2.37,6.17,2.08,6.17,2.08s5.14-1.64,4.69-3.2,1.19-6.32-1.34-8.11A13.58,13.58,0,0,0,330.86,376.77Z" transform="translate(-143.69 -266.89)"/><path class="cls-1" d="M364.69,408v-6.58s4.57-1.56,0-4a6.84,6.84,0,0,0-8,1.12s-4.18,4.57-.53,7.69c0,0-7.06,5.14-2.26,7.48,0,0,1,5.24,7.92,4.35,0,0,9,.58,8.14-3.22,0,0,3.69-3.59.06-5.26C370,409.59,363.91,409.48,364.69,408Z" transform="translate(-143.69 -266.89)"/></svg>