<svg id="Calque_1" data-name="Calque 1" xmlns="http://www.w3.org/2000/svg" viewBox="0 0 324.52 373.03"><defs><style>.cls-1{fill:none;stroke:#14aadf;stroke-miterlimit:10;stroke-width:6px;}</style></defs><path class="cls-1" d="M227.93,542.74s-10.25.55-16.3-12.64c0,0-4.94-17.22-15.57-59.35,0,0-1.46-12.64-3.48-15.38h0a43.09,43.09,0,0,1-2.56-25.1s15.2-16.67,10.07-22.34c0,0-3.84-16.67-16.66-22.9,0,0-8.8-7.51-9.35-17.77,0,0-9.7-8.61,2.93-17.4,0,0,19.15-13.28,13.65-46,0,0-2.47-16.49-28-29.95,0-1.65-12.09-.55-9.35-20.61,0,0,10.72-11.26,1.38-17.58,0,0-15.39-12.36-14-23.9,0,0,.55-15.66-1.93-18.41,0,0-3.84-6.05,13.74-6.6,0,0,19,7.42,21.16-2.19,0,0,8.24-7.42,21.43,0,0,0,9.89,12.08,20.05,8.24,0,0,19.24-7.69,21.71-1.65,0,0,4.39,25.83,10.16,29.95,0,0-2.19,14,17.86,9.61l8.8-.82s4.67-49.18,18.54-40.39a70.79,70.79,0,0,1,21,20.61s8,34.89,22,41.76L355,286.85s-1.65,14.84-15.38,10.17c0,0-30.23-9.07-22,6.59,0,0-.83,14.29,9.89,18.69,0,0,4.39,7.69,11,9.89,0,0,3.29,12.09,22,10.44,0,0,11.81,11.54,9.61-8.25,0,0,1.38-6.86,27.48-3,0,0,8.79,2.75,31-16.21l25.28-11.26s4.12-.55,2.75,3.29l-11.27,37.37s-3,6.32-12.91,9.62c0,0-46.43,18.41-63.74,43.68,0,0-6.6,25.28-14.29,26.38,0,0-13.19,2.47-9.89,31.32,0,0,18.68-34.89,39.56-53.85,0,0,22.81-3.57,22.53,5.77,0,0,2.48,19-29.67,36.54,0,0-1.1,26.65-11.81,21.43,0,0-4.12,9.07-6.32,32.15,0,0,.27,16.48-11,19.5,0,0-4.12,4.4-3.85,9.07,0,0-2.75,7.69-24.45,10.17L309.63,538s-13.19,17.77-24.18,4.76c0,0-15.39,12-34.89,1Z" transform="translate(-135.38 -178.35)"/></svg>