<svg id="Calque_1" data-name="Calque 1" xmlns="http://www.w3.org/2000/svg" viewBox="0 0 260.23 223.9"><defs><style>.cls-1{fill:none;stroke:#14aadf;stroke-miterlimit:10;stroke-width:6px;}</style></defs><path class="cls-1" d="M368.14,298.85s-15-22.27-31.7-20.13c0,0,1.29-15.85-39.4-8.57l-24.84-1.91s-24.84-8.76-33.4,0L214,291.57s-27.84-7.28-13.7,18c0,0-7.29,24-29.56,24.84l3,25.27s15.42.86,27.84,33.83l-1.28,21.85s80.08,66.38,127.19,61.24c0,0,1.71,5.76,13.28,5.66s23.12,0,23.12,0,5.57-2.66,4.29-8.23c2.14-.86,16.7-.86,16.7-.86s33.4-.85,27-18.41l-1.29-27.41s22.27-43.69,10.71-52.25l-32.12-28.69s-7.28-25.7-21-22.27Z" transform="translate(-167.34 -261.34)"/></svg>