<svg id="Calque_1" data-name="Calque 1" xmlns="http://www.w3.org/2000/svg" viewBox="0 0 415.83 427.92"><defs><style>.cls-1{fill:#14abe0;}.cls-2{fill:#fff;}</style></defs><path class="cls-1" d="M154.4,347.41c-1.49-.75-2.93-1.68-4.61-.26-.89.74-1.51,1.36-.7,2.51.15.2.11.53.17.86-2-.45-2.8-1.59-2.36-3.21.3-1.1-.27-1.79-.63-2.73a10.79,10.79,0,0,0-3.92-4.73,3.67,3.67,0,0,1-.69-1c-4,1.32-4.15,1.26-5.51-3.34-1.93.29-4.23,2.08-5.59-1.28-3,1.56-4.59-.37-6.08-2.56-.55-.81-1.18-1.21-2.13-.71a2.76,2.76,0,0,1-3.64-.57c-.24.19-.5.29-.59.47-1.75,3.35-4.6,2.81-7.52,2.23-1-.21-1.45-.64-1-1.58,1.19-2.77-.47-4.75-1.86-6.77a3.59,3.59,0,0,0-1.65-1c-2-.78-4.07-1.49-6.2-2.27.83-1.94,1.67-3.27,4-3.16,2.1.09,4.22-.37,6.34-.46a14.18,14.18,0,0,1,2.73.42,2.18,2.18,0,0,0-.2-3.23c-2.82-2.56-4.17-2.66-6.56-.34-1.42-2.21-3.13-4.27-1.13-7-1.32-.84-2.36-1.5-3.92-.64S99,306,99,305.36c.2-2.91,0-6,1.85-8.5a2.83,2.83,0,0,1,2.09-.81,5.26,5.26,0,0,0,3.7-.75c2.26-1.59,4.79-2.81,7.33-4.25l1.34,2.09,10.93-3.23.26,2.55,1.78,1c.82-2,2.35-2.45,4.28-1.33,4.28,2.48,4.32,2.42,4.9-2.37.1-.83,1.05-1.61,1.71-2.31a15.3,15.3,0,0,1,2-1.53l1.43,1.67,6.87-2.8.63,2.49,3.59-2.25-.28,3.05,2.85-.18-.25,1.69a14.12,14.12,0,0,1,5.44,8.46,3.26,3.26,0,0,0,1,1.49c.94.93,2,1.78,3.17,2.86l6-4.95c1.86-1.53,3.64-1.34,5,.53,2.43-.69,2.43-.69,3.29,1.68.82,0,1.65.37,2.07-1,.13-.4,1.27-.61,2-.67a4.33,4.33,0,0,1,1.48.29c2.15-1.27,4.06-2.41,6-3.55l.54.46c-.06,1.34-.12,2.68-.18,4h12c-3.06-1.11-2.95-4.22-4.29-6.3a5.26,5.26,0,0,1-.2-5.59,21.26,21.26,0,0,0,1.1-4.91c0-.29.11-.72-.05-.89-2.38-2.65-.49-5.54-.55-8.32a7.3,7.3,0,0,0-.76-2.57,3.12,3.12,0,0,0-1-1.05c-3.86-2.95-5.49-7.07-6.11-11.7a2.74,2.74,0,0,1,.25-1.66c1.45-2.33,1.18-3.88-1-5.35-1.08-.72-1.14-1-.55-3.23,2.54.95,5,1.93,7.59,2.83s4.9.33,7.41-.35a12.83,12.83,0,0,1,5.65,0c.53.1.75,1.85,1.09,2.85a.51.51,0,0,1-.1.34c-3.15,5.22.71,8.61,3.1,12.35.22,0,.36.05.44,0,2.39-1.64,4.73-1.26,7.34-.29a33.86,33.86,0,0,0,8.29,1.84,31.6,31.6,0,0,1,9.43,2.44,5.47,5.47,0,0,0,2.93.21,15.43,15.43,0,0,0,8.72-4c1.14-1.1,3.3-1.17,5.32-1.81l-3.55-.8c-2.71-.62-3.16-1.94-2.33-4.54,1.86-5.86,5.64-9.48,11.23-12.08,5.05-2.36,10.35-3.36,15.62-4.6,6.42-1.52,11.2-5.16,15.07-10.26.66-.87,1.22-1.82,1.94-2.64a10.32,10.32,0,0,1,1.74-1.28c-1.82-4.55-1.81-4.75.52-5.87a8.41,8.41,0,0,1-.71-5.67c1.05-5.38.24-10.82.39-16.24a4.23,4.23,0,0,1,1.57-3.38,16.29,16.29,0,0,1,6.94-3.75c5.93-1.5,11.82-3.15,17.73-4.68a3.69,3.69,0,0,1,4.47,2.33,9.4,9.4,0,0,1,.84,7c-.4,1.38.09,2.28,1.78,2.41.73.05,1.43.77,2.08,1.26.27.2.37.62.55.94,1.76,3.22,2.19,3.42,4.95,1.17,1.86-1.53,4-1.35,6-1.47,1.44-.08,3.73,3.63,4,5a33.79,33.79,0,0,0,2,6.86c.16.4,1.7.4,2.57.32.54-.05,1-.59,1.82-1.09.36,2.37,2.34,2.3,3.91,2.93a2.65,2.65,0,0,1,1.33,1.46c.53,1.54.86,3.15,1.2,4.43h3c1.92,0,3.85.07,5.76-.08a2.35,2.35,0,0,1,2.39.69c1.24,1.43,2.2,3.53,5.21,2.19-.55,1.51-.82,2.48-1.25,3.37-.67,1.37-.8,2.64.34,3.82,1.45,1.48,1.42,3,.27,4.67a22.43,22.43,0,0,0-1.27,2.5c1.34.08,2.42.16,3.49.21.54,0,1.16-.19,1.59,0,3.35,1.67,6.06-.22,8.83-1.57a2.58,2.58,0,0,0,1-1.75c.51-3,2.59-4.82,4.7-6.62,2.55,1.11,2.62,1.14,1.46,3.48s-1.38,4.68.18,6.87.81,4.5.54,6.85a2.28,2.28,0,0,0,.79.11c2.55-.81,4.3.47,5.81,2.26a8.17,8.17,0,0,0,5.62,3c1.25.13,2.25.62,1.83,2.35,2.61-.28,2.75,1.9,3.5,3.42,1.23,2.5,3.75,2.72,5.51.5a2.6,2.6,0,0,1,1.61-.85,9.37,9.37,0,0,1,7.47,2.29c2.57,2.06,4,2.69,6.91.07a3.56,3.56,0,0,1,3.77-.9c1.74.52,3.54.83,5.32,1.21a5.49,5.49,0,0,1,4.41,4.05c.94,3.07,5.51,8.65,7.7,9.54.39-.69.61-1.6,1.19-2.05,1.82-1.41,3.37-1.27,5.16,1.13.73,1,1.13,1.86,2.66,1.18a4.25,4.25,0,0,1,2.66.27,4.64,4.64,0,0,0,4.55-1,34.87,34.87,0,0,1,3.12-2c1.74,1.63,3.44,3.33,5.27,4.88a4.34,4.34,0,0,0,2.37,1c3,.21,6.1,0,9.08.42a37.94,37.94,0,0,1,7.11,2.14c.27.1.47,1.11.32,1.56-1.55,4.69-3.47,9.19-7,12.81-2.84,2.91-4.69,6.2-4.48,10.48.27,5.38-1.89,10.17-4.06,14.92a5.21,5.21,0,0,0-.46,4c1.35,4.07,1,8.14-.16,12.15-.92,3.29-1,6.41.73,9.45a2.06,2.06,0,0,1-.33,2.79,2.46,2.46,0,0,0-.72,1.42c-.15,1.43-.81,2.08-2.46,1.73,0,3.63-2.56,3.36-5,3.32-1.32,0-2.63,0-4.09,0,.17-.89.28-1.53.39-2.14-2.33-1.28-3.94-.87-5.95,1.83a3.92,3.92,0,0,0-.85,3c.34.94,1.63,1.54,2.2,2.34-1,4-3.47,6.87-5.8,9.88-2.78,3.58-5.74,6.89-9.68,9.22a1.77,1.77,0,0,0-1,2.23c1.33,4.26,0,7.4-3.76,9.74a13.41,13.41,0,0,0-6.52,10.15,22,22,0,0,1-.69,2.74,3,3,0,0,0,.27.36c.71.66,2.13,1.47,2,1.95-.45,2.05.46,4.59-2.06,6-1.66,1-3.74,1.81-3,4.46,3.8.56,6.35-1.63,8.9-4.05-3-2.87.56-4.61,1-7.31,2.35,2.06,3.75.55,5.34-.73a5.59,5.59,0,0,1,2.89-1.11,57.6,57.6,0,0,1,6.7,0c.38,0,1.11.82,1,1-.51,1.42.23,2.38,1.07,3.25,1.5,1.55,1.82,3.16.66,5-.92,1.47-.53,2.56.74,3.74a75.13,75.13,0,0,1,5.63,5.93c1.43,1.64,1.21,3.56-.39,5.09-1.45,1.39-2.92,2.75-4.37,4.13-1.27,1.21-1.43,2.55-.1,3.7a24.93,24.93,0,0,0,4.39,2.79,1.68,1.68,0,0,1,1.13,1.89c-.15,2.53.33,4.91,2.86,6.33,1.42.8,2.76,1.72,4.27,2.67-.47.88-.87,1.69-1.32,2.46a2.92,2.92,0,0,0-.45,3c.5,1.09-1.19,3.74-2.56,4.33-4.29,1.85-8.58,3.67-13.09,5.6.79,1.35.47,3.39,2.94,3.21.28,0,.71.54.86.92a5.65,5.65,0,0,1,.11,1.44c.26,3.26,2,5.36,5.25,5.33,3.07,0,4.48,1.26,5.21,4a33.71,33.71,0,0,0,1.56,3.9,3.55,3.55,0,0,1-.8.33c-3.31.25-3.27.26-4.15,3.46-.36,1.31-.93,2.55-1.53,4.14a2.6,2.6,0,0,0,.44.69c1.67,1.73,2.34,3.56,1,5.82a1.61,1.61,0,0,0,.09,1.48c2.07,2.36,3.74,5.05,7.43,5.59,2.29.34,4.35,2,6.58,2.95a4.27,4.27,0,0,0,2.66.21c2.26-.66,4.47-1.53,6.67-2.39,1-.38,1.62-.27,2.1.66a2.21,2.21,0,0,0,.22.29c2.46,3.33,2.49,3.95.23,7.46a14.71,14.71,0,0,1-1.49,2.07,11.22,11.22,0,0,0-3.12,8.24,2.55,2.55,0,0,1-1.22,1.72c-2.75,1.66-5.61,3.13-8.34,4.83a8,8,0,0,0-1.76,2.28c-.39.57-.62,1.55-1.12,1.7-3.38,1-4.86,3.72-6.37,6.52a3.2,3.2,0,0,1-2.15,1.54,5.5,5.5,0,0,0-4.78,3,27.92,27.92,0,0,1-1.82,2.46,1.17,1.17,0,0,0,.13.39c.55.66,1.67,1.4,1.58,2-.41,2.61-1.67,3.87-3.45,4a2.54,2.54,0,0,0-.88.14c-2,.94-3.92,1.9-6.2,3,0,.06-.06.65-.15,1.56a31.4,31.4,0,0,1-4-.44,1.65,1.65,0,0,0-2.29,1.28,31.15,31.15,0,0,1-1.47,3.05c-.62-2.09-1.43-3.42-3.26-3.39a38.3,38.3,0,0,0-4.41.32,15.52,15.52,0,0,0-2.64.68c-1.35.42-2.53.7-1.91-1.47a.86.86,0,0,0-.31-.75c-1.72-.71-3.06-2-5.27-2a26.29,26.29,0,0,1-7.92-1.72c-.74-.24-1.16-1.6-1.62-2.5-2.06-4-2.08-4.19-6.6-3.32-3.43.66-6.25.37-8.26-2.88-.51-.83-1.46-1.51-2.24-.17-.19.33,0,1,.24,1.41a12.3,12.3,0,0,0,1.39,1.67c-3.8.18-7.06,1.34-10.41.26a1.9,1.9,0,0,1-1-1.51c.07-1.87-.55-2.66-2.41-2.72-3-.1-5.94-.29-8.91-.3-2.12,0-3.8-.53-4.51-2.75-.43-1.32-1.17-1.43-2.5-1.07-6.39,1.71-11,6-15.35,10.56-1.61,1.67-3.14,2.72-5.46,2.31s-3.77,1.17-5.3,2.36c-3.31,2.56-4.81,6.44-6.53,10-.75,1.59-.6,3.68-.59,5.54,0,4.8.15,9.59.31,14.38a3.4,3.4,0,0,0,.72,1.77c1.18,1.6,2.44,3.14,3.94,5a12.78,12.78,0,0,1-2,0c-2.95-.58-5.9-1.73-8.91-.56-2.19.84-4.28,1.93-6.4,2.94-.22.11-.36.44-.48.69-.28.64-.5,1.83-.81,1.85-1.75.11-4.23.67-5.15-.24-3-3-6.82-2.84-10.4-3.69-1.61-.39-2.56.66-3.55,1.68-2.47,2.53-4.4,2.21-5.61-1-.59-1.6-1.45-2.58-3.15-2.76a4.29,4.29,0,0,1-.71-.16c-3.72-1-3.72-1-2.56-5-2.38-1.17-4.75-2.49-7.26-3.49a1.76,1.76,0,0,0-2.52,1.32c-.08.36-.42.66-.82,1.25-1.3-1.69-2.56-3.15-3.6-4.75a2.24,2.24,0,0,0-2.74-1.12c-2,.56-3.43-.14-4.88-1.52a10,10,0,0,0-3.7-2.09c-3-1-6.15-1.84-9.25-2.7-2.14-.6-2.65-.15-2.46,2a14.76,14.76,0,0,1,.19,2.72c-.1,1.17-2.08,2.5-3.39,2.46l-10.55-.35c-.3,0-.72.09-.89-.07-2.69-2.48-5.67-.63-8.48-.46a5.37,5.37,0,0,1-4.43-1.32c-2.19-2-4.54-3.83-7-5.86-.82.48-1.66.94-2.46,1.44s-1.73,1.12-2.78.21a1.19,1.19,0,0,0-1.14,0c-1.23,1.1-2,.28-3-.48-2.32-1.93-4.9-3.59-6.23-6.49a1.52,1.52,0,0,0-1.29-.66c-4.25,1-7.6-1.44-11.22-2.81a10.42,10.42,0,0,1-2.82-1.66,34.11,34.11,0,0,1-2.69-2.81c-.16.27-.48.78-.75,1.31s-.7,1.74-.84,1.71a6.86,6.86,0,0,1-3.23-1.23c-.77-.77-1-1.91.1-3.18a15.82,15.82,0,0,0,2.23-4.85c.16-.42-.24-1.19-.6-1.62-1-1.14-4.6-1.12-5.68-.06a7,7,0,0,1-1.07.66c.3-3.94-3.3-3.65-5.54-5.51l1.05-.57c6.79-3.76,9.94-10,11.56-17.21,2.42-10.82,4.77-21.66,7.15-32.5.09-.41.16-.83.23-1.25a67.54,67.54,0,0,1,1.48-7.23,6.8,6.8,0,0,1-.54-2.21c1.36-11.44,2.83-22.88,4.17-34.33.32-2.8,1.53-5.14,3.09-7.77,1.89,4.68,6,7,8.84,10.51a10.92,10.92,0,0,1,1.22,3c.23.61.45,1.23.67,1.84l.55,0a7.77,7.77,0,0,0,.26-2.36,17.62,17.62,0,0,0-4.4-9.15c-3.13-3.25-6.21-6.45-10.18-8.69-1.81-1-2.17-3.67-1-4.86-1.78-2.93-3.7-5.75-5.19-8.78-.34-.7.76-2.11,1.2-3.2,5.49,2.46,6.18,4.18,4.83,11.18,2-.75,2.56-2.63,3.55-4.16,1.23-1.92-.93-3.33-.72-5.22l1.76-.67c-1.57-2.26-1.75-5.44-5.29-6.1,1.21-2.46,2.33-4.71,3.44-7l-.52-.34-1.45,1.91c-.18-.05-.41-.05-.51-.16a10,10,0,0,0-7-3.33c-.55,0-1-.94-1.52-1.48s-.8-1.54-1.24-1.56c-2.89-.15-4.59-2.25-6.69-3.74a8.3,8.3,0,0,1-3.46-5.27,11.89,11.89,0,0,0-2.23-4.23,45.49,45.49,0,0,0-4.81-5.46c-1.48-1.4-1.66-3.11-2-4.9a4.65,4.65,0,0,0-1-2.23c-1-1.17-2.26-2.17-3.54-3.37l2.13-2.5a23.72,23.72,0,0,0,1.74,3.16,18.49,18.49,0,0,0,2.53,2.2l3.65-4.09c-1.73-3.13-4.86-4.13-7.94-5.7,3.2-.66,2.65-3.16,3.1-5.15a12.52,12.52,0,0,1,.74-1.79c-1.23.74-2.29,1.48-3.44,2a2.58,2.58,0,0,1-1.75.16,33.45,33.45,0,0,0-3.44-1.29c-1.54-.26-2.61-.79-2.94-2.41a3.9,3.9,0,0,0-.45-1.19,2.45,2.45,0,0,1,.81-3.68c.6-.42,1.14-.92,1.54-1.25-.32-1.19-.55-2.06-.83-3.12-2.32.19-4.91.34-7.48.63s-3.86-1.65-5.57-2.88c-.13-.09,0-.57.05-.86,2.06.21,4.27,1.57,6.11-.64-1.19-1.41-3.06-2.05-3.83-1.39S155.15,346.72,154.4,347.41Zm131.86,137.1c.25-1.59-1.39-3.12.66-3.85,2.78-1,3.21-3.35,3.61-5.77a24.93,24.93,0,0,1,.39-2.88,1.9,1.9,0,0,1,1.16-1.19c5.44-1,5.45-.93,9.53,2.85.13.13.24.35.39.37.58.11,1.37.43,1.71.18,2.07-1.53,4.33-1.52,6.74-1.31,2.83.25,3.36-.57,2.39-3.16a2.15,2.15,0,0,1,.07-.59c2.88-.21,1.83-3.46,3.57-4.68-.83-1.61-.76-1.57.24-3.09,1.75-2.66,4.35-4.78,5.16-8.06.07-.26.86-.55,1.26-.48a32.6,32.6,0,0,1,3.35.93c-.3-2.21-.59-4.11-.8-6-.16-1.37-.7-3-.22-4.09,1.22-2.87.48-5.12-1.31-7.32-.65-.79-1.27-1.6-1.69-2.12,2-2.17,3.9-4.19,5.72-6.29a2.23,2.23,0,0,0,.5-1.8c-.71-2.18-1.77-4.27-1-6.68a1.43,1.43,0,0,0-.11-.88c-1.27-3.26-2.31-6.7-6.13-8a3.5,3.5,0,0,1-1.23-.77,3.66,3.66,0,0,1-.92-1.26c-.73-1.9-2.06-2.53-4.1-2.16a13.42,13.42,0,0,1-4.05.11c-1.91-.27-3.79-.81-5.67-1.27-1.13-.28-2.08-.4-2.71.93a2.13,2.13,0,0,1-1.44.82,25.37,25.37,0,0,1-3.26.34c-2.47.13-5,.08-6.71,2.35-.08.1-.34.07-.64.12-.87-2-2.5-1.39-4.14-1.25a18.25,18.25,0,0,1-3.81-.45l.81-2c-1.07-1.62-1.84-3-2.78-4.17a3,3,0,0,0-1.76-1.12c-2-.3-4.68-3.46-4.34-5.4a5.41,5.41,0,0,0-1.05-4.56c-1.76-2.32-3.32-4.79-4.93-7.22A3.06,3.06,0,0,1,268,382a1.84,1.84,0,0,0-1.46-2.23c-.64.4-1.08.89-1.56.93-2.11.19-4.23.32-6.36.35a3.53,3.53,0,0,1-3.8-3.08c-.18-.82-.38-1.63-.61-2.55-1.69.51-2.32-.1-2.58-1.75-.34-2.2-3.45-3.12-5-1.66-1.23,1.12-2.47,2.23-3.69,3.32-1.87-1.92-1.87-1.92-4.27-1.92-1.4,0-2.8-.06-4.19,0-2.46.14-4.85.5-6.17,3a3,3,0,0,1-2.87,1.49c-2.22.13-4.44.39-7.07.63.81,1.54,1.2,3.09,2.19,4a11.35,11.35,0,0,1,3.6,6.51c.25,1.31.73,2.57,1,3.87a51,51,0,0,1,1.42,7.08c.18,2.23-1.11,4.75,2.42,6.13-2.85,1.36-5.17,2.49-7.51,3.57a1,1,0,0,1-.83,0c-1.65-1.35-3.6-.72-5.43-.94-.59-.07-1.13-.59-2.15-1.16-4.47.22-5.55,4.31-7.05,7.81,2.89,2,3.48,5.07,5.05,7.64l-1.74.76c.26,1.42,1.07,3,.61,3.89a24,24,0,0,1-4.09,5.64c-1.38,1.47-1.6,3.09.21,4.06,4.39,2.34,7.47,6.09,10.86,9.56,2.31,2.36,3,5.28,4,8.2.73,2.27-.57,3.59-2.21,5.29a27.23,27.23,0,0,1-1.05-3.05,10.49,10.49,0,0,0-3.49-5.78c-2.14-1.86-4.15-3.87-6.47-6.06a45.42,45.42,0,0,0-1.33,5c-.66,4.56-1.17,9.14-1.73,13.72q-1.12,9.08-2.22,18.16l.22.09,1.9-3.11c1.41,2.23,2.7,4.06,3.77,6,.53,1-.13,1.45-1.18,1.28l-3.6-.55c-1.21,2.62-2.82,5-2.34,8a4.57,4.57,0,0,1-.24,1.61c-2.36,10.78-4.67,21.57-7.11,32.33-1.62,7.14-4.55,13.52-11.16,17.53a1.7,1.7,0,0,0-.33.41l4.76,2.72c.61-.32.62-.37,4.46.65a3.83,3.83,0,0,1,2,1.5c.92,1.43.14,4.91-1.32,6.48-.62.67-1.52,1.31-.78,2.27.43.56,1.28.79,2.31,1.39-.2-2.71,1-3.67,3-3.69,1.35,3.2,1.26,3.4,4.18,4.65,3.72,1.59,7.28,4,11.73,3a1.9,1.9,0,0,1,1.53.92c1.53,3.34,4.71,4.93,7,7,1.11-.16,2-.57,2.66-.35a4.6,4.6,0,0,0,5.47-3.24c.61-3-.13-6.75,4-7.89a6.21,6.21,0,0,1,1.07-2.78c1.36-1.7,2.89-3.27,4.32-4.93.3-.34.75-.86.67-1.19-.32-1.43-.34-2.61,1.25-3.32.22-.1.28-.75.26-1.14-.07-1.2-.21-2.39-.32-3.54l-2-.33c.21-1.12.72-2.16.5-3-.82-3.34-.95-3.35-4.38-3.36-2.55,0-3.69-1.73-2.74-4.16.76-1.92,1.56-3.82,2.26-5.76a6.4,6.4,0,0,0,.43-2.28c-.1-4-.13-4,3.72-5.24.29-.09.57-.21.87-.29,1.47-.38,3.14-1.62,3.91,1.32.5-1.1.52-2.28,1.05-2.59.69-.4,1.78-.1,2.9-.1.43-2.08,1.95-1.91,3.71-1.69,1.56.2,3.46.47,4.71-.21a8.41,8.41,0,0,1,6.57-1.09c2.86.8,4.6-.36,6.1-2.61a15.2,15.2,0,0,1,2.52-2.36c-.9-2.13,2.11-2.77,2.49-4.71-.15-.12-.43-.22-.49-.41a7.44,7.44,0,0,1-.71-2.57c0-.41.92-.93,1.52-1.13,1.24-.43,2.55-.68,4-1.05-.59-1.92-1.17-3.69-1.65-5.49-.13-.5-.15-1.33.14-1.6C279.53,490.65,281.22,485.63,286.26,484.51Zm-46.2,58.43c.6.45,1.44.76,1.5,1.18.26,1.74.28,3.5.39,5.26-2.2.75-1.08,3-1.92,4.32a5.64,5.64,0,0,1-.73.82c-1.37,1.54-2.79,3-4.09,4.64a2.57,2.57,0,0,0-.63,1.87c.26,1.22-.19,1.75-1.27,1.9a2.68,2.68,0,0,0-2.36,2.59,38.41,38.41,0,0,0-.65,4.5,3,3,0,0,0,.73,2.12c1.87,1.73,3.95,3.23,5.83,5a4.4,4.4,0,0,0,3.59,1.08c3-.1,6.14-2.08,9,.47.11.1.35,0,.53.05,3.52.12,7,.27,10.55.34a2,2,0,0,0,2.24-2.25,20.89,20.89,0,0,0-.21-2.36c-.24-2.31.95-3.34,3.23-2.71,3.39.94,6.78,1.87,10.13,2.93a6.83,6.83,0,0,1,2.95,1.6,5.74,5.74,0,0,0,6,1.9,2.72,2.72,0,0,1,2.07.9,48.35,48.35,0,0,1,3,3.86,3.69,3.69,0,0,1,4.56-1.18c1.54.73,3,1.53,4.56,2.28,3,1.51,3,1.5,2,4.61a2.93,2.93,0,0,0,0,.53,28.45,28.45,0,0,0,3.23.89,4.51,4.51,0,0,1,3.92,3.42c.86,2.56,2.18,2.8,4,.69a5.08,5.08,0,0,1,5.81-1.69c1.46.41,3,.47,4.45.9a6.74,6.74,0,0,1,3.13,1.58c1.77,2,3.77,1.76,5.81,1.27.27-.8.29-1.81.74-2.06,2.32-1.27,4.65-2.8,7.17-3.36,2.73-.6,5.67-.24,8.41-.3-.53-.67-1.36-1.68-2.12-2.74a3.29,3.29,0,0,1-.77-1.58q-.08-10,0-20a3.55,3.55,0,0,1,.55-1.51,64.69,64.69,0,0,1,3.79-6.83c2.3-3.3,5.15-6,9.62-5.69,1.78.14,2.74-.73,3.82-1.88,5.06-5.38,10.45-10.29,18.31-11.59.57,1,1.13,2.08,1.74,3.11.92,1.55,2.37,1.69,3.2.16a7.83,7.83,0,0,1,5.59-4.42c.15,0,.26-.21.46-.37-1.11-1.85.46-2.74,1.41-3.81s1.73-2.64,4.18-1.31c-.95-6.71,3.26-10.46,7.3-14.25-.41-.46-.59-.7-.81-.9-2.34-2.08-4.27-4.21-4.27-7.77,0-2.47-3.88-5.66-6.39-5.86a4.34,4.34,0,0,0-1.95.69c-.6.3-1.13.71-1.9,1.2l-.38-2.14c-1.38.82-2.61,1.59-3.88,2.28-.39.21-1,.44-1.3.26-2.63-1.87-6.27-2.67-7.11-6.51,0-.09-.16-.15-.23-.22l-1.87.3c2-2,.62-3.35,0-4.81s-1.77-2.91-2-4.46a14,14,0,0,0-6.32-10.08c-.3-.21-.51-.57-.82-.72-.66-.31-1.36-.52-2.2-.84-.19,1.91-.73,2.47-2.6,2.15-2.67-.46-4.13-1.6-4.29-4.32a1.32,1.32,0,0,0-.12-.52c-.53-1-1.09-1.63-2.21-.56s-2.36,1.91-3.43,3-1.94,1.5-3.13.22l-4.87,11.3-.91-.07c-.48-2-.95-4-1.46-5.94a3.37,3.37,0,0,0-.5-.88,13.88,13.88,0,0,1-1.81-2.75,5,5,0,0,0-3.93-3.35c-1-.11-2.41,1.87-3.4,3.11-.56.72-.54,1.86-1,2.72-1,2.1-2.16,4.15-3.25,6.22a1.67,1.67,0,0,1-2.53.86,5.14,5.14,0,0,0-6.31.8,1.68,1.68,0,0,1-1.44.32c-1.45-.69-2.84-4.12-2.15-5.56.88-1.87.53-3.33-.57-5a26.34,26.34,0,0,1-1.88-4.64c-.16-.42-.39-1.14-.63-1.16-1.6-.1-3.39-.51-4.79,0-3.82,1.47-3.75,1.64-6.77-1.16a11.91,11.91,0,0,0-1.34-1.23,2.24,2.24,0,0,0-1.29-.48c-1.61.13-3.22.39-4.87.61-.13,1-.2,1.83-.35,2.66-.48,2.71-.63,5.58-3.84,6.84-.36.14-.62,1.35-.43,1.91a1.46,1.46,0,0,1-1,2.12,14.3,14.3,0,0,0-6.47,5.62,10.42,10.42,0,0,1-2.09,2.26,2.09,2.09,0,0,0-.62,2.7c.63,1.75,1.13,3.55,1.75,5.57-1.3.35-2.47.6-3.59,1-.8.28-1.55.72-2.32,1.08l1.6,2.12a2.37,2.37,0,0,1,.17.4c-1,2-4.23,3.25-2.2,6.64-2.57-1.12-3.3.74-4.32,2a5,5,0,0,1-5.18,2.12c-2.14-.36-4.42-1.07-6.45.58a4.75,4.75,0,0,1-4.46.77,11.81,11.81,0,0,0-2.53-.27c-.37,0-1,.12-1.08.31-.56,2-2,1.66-2.86,1.42-1.16,1.2-2,2.12-3.13,3.22l-1.2-2.33c-1.57.49-3.1,1-4.67,1.44-1.07.26-1.42.83-1.17,1.82a9.1,9.1,0,0,1-.91,6.14c-.55,1.21-1,2.48-1.47,3.72-.9,2.33-.39,3,2.11,3.09a8.32,8.32,0,0,1,3.18.33C239.57,537.61,240.49,541.77,240.06,542.94Zm118-147.42c-.59-.42-.85-.58-1.08-.77-1.36-1.16-2.54-3.05-4.61-1-.16.15-.59.05-.89.05-2.52-.07-4.94-.34-6.43-2.82a12.39,12.39,0,0,0-1.36-1.46,2.44,2.44,0,0,0-3.71-.28c-2.41,2.25-5.38,3.17-8.37,4.16-2.83.93-2.9,1.11-1.92,3.84.59,1.63-.06,3.43-1.49,3.83a8.88,8.88,0,0,1-2.7.36,4.92,4.92,0,0,0-5.31,3.35,3.61,3.61,0,0,0,1.12,4.58,30.73,30.73,0,0,0,2.79,1.72c3.28,1.7,4.09,5.12,4.42,8.08a23.17,23.17,0,0,0,1.31,6.8,1.88,1.88,0,0,1-.71,2.48c-1.89,1.7-3.69,3.5-5.56,5.29a4.09,4.09,0,0,0,.4.67c2.51,2.83,4.36,5.82,2.31,9.75a1.61,1.61,0,0,0,0,.89c.28,2,.58,4,.85,5.95.17,1.29.3,2.58.48,4.2L323.27,454c-1.56,2.26-3,4.25-4.34,6.32-.76,1.18-2.6,2.09-1.25,4,0,.06,0,.24-.06.34l-3.3,5.76c.88,1.2.63,2.36-1.28,3.09-.28.1-.53.95-.4,1.31a41.42,41.42,0,0,0,2.33,5.63c.7,1.3,1.25,2.42.42,3.84-1.28,2.16-.16,3.72,1.52,5.38a5.93,5.93,0,0,1,7.51-1.35c.29.15,1-.32,1.38-.69,2-2.08,2.81-4.79,3.54-7.47.66-2.4,2.73-3.47,4.36-4.95.21-.19.94-.05,1.26.18,1.86,1.38,4.14,2.39,4.47,5.16.06.47.82.83,1.13,1.31a5.6,5.6,0,0,1,.8,1.76c.28,1.22.42,2.46.62,3.69l.56,0q1.17-2.75,2.35-5.49c.79-1.81,1.58-3.62,2.45-5.63l1.85,1.63,6-5.06c.83,1.15,1.9,2.1,2.27,3.27.94,3,1.11,3.25,4.52,3.22.73-2.18,2.21-2.59,4-1s3.56,3.12,5.29,4.74a3.32,3.32,0,0,1,1,1.63c.88,4.58,3.1,8.63,4.87,12.87a12.56,12.56,0,0,0,5.83,6.54,2.29,2.29,0,0,0,2.77-.07c1.32-.88,2.73-1.65,4.28-2.57.2.85.31,1.32.43,1.8l.11-.55a14.27,14.27,0,0,1,3.69,0,13.87,13.87,0,0,1,3.16,1.57c.68-.73,1.2-1.77,1.72-1.76,2.32,0,4.82-.07,6,2.69a2.42,2.42,0,0,0,.36.56c3.06-.22,5.11-3.54,8.33-1.82l2.29-1.59c.51,1.67.53,3.64,1.48,4.36,1.1.82,3,.59,4.6.66,1.18.05,1.75.35,1.7,1.68-.05,1.69,1.66,1.49,2.62,2,.33.17,1.13-.25,1.57-.59,1.45-1.15,2.84-2.39,4.66-3.94.33-1.16-.3-2.31-2-3.12a43,43,0,0,1-4.7-2.78c-2.11-1.33-2.31-2.28-1-4.35a7.43,7.43,0,0,0,.59-.91c.65-1.64,1.69-2,3.24-1.15,1,.5,1.87.48,2.27-.8-1.85-1.72-1.85-1.72-1-4.12a8.61,8.61,0,0,0,.49-1.37c.28-1.6,1.2-2.2,2.8-2.06s2.49-.35,2.54-2.2.86-3.15,3-3.12a2.21,2.21,0,0,0,2.45-1.91,1.35,1.35,0,0,1,.88-.76c3.69-.94,7.11-3,11.1-2.62.76-2.92.84-3.05-1.68-4.55a4.9,4.9,0,0,1-1-7.62c.75.32,1.52.66,2.3,1,1.69.67,3.34,2.19,5.11.06.28-.33,1-.26,1.55-.42,1.68-.51,3.39-.94,5-1.59,3.71-1.49,7.38-3.1,11.06-4.67a3.28,3.28,0,0,0,2-4.18,2.82,2.82,0,0,1,.27-1.67c.4-.92.95-1.79,1.5-2.81-1.43-.91-2.73-1.8-4.08-2.58-2.45-1.41-2.78-3.88-2.87-6.24a1.9,1.9,0,0,0-1.23-2,21.24,21.24,0,0,1-4-2.73c-1.6-1.45-1.49-3.21.05-4.68s2.92-2.74,4.36-4.13,1.49-2.76.31-4.12a58.13,58.13,0,0,0-5.45-5.85c-1.72-1.5-2.06-2.9-.9-4.79.84-1.37.54-2.51-.46-3.78a24,24,0,0,1-2.13-4.2c-2.86.09-6.47-1-9.29,2-1.29,1.36-2.68,1.7-4.36.49a23.94,23.94,0,0,0-1.28,2.64c-.17.49-.26,1.34,0,1.58,1.65,1.49.87,2.42-.55,3.36a14.49,14.49,0,0,0-2,1.57c-2.22,2.06-5,1.55-7.76,2,0-2.52-.19-4.76,2.46-5.85,1.93-.79,2.42-2.37,2.65-4.33.18-1.51-.08-2.3-1.7-2.6A11.72,11.72,0,0,0,440,406a12.47,12.47,0,0,1-5.6,4.77,6.9,6.9,0,0,1-3.49.41c-.41,0-.76-1-1.08-1.61a1.7,1.7,0,0,0-2.89-.44c-.46.48-.81,1.18-1.37,1.44a26,26,0,0,1-3.32,1c-.19-.72-.37-1.44-.56-2.15,0-.1-.14-.19-.26-.34-1.37.34-2-.49-2.59-1.61s-1.26-2.35-1.93-3.51a5.42,5.42,0,0,0-6.06-2.59,12.18,12.18,0,0,1-3.36,0,15.67,15.67,0,0,1-2.35-.46l-4.53,16L396,411.4l-.11.56c-.88-.07-1.75-.16-2.63-.22-.28,0-.7-.07-.84.09-1.09,1.23-2.09.79-3.26-.42a16.56,16.56,0,0,0-1.24,2.28c-.35.95-3.55,4-4.51,4.13a.93.93,0,0,1-.67-.17c-1.28-1.51-2.86-1.12-4.33-.56-2.89,1.08-4.82-.69-6.87-2.13-.3-.21-.38-.82-.47-1.27-.39-2.09,1.46-3,2.3-4.51,1.41-2.48,1.57-5.6-1.72-6.46-.41-.11-.78-.36-1.19-.44a6.06,6.06,0,0,1-4.72-4.23c-.91-2.39-2.22-4.64-3.64-7.52Zm125.6-45.8c.29-.8.35-1.73.85-2.22,1.05-1.05.81-2,.27-3.12a10.12,10.12,0,0,1-.78-7.51c1.2-4.58,2-9.22.5-14a5.58,5.58,0,0,1,.37-3.61c2.57-5.62,4.49-11.37,4.38-17.65a8.35,8.35,0,0,1,2.3-5.91,40.54,40.54,0,0,0,4.81-6.16c1.71-2.88,3-6,4.51-9.11-3.59-1.4-6.75-2.45-10.25-2.32-4.25.17-8.36,0-11.36-4-1.67-2.24-2-2.07-4.35-.43-1.66,1.19-3.28,1.87-5.37,1.28a5,5,0,0,0-3,0,1.57,1.57,0,0,1-2.31-.92,4,4,0,0,0-1-1.49,4,4,0,0,0-2.36-.88c-.58.09-1.29,1-1.47,1.71-.31,1.18-.9,1.36-1.84.94a4.56,4.56,0,0,1-1.62-1c-2.66-3.16-6.08-5.73-7.15-10.12-.25-1-2-1.81-3.21-2.34s-2.63-.47-3.88-.9a4.48,4.48,0,0,0-5.09,1.08,3.68,3.68,0,0,1-4.68.57c-1.56-.9-3.1-1.83-4.6-2.81-1.78-1.15-4.8-.55-6.36.58a9.17,9.17,0,0,1-4.57,1.23c-.47,0-1.14-1.16-1.56-1.89-.75-1.31-1-3-2.92-3.28-.44-.08-.72-1-1.11-1.53s-.69-1.08-1.08-1.12a9.27,9.27,0,0,1-6.3-3.6c-1.28-1.48-2.73-2.31-4.78-1.67a7.67,7.67,0,0,1-2.05,0,11.68,11.68,0,0,1,.19-1.62,8.37,8.37,0,0,0-1-7.09,5.18,5.18,0,0,1-.08-5.22c.3-.66.64-1.31.87-2,.09-.27,0-.84-.15-.91-.31-.13-.92-.17-1.09,0-1,1.18-2.35,2.31-2.73,3.7-.71,2.57-1.85,4.37-4.54,5a4.17,4.17,0,0,0-1.33.59,5.26,5.26,0,0,1-5,.41,12.18,12.18,0,0,0-3-.31,30.67,30.67,0,0,1,.49,3.14c.08,2.06-1.29,4.14.1,6.18-1.77,2.16-2.56,5.22-5.75,6.15,0,3.19,0,6.41,0,9.62-.05,2.92-.8,3.42-3.41,2.47-1.84-.68-6.43,1-7.56,2.57-1,1.41-.1,2.53.39,3.71,1.59,3.89,1.6,3.88-2.08,5.43a.85.85,0,0,0-.14.11c.24.61.86,1.41.67,1.77-.85,1.59.3,2.25,1.17,3a1.32,1.32,0,0,1-.05.31c-2.42,3.39-4.85,6.77-7.22,10.19a1.94,1.94,0,0,0-.18,1.59c1.06,2.38,1.39,5.25,4.7,6.51L355.12,308c-.42.14-.45.62-.42,1.11.15,2.15-.27,4.59,2.88,5.1.37.06.63.7,1,1,2.4,2.42,3.33,5.55,4.05,8.37.88.09,1.75-.09,2,.25a36.1,36.1,0,0,1,3.67,4.87c.87,1.44,1.31,3.13,2.1,4.63a2.16,2.16,0,0,0,1.56,1c3.29,0,6.52-1.49,9.88-.39.21.07.53-.22.8-.33a12.56,12.56,0,0,1,3.14-1.15,6.94,6.94,0,0,0,5-2.31c1.33-1.56,2.91-1,4.37-.73s3.3.14,3.54,2.36c0,.27.49.48.72.74.64.72,1.26,1.46,2.21,2.57,1.58,0,2.27,1.72,3,3.42.41,1,.38,1.77-.6,2.32s-.94,1.3-.47,2.27a3.06,3.06,0,0,0,2.67,2.07,24.36,24.36,0,0,1,4.08.88c1.77.48,3.37,1.21,3.65,3.52,1-.52,2.32-.75,2.61-1.43,1-2.19,3-2.88,4.72-4.08.91-.66,1.67-.92,2.7,0s2.12.43,2.26-1.1c.13-1.33.18-2.66.29-4a3.65,3.65,0,0,1,2.94-3.12,6,6,0,0,0,2.44-1.79c.71-.72,1.15-1.7,1.85-2.43s1.43-.95,2-1.56c1.64-1.71,3.28-1.91,5.19-.41a5.78,5.78,0,0,0,5.94.86,3,3,0,0,1,2.55.52c1.69,1.55,3.28,2.26,5.37.74a1.87,1.87,0,0,1,1.76-.07c3.29,3.4,7.77,4.94,11.54,7.58a3,3,0,0,1,1,1.9c.24,1.71.27,3.44.39,5.35,1.74-.74,2.27.07,2.69,1.37.3.92.76,2.12,1.5,2.48,1.23.58,2,1,1.19,2.64a41.33,41.33,0,0,0,4.89-.06,2.19,2.19,0,0,0,1.56-1.35C481.46,350,482.24,349.53,483.68,349.72ZM341.8,352.17c-3.36,1.4-3.35,1.4-2.47,4.6.4,1.44,1.05,2.84.23,4.38s-1.13,2.85.87,3.7a1.52,1.52,0,0,1,.59.89q1.07,3.72,2.08,7.47c.21.81.12,1.85.6,2.4a4.81,4.81,0,0,1,1.1,3.88,19.67,19.67,0,0,1-.43,4.51c-1,3.15-.07,5.42,2.36,7.43,1.22,1,4.63,2,5.85,1,1.69-1.33,2.77-.75,3.94.56a16.88,16.88,0,0,0,1.58,1.29l4.42-5.2a54.36,54.36,0,0,1,2.66,5.42c1.38,3.85,3.47,6.74,7.82,7.62,1.78.36,2.37,2.14,2.34,4,0,2.24-1.11,3.84-2.42,5.49a3.24,3.24,0,0,0-.53,2.59c.35,1.12,3.56,2.08,4.88,2,2-.15,4.11-1.72,6.23.73,1.24-1.32,2.81-2.37,3.44-3.82,1-2.32,2-3,3.95-1.81.8-.29,1.8-1,2.14-.73,1.36.95,2.19.14,3.15-.72l4,4.87c1.3-4.66,2.55-9,3.71-13.41.34-1.25.84-1.78,2.16-1.27a8.38,8.38,0,0,0,6,0,3.28,3.28,0,0,1,2.13.34c2.65,1.2,4,3.6,5.24,6,.3.57.82,1.54,1.14,1.5,2.08-.27,2.33,1.07,2.37,2.57,2.6.08,3-2.56,5-3.48a11,11,0,0,1,2.73,1.86c1.24,1.53,2,1.82,3.74.81a14.18,14.18,0,0,0,7-9.25,31.86,31.86,0,0,1,1.21-4.56,9.64,9.64,0,0,1,2-3.29c2.17-2.12,4.55-4,6.77-6.09a2.69,2.69,0,0,0,.77-1.83,27.53,27.53,0,0,0-.49-4.52,2.41,2.41,0,0,1,1.22-2.71c2.83-2,5.75-3.82,7.77-6.76,2.55-3.71,6.33-6.62,7.11-11.7-1.54-1.19-3.19-2.77-1.33-5.25,1.31-1.74,2.33-3.92,5.38-3.39l-1.09-2.95h-2.26c-.14-1.92-.17-3.8-.46-5.63a3.73,3.73,0,0,0-1.23-2.13c-2.77-2.25-6.62-2.79-9.07-5.59-.24-.27-.59-.45-.82-.72a1.93,1.93,0,0,0-2.87-.35c-1.74,1.23-3.2.91-4.61-.59-.69-.75-1.49-1.49-2.7-.92a5.42,5.42,0,0,1-5.92-.78c-1.74-1.33-3.2-1.12-4.74.38-1.26,1.23-2.91,1.95-3.61,3.84a3.62,3.62,0,0,1-2.52,1.91,2.56,2.56,0,0,0-2.5,2.55c-.15,1.21-.21,2.42-.27,3.63-.12,2.38-1.82,3.24-3.9,2-.29-.18-.78-.47-.94-.36-1.52,1-3.43,1.86-4.36,3.3-1.16,1.81-2.9,2-4.49,2.75-.14.07-.85-.54-.83-.79.19-2.09-1.33-2.5-2.79-2.92a14.9,14.9,0,0,0-3-.59,4.91,4.91,0,0,1-4.62-3.6c-.42-1.12-.44-1.78.56-2.4s.82-1.41.45-2.35c-.68-1.7-2.07-2-3.72-1.9.09-.89.15-1.59.2-2.11-.78-.64-1.63-1-2-1.72a4.61,4.61,0,0,0-6.26-1.37,23,23,0,0,1-4,2.23c-1.51.67-3.11,1.14-4.68,1.67-.33.12-.77.33-1,.21-2.21-1.06-4.42-.27-6.61,0-4.93.61-4.92.65-6.9-3.94a19.32,19.32,0,0,0-1.1-2.5c-.89-1.45-1.9-2.84-2.85-4.24l-2.08,1.39a32.14,32.14,0,0,1-1.1-3.56,13,13,0,0,0-3.69-6.57,4.58,4.58,0,0,0-3.35-1.42c-3.58.53-7.09,1.48-10.89,2.32,1.11,3.43-.91,5.68-2.93,7.89,1.15,1.32,2.14,2.47,3.14,3.6,2.82,3.2,2.78,6,0,9.17a5.28,5.28,0,0,0-.75,2.18c-.18.76,0,1.8-.41,2.28a33.75,33.75,0,0,1-3.46,3.09Zm-89,22.42c2.22-.91,2.53.4,2.75,1.82.08.48.28.94.32,1.42a2.3,2.3,0,0,0,2.48,2.16c2.05.1,4.1,0,6.3,0-.26-1-.4-1.63-.69-2.8,1.86,1,3.27,1.77,4.64,2.59.24.14.29.61.41.93a19.34,19.34,0,0,0,1.32,3.43c1.46,2.38,3.18,4.6,4.62,7a5.71,5.71,0,0,1,.79,3.16c-.22,3.09,1.17,4.95,4.22,5.45a2.78,2.78,0,0,1,1.43,1.14c1.12,1.5,2.16,3.07,3.23,4.61l.43-.19c-.24.6-.49,1.2-.88,2.18a27.21,27.21,0,0,0,2.74,0c1.55-.17,3.22-1,4.34,1.26,1.21-2,3-2.23,4.83-2.26a34.2,34.2,0,0,0,4.52-.41,2.46,2.46,0,0,0,1.63-.87c.72-1.4,1.7-1.33,3-1.1,3.5.6,6.88,2.52,10.61,1.13a1.7,1.7,0,0,1,.89.14c1.36.38,2.41.1,2.87-1.35.89-2.82,3-3.65,5.71-3.57.24,0,.49,0,.73-.05,2.84-.24,3.33-1,2.39-3.57-.82-2.31-.46-3.12,1.86-4.08a14.61,14.61,0,0,1,1.89-.66,15.2,15.2,0,0,0,7.15-3.74c.29-.28.76-.65,1.08-.59,2.69.5,2.65-1.45,2.92-3.14a14.56,14.56,0,0,0,.34-2.15c0-1.69.57-3.74-.19-5-1.12-1.86-1-3.81-1.53-5.66-.83-2.69-1-5.79-3.85-7.52-.29-.18-.33-1.23-.11-1.7a8,8,0,0,0,.15-6.29c-.86-2.42-.29-3.52,2.4-5l-3.35-6.87a23.85,23.85,0,0,0,3.08-2c.66-.58,1.6-1.78,1.39-2.25-.79-1.76.21-2.7,1.17-3.77,2.25-2.53,2.23-4.86-.06-7.45a20.15,20.15,0,0,1-2-2.35c-.91-1.46-2.08-1.54-3.56-1.1a28.22,28.22,0,0,1-12.22.94,12.87,12.87,0,0,1-1.5-.43c.6-.45.87-.67,1.16-.87,1.74-1.19,1.82-2.08.39-3.58a14.37,14.37,0,0,1-2.18-2.64c-.84-1.48-1.76-2-3.31-1.17-1.07.56-1.9.71-2.3,0-1.34.43-2.42.85-3.55,1.12-1.37.32-2.78.52-4.12.77-.49-2.47-1.06-5.3-1.5-7.52-1.54-.54-2.76-.68-3.54-1.34a4.53,4.53,0,0,1-1.43-2.76,5.21,5.21,0,0,0-2.56-4.32,5.54,5.54,0,0,1-2.83-5.56c.19-3.22-.2-6.41-2.85-9-1.18,2-3.82,3-3.67,5.93a.89.89,0,0,1-.46.7c-1.92.34-3.75,1.93-5.83.36a1.69,1.69,0,0,0-1.56,0,16,16,0,0,1-6.32,2.56,4.62,4.62,0,0,0-2.47,2.3c-.56,1,.2,1.93,1.14,2.56,1.84,1.25,2,2.94,2.32,5.13.58,4.19-1.53,6-4.46,7.83-.36.22-.83.74-.79,1.07a19.6,19.6,0,0,0,1,5.51c.89,2,1.54,3.78-.38,5.35,1.44,2.19,1.94,4.47,1,6.63a27.91,27.91,0,0,1-4.08,6.86c-1.24,1.48-2.55,2.85-3.75,4.38-1.52,1.93-4.49,2.73-6.84,4l-.33-.41V352l-4.47-1.53c-.17.17-.32.25-.33.34-.89,6.23-3.16,12.05-5.45,17.86-.37.95-.07,1.4.72,1.89C251.25,371.49,253.17,372.05,252.76,374.59ZM272,328.4c.23-.29.38-.48.54-.66,1.82-2.08,1.16-4.14-1.48-5.1a13.42,13.42,0,0,1-2.28-1.65,6,6,0,0,0-1.66-.76,20.27,20.27,0,0,1-2.62-.54,8.78,8.78,0,0,1-5.7-8.22,1.1,1.1,0,0,0,0-.18c-.44-1.77-1.24-2.14-2.87-1.3-2,1.05-4.08,2.14-6.14,3.18s-3,.63-3.77-1.43c-.13-.37-.69-.56-1-.9a14.28,14.28,0,0,1-1.86-2.19,17.75,17.75,0,0,1-.77-2.23c-.14-.32-.51-.73-.8-.75a1.12,1.12,0,0,0-.88.62c-.19,1.21-1,1.19-1.9,1.13-3.52-.27-6.87.09-9.91,2.13a2.07,2.07,0,0,1-1.76-.11c-.81-.45-1.43-.83-2.23,0s-1.35.4-2-.3-1.35-1.76-2.22-2a32.42,32.42,0,0,0-5.09-.68,3.63,3.63,0,0,0-.19.53c-.41,3.5.84,7.16-1.08,10.51-.1.18,0,.48,0,.72.39,3.55.71,7.12,1.24,10.66.21,1.39-.16,2-1.45,2.37-1.49.43-2.93.89-3.51,2.72-.7,2.22-1.71,4.34-2.64,6.61a6.6,6.6,0,0,1-1.46-.71c-2.49-2.13-5.05-2.11-7.74-.4-.86.55-2.34.74-2.61,1.45-.74,2-2.16,1.93-3.77,2s-3.51.18-5.27.25c-4.07.17-5.77,1.72-6,5.71a1.81,1.81,0,0,1-1.6,2c-2.71.68-5.37,1.53-8.07,2.2a6.48,6.48,0,0,0-4.1,2.46c-.41.6-.94,1.59-.72,2.08.59,1.3.29,3.27,2.53,3.53a33.44,33.44,0,0,1,4.7,1.32c2.3-2.12,5.61-2.57,9.2-1.87a6.19,6.19,0,0,1-2.53,1.3c-1.93.43-2.89,1.43-2.85,3.5a10.22,10.22,0,0,1-.59,2.71l6.37,5.46c-1.74,2-3.26,3.69-4.79,5.4s-1.64,3.53,0,5.43c2,2.23,4,4.41,5.88,6.71a11,11,0,0,1,1.57,3c.49,1.23.42,3,1.27,3.72,2.46,2.14,4.5,5.08,8.13,5.45,1.18.12,1.61.76,2,1.75.26.62.92,1.48,1.46,1.53,2.46.2,4.59,1,5.84,2.56.63-.43,1.29-1.24,1.74-1.14,2.64.61,4.63-1.11,6.92-1.72.64-.17,1.27-.4,2.22-.7l-.5,1.81,5.55,1.36a1.07,1.07,0,0,0,.68-.08c1.73-.79,3.44-1.61,4.61-2.16-.3-1.48-.61-2.59-.74-3.72-.24-2.26-.19-4.58-.61-6.8-.53-2.73-1.49-5.37-2.12-8.08a6.81,6.81,0,0,0-2.46-4.1c-1.94-1.48-2.24-3.74-3.09-6,.8-.09,1.38-.18,2-.22,2.06-.17,4.12-.26,6.17-.53a2.93,2.93,0,0,0,2-1,6.56,6.56,0,0,1,6.17-3.41c3.3.09,6.83-1.37,10,1.4,1.41-1.46,3.37-2.71,4.14-4.47a128.49,128.49,0,0,0,4.71-13.15c.75-2.33,1.1-4.79,1.66-7.34l4.21,1.51c0-.7.06-1.27.11-2.21,2.69,1.19,4.34-.84,6.38-1.72a3,3,0,0,0,1.86-2.63c.1-.6.77-1.15,1.27-1.61a18.38,18.38,0,0,0,2.36-2c.88-1.14,1.44-2.53,2.28-3.72C274.35,333.79,274.18,331.12,272,328.4Zm20.84-93.29c1.66,1.46,3.16,2.87,4.75,4.17,2.84,2.33,5.37,4.81,6.45,8.53.4,1.39.67,2.46-.33,3.65a4.91,4.91,0,0,0-1,4.4,15.16,15.16,0,0,1,.29,5.23c-.52,3.14-.56,6.12,1.13,8.94,1,1.62,1,3-.92,4a1.13,1.13,0,0,0,.09,2.19c1.48.51,3.32,1.06,4.68.62a13.66,13.66,0,0,1,8.15-.11c.95.26,2.21.57,2.94.17,1.33-.74,2.19-.31,3.29.3,3.09,1.72,5.83,4.14,9.69,4.27a6.31,6.31,0,0,0,3.26-.94c.85-.42,2.2.36,3.29.23a15.85,15.85,0,0,0,3.26-1.1c3-1.06,5.39.72,5.23,3.89a1.66,1.66,0,0,0,.46,1.26c2.74,2.24,5.54,4.42,8.42,6.7,1.94-2.54,3.6-4.74,5.17-6.81-.55-.68-1.38-1.42-1.27-1.62.92-1.59-.14-2.71-1-4.05l4.25-1.61c-.66-1.6-1.19-3.08-1.87-4.49a2.93,2.93,0,0,1,1.2-3.93c2.77-1.53,5.5-4.09,9.11-2,.07.05.22,0,.54-.11a16,16,0,0,0,.35-2.38c0-2.43,0-4.86,0-7.29,0-1.41-.59-3.24,2-3.09.23,0,.52-.47.73-.75.67-.87,1.25-1.8,2-2.62a2.55,2.55,0,0,0,.44-3.12c-.27-.58.1-1.45.11-2.19a19.15,19.15,0,0,0-.09-4.55c-.14-.58-1.53-.85-2.34-1.28a4.2,4.2,0,0,1-.61-.47c.64-1.29,1.2-2.56,1.88-3.77a1.82,1.82,0,0,0-.09-2.45,4.57,4.57,0,0,1-.67-6,2.55,2.55,0,0,0,.18-.63c-.58-.14-1.3-.09-1.46-.37-1.85-3.23-4.62-3.26-7.88-2.82-1.82.25-3.84-1.08-5.58,1.17-.63-2.25-1.22-4-1.59-5.84a2.17,2.17,0,0,0-1.87-1.86,27.91,27.91,0,0,1-3.67-1.69c-1.15.64-3.73.78-4.16-.27a32.82,32.82,0,0,1-2.22-7.57c-.26-1.79-2.16-4.14-4-4.13a8.46,8.46,0,0,0-5.67,2.47,2,2,0,0,1-2.45.27c-1.69-.69-2-2.3-2.95-3.53a2.75,2.75,0,0,0-1.59-1.07c-1.93-.24-3.06-1.48-2.62-3.39a9.21,9.21,0,0,0-.64-6.32c-.9-1.92-1.7-2.51-3.79-2-5.68,1.49-11.33,3.1-17,4.54a14.51,14.51,0,0,0-7,3.93,3.3,3.3,0,0,0-.91,2c-.1,2.79,0,5.58-.06,8.38-.06,2.27-.14,4.5,1.95,6.08.13.1.12.39.27.9l-2.36-.57c-.33,2.75-1.71,5.55,1.72,7.44a6,6,0,0,1-.74.57c-2.86,1.41-2.86,1.43-1.4,4.39.46.92.87,1.85,1.3,2.78l-.42.31-2.13-.75ZM432.71,493.26c-1.17.93-1.69,2.92-3.68,1.9-2.27-1.17-2.65.8-3.43,2-.88,1.37.46,2,1.24,2.55,1.68,1.18,3.51,2.15,5.28,3.21a4.35,4.35,0,0,1,1.55,4.84,1,1,0,0,1-.66.49c-2.24-.09-3.19,1.72-4.5,3-.37.36-.83.86-1.26.88-1.69.1-4.3-2.11-4.6-3.86-1.16-.12-2.35-.26-3.55-.37-2.89-.24-2.89-.24-3.33-3.13a.79.79,0,0,0-.16-.37c-.91.11-1.83.51-2.37.21a2.59,2.59,0,0,0-2.7,0c-1.13.57-2.38.94-3.47,1.58-1.34.79-2.27.56-3-.78-1.07-2.11-2.92-2.14-5.22-2,.3,1.09.53,2,.79,2.89.47,1.6.9,3.22,1.46,4.8a9.28,9.28,0,0,0,1.47,2.93,44.06,44.06,0,0,0,3.67,3.42,16.58,16.58,0,0,1-1.28,1.46c-4,3.36-6.73,7.37-6.85,12.81,0,1.17-.55,1.55-1.79,1.11s-3.94,2.18-3.45,3.41c.67,1.69-.11,2.22-1.5,2.47-2.41.44-3.86,1.9-4.82,4.64,2.76,0,5.23,0,7.71,0,3.17,0,4.11,1,4,4.06a12.26,12.26,0,0,0,7.86-.14c-.66-1.11-.42-3.33.61-3.55a5.15,5.15,0,0,1,2.87.82A4.21,4.21,0,0,1,411,546a3.42,3.42,0,0,0,4.2,1.5,24.85,24.85,0,0,1,4.33-.49c3.11-.25,3.32-.32,4.48,2.63s3,4.2,6.05,4.81c2.86.57,6.1-.1,8.55,2.14.75.67,1.44,1.41,2.42,2.39,1.43-.36,3.36-1.23,5.29-1.23s3.7.9,5.61,1.43c1.21-2.27,1.21-2.27,4.21-1.92l1.63.19c.49-.82.78-1.88,1.24-2,2.22-.4,4.41-.74,6.08-2.48a.65.65,0,0,1,.51-.13c2.69.49,2.67-1.69,3.41-3.22l-2.52-1.68c1.17-1.56,2.36-2.94,3.29-4.48a4.25,4.25,0,0,1,3.83-2.26,3.07,3.07,0,0,0,3-2.12c1.13-2.54,2.6-4.74,5.48-5.66.57-.18.87-1.15,1.31-1.74a9.5,9.5,0,0,1,1.92-2.38c2.56-1.62,5.23-3.07,7.89-4.51,1-.53,1.65-1.09,1.57-2.35a9.94,9.94,0,0,1,2.87-7.55,28.64,28.64,0,0,0,1.83-2.5c1.92-2.65,1.87-3.2-.07-5.83a1.49,1.49,0,0,0-2.12-.56,59.37,59.37,0,0,1-6.16,2.19,4.4,4.4,0,0,1-2.68-.19c-2.29-1-4.39-2.57-6.74-3.08a10.49,10.49,0,0,1-6.93-4.41c-.44-.65-1.08-1.16-1.52-1.81-.23-.34-.44-1-.26-1.27,1.71-2.68.59-4.77-1.26-6.76a2.66,2.66,0,0,1-.36-.78,11.13,11.13,0,0,0,2.08-4.19c.52-2.44,1.48-4.2,4.43-4.07a21.17,21.17,0,0,1-1.19-3c-.53-2.34-2-3-4.26-3.16-1.44-.1-2.8-1.2-4.24-1.74-2-.75-1.6-2.46-1.75-4-.07-.64-.2-1.28-.3-1.95-3.13.48-2.33-2.69-4.09-3.94a26.29,26.29,0,0,0-4.41,1.69,2.1,2.1,0,0,1-2.27.32c-1.39-.65-2.83-1.22-4.23-1.81-1.07,2.27-.82,4.06.65,5.24.7.57,1.53,1,2.21,1.59a2.06,2.06,0,0,1,.8,1.28c0,1.42-.27,2.85-.46,4.58-3.18-1.58-5.77.23-8.52.9a13.37,13.37,0,0,0-2.42.77c-.49.23-1.14.65-1.24,1.1a2.06,2.06,0,0,1-2.25,1.69,2.65,2.65,0,0,0-3,2.86c-.07,1.92-1,2.58-2.83,2.57a2.85,2.85,0,0,0-2.15.83C430.42,490,430.59,491,432.71,493.26ZM292.25,235.86c-2.48,1.79-4.82,3.52-7.2,5.18a7.21,7.21,0,0,1-2.27,1.05c-2.29.6-4.61,1.06-6.9,1.63a71.61,71.61,0,0,0-9.28,2.5,80.23,80.23,0,0,0-9.18,4.81,3.79,3.79,0,0,0-1.44,1.53c-1.08,2.16-2.06,4.39-3.06,6.59-.78,1.7-.28,2.67,1.62,3.11,1.3.3,2.61.54,3.91.85.58.14,1.14.39,1.72.59l0,.6a17,17,0,0,1-3.28,1.18,9.69,9.69,0,0,0-6.19,3,5.43,5.43,0,0,1-2.32,1.3,31.26,31.26,0,0,1-4.77,1.15,5.68,5.68,0,0,1-2.93-.21,32.53,32.53,0,0,0-9.42-2.53,41.1,41.1,0,0,1-8.48-1.82c-2.32-.76-4.42-1.48-6.66.11a1.59,1.59,0,0,1-1.51-.19c-2.4-4-6.78-7.51-3.49-13.08.24-.4,0-1.14-.14-1.72,0-.2-.28-.51-.43-.51-1.55-.05-3.2-.4-4.61,0-2.79.86-5.47,1.39-8.28.34-2.07-.77-4.14-1.51-6.2-2.27,0,.53.12.86.34.94a3.21,3.21,0,0,1,2.24,3.66,13.39,13.39,0,0,1-.64,2.68c-.11.38-.58.81-.49,1.1,1,3.1.66,6.68,3.59,9.09a34.2,34.2,0,0,1,4,4.25,2.32,2.32,0,0,1,.52,1.58c-.17,1.8-.55,3.59-.71,5.4a7.79,7.79,0,0,0,.36,2.21c.22,1.08.77,2.2.63,3.22-.3,2-1,3.95-1.47,5.93a3.4,3.4,0,0,0-.09,1.86c.67,1.75,1.46,3.46,2.28,5.16a1.89,1.89,0,0,0,2.82,1,15.39,15.39,0,0,1,1.65-.6c.15,4.54-3.66,2.88-5.67,4.05.94,1.9,1.81,3.76,2.8,5.57a1.63,1.63,0,0,0,2.69.62c1-.72,2.08-1.28,3-2.05a2.92,2.92,0,0,1,3.14-.45,31.26,31.26,0,0,0,5.81,1.29c2.15.28,4.21.52,5.41,2.65.08.13.3.18.53.31a2,2,0,0,1,3.11-.23,2.13,2.13,0,0,0,1.91-.1,12.78,12.78,0,0,1,8.15-1.91c1.08.1,2.39.38,2.62-1.36,0-.17.45-.37.72-.41,1.38-.2,2.41,0,2.82,1.69a10.89,10.89,0,0,0,1.82,3.53,16.6,16.6,0,0,0,2.24,2.19l-.29.67a11.12,11.12,0,0,0,2.34-.57c1.81-.85,3.55-1.85,5.33-2.76,3-1.54,4.36-1,4.86,2.34.47,3.15,1.66,5.61,4.72,6.9.27.11.48.41.76.48.43.12,1,.31,1.33.14,1.35-.69,2.08,0,2.89,1a13.79,13.79,0,0,0,2.17,1.76l.41-.39a7.15,7.15,0,0,0-.16-1.4c-.83-2.72.08-4.59,2.6-5.84,1.83-.9,3-2.22,2.16-4.47a2.09,2.09,0,0,1,0-1.26c.69-1.93-.21-3.16-1.64-4.33a4.57,4.57,0,0,1-1.66-2.38,3.77,3.77,0,0,1,3.37-4.31,10.54,10.54,0,0,0,5.67-2.18,2.15,2.15,0,0,1,3.19,0c.8.67,4.42-.08,4.37-.82-.13-1.95,1.14-3.07,2.3-4.13a4.7,4.7,0,0,0,1.39-5.77c-.48-1.24,1.07-3.81,2.28-3.66,2.2.28,2.52-1.25,3.26-2.62a21.72,21.72,0,0,1,3.13-5c1-1,1.41-1.65.76-3-1-2.16-2-4.29-1.47-6.93a21.61,21.61,0,0,0,.06-6.67c-.28-2.33-.24-4.43,1.37-6.29a1.19,1.19,0,0,0,.28-1c-.92-2.09-1.51-4.51-3-6.15C298.09,240.61,295.13,238.4,292.25,235.86ZM129.16,295.39l-1.87-1.08L126,296.08l-.47-.14-.23-4.64-7.68,2.28c-1.59.48-3.33,1.54-3.9-1.27l-6.21,3.57,1.25,1.73c-2.06-.2-3.7-.38-5.35-.51a2.6,2.6,0,0,0-1.51.19c-1.34.9-2.34,7.23-1.44,8.67.06.08.21.11.1.05,1-.15,2-.64,2.56-.32,1.43.82,2.66.4,4,0,1.84-.61,3.69-1.22,5.54-1.78a12.13,12.13,0,0,1,1.78-.22c-.63,1.75-3.37,1.18-2.94,3.54l4.39-.72-.17,2.2,2,1-.74,1.13,2.81,1.44-.28.64c-1.83-.57-3.9-.22-5.43-2a2,2,0,0,0-1.63-.51c-2.45.55-4.7-.05-7.46-1.25l1,3.95a3.29,3.29,0,0,1,4.77-.5,11.09,11.09,0,0,1,2.11,1.41,6.07,6.07,0,0,1,1.74,2.75c.13.85-.58,1.9-1.12,2.73-.11.16-1.13-.29-1.73-.42a5.79,5.79,0,0,0-1.57-.26c-2.3.16-4.6.31-6.89.62a6.92,6.92,0,0,0-2,1l.06.6c5.82,1.35,10.53,3.62,9.32,11,1.33.2,2.62.46,3.93.56,1.12.07,3.39-2.57,2.92-3.5-1-1.94.87-3.05.87-4.66l.52-.07,1.4,2.73h-.61c-.28.66-1,1.49-.76,1.94a1.73,1.73,0,0,0,2.48,1.1c2-1.11,3.36-.34,4.43,1.44a4.9,4.9,0,0,0,1.05,1.26,9,9,0,0,0,1.46.82c.24-.47.49-.94.72-1.41.14-.3.25-.61.51-1.27l.9,2,1.69-.2v2.4a17.91,17.91,0,0,1,2.28-.28c2,0,1.23-2,2.24-2.87a32.75,32.75,0,0,1,.85,4.72c.15,1.1.53,2.11,1.86,1.92s1.38-1.23,1.23-2.37a20.54,20.54,0,0,1,0-2.72l.69-.26c-.19,2.07,1.14,2.82,2.65,3.31-1.41,2.27-1.2,2.4.28,3.69s2.65-.33,4.21-.05a5,5,0,0,1-.61.77c-1.72,1.35-1.75,2-.39,3.58a9.57,9.57,0,0,1,1,2.16c2.17-1.47,3.25-1.77,5-1.29-.12-.55-.25-1.08-.34-1.61s-.11-1.07-.17-1.61l.48-.15,2,2.94c1.64-1.83,5-1,6.38,1.7a4.5,4.5,0,0,1-4.44,2.5,4.41,4.41,0,0,0,2.31.85,55.8,55.8,0,0,0,6.71-.51c1.9-.3,3,.64,4.35,2l-1.7.55a2.08,2.08,0,0,0,1.67.14c2.28-.62,4.55-1.28,6.82-1.93,2.77-.79,2.73-.8,3-3.73a3.2,3.2,0,0,1,.79-2c2-1.58,4.17-2.89,6.95-2.5a16.39,16.39,0,0,0,3.28-.08c1.62-.11,3.51.26,4.07-2a.73.73,0,0,1,.39-.36c3.55-1.38,7-4.41,10.89-.7.15.15.42.16.66.24.82-1.84,1.72-3.56,2.36-5.37a4.46,4.46,0,0,1,3.59-3.36c1-.18,1.32-.73,1.17-1.83-.49-3.48-.86-7-1.21-10.48a5.57,5.57,0,0,1,.33-1.72,18.29,18.29,0,0,0,.63-2.76c.1-1.64-.14-3.3.07-4.91.27-2.06-.6-3.08-2.49-3.34a3.49,3.49,0,0,0-2,.32c-1.12.59-2.13,1.39-3.19,2.09-1.65,1.1-3.06.73-4-1.06s-1.74-3.33-2.5-5.05a1.76,1.76,0,0,0-2-1.18c-2.12.07-4.25,0-6.37,0-1,0-1.33-.34-1.2-1.31s.15-1.73.26-3.12c-1.24.74-2,1.23-2.84,1.7-1.72,1-1.88,2.28-.73,3.86a20.29,20.29,0,0,1,1.21,2.36c-.85-.33-1.21-.36-1.35-.55-.86-1.12-1.7-2.26-2.48-3.44-.4-.63-.7-1.47-1.57-.66-2.33,2.17-3.6,2.05-4.75-.14-1.14-.2-2.49-.05-2.78-.54-1-1.62-2-1.34-3.11-.49-1.69,1.28-3.3,2.68-5,4L164.1,305c.29-3.06-1.17-4.37-3.23-5.28-.26-.12-.4-.7-.45-1.08-.48-3.66-2-6.52-5.77-8.07l.25-1.83a10.5,10.5,0,0,0-1.62,1.12,10,10,0,0,0-1,1.48l-.6-.21.69-3.95-3,1.7-.63-2.62c-1.56.64-3,1.14-4.43,1.85s-2.45,1-3.19-.61c-2.29.91-2.9,2.64-3,4.79s-1.89,3-3.74,2.05c-.54-.27-1-.61-1.56-.92C130.32,291.94,129.84,292.14,129.16,295.39ZM354,313.09c-.12-1.84-.29-3.58-.3-5.32,0-.46.46-1.3.74-1.32,2.22-.13,2.66-2,3.7-3.47-2.46-1-2.62-3.44-3.61-5.33-.78-1.51-1.24-2.88.58-4,.35-.22.47-.8.71-1.26l-.91-.73c-2.68-2.07-5.38-4.12-8-6.26a2.32,2.32,0,0,1-.79-1.65c.09-2.66-1.62-4.21-3.87-3-2.73,1.5-5.86.48-8.53,1.85-.27.14-.71-.1-1.07-.1-3.67.06-6.53-1.95-9.49-3.71-1.29-.77-2.52-2.09-4.21-.62-.23.21-.91-.08-1.38-.16-2.88-.43-5.64-1.55-8.69-.25-2.64,1.12-5.18.15-7.37-1.75-.68,1.43-1.4,2.84-2,4.28-.47,1.1-1,1.8-2.41,1.67a2.33,2.33,0,0,0-2.33,2.38,11.4,11.4,0,0,0,1.27,4.13,15.64,15.64,0,0,1,2.75,10.11,4,4,0,0,0,2.06,3.9,6.78,6.78,0,0,1,3.33,5.65c.14,2.17,1.2,2.69,3.34,2.16l1.06-.26c.65,2.72,1.28,5.34,1.91,8,2.58,0,5.17.43,6.43-2.71l1.38,1.77c3.47-1.24,4-1.05,5.8,2a4.51,4.51,0,0,0,1,1.09c1.62,1.39,3.14,2.8,1.28,5.16,3.57.82,6.72-.06,9.92-.67a8.08,8.08,0,0,0,5-2.93c1.26-1.46,1.19-3,1.12-4.58,0-1.09.27-1.61,1.43-1.83C347,314.69,350.35,313.89,354,313.09ZM204.16,431.16c1.59-3.64.17-6.92-3.61-8.61-.16.66-.65,1.45-.42,1.87C201.32,426.62,202.69,428.74,204.16,431.16Zm-98.24-124c1.25,2.52,3.37,3,7.92,1.88.35-.09.59-.62.88-.94l-.32-.38a21.6,21.6,0,0,1-3.12.71c-2.31.16-.36-1.79-1.26-2.55Zm98.61,174L202.61,485l4.39.55.42-.42Zm81.73,3.34c.25-1.59-1.39-3.12.66-3.85,2.78-1,3.21-3.35,3.61-5.77a24.93,24.93,0,0,1,.39-2.88,1.9,1.9,0,0,1,1.16-1.19c5.44-1,5.45-.93,9.53,2.85.13.13.24.35.39.37.58.11,1.37.43,1.71.18,2.07-1.53,4.33-1.52,6.74-1.31,2.83.25,3.36-.57,2.39-3.16a2.15,2.15,0,0,1,.07-.59c2.88-.21,1.83-3.46,3.57-4.68-.83-1.61-.76-1.57.24-3.09,1.75-2.66,4.35-4.78,5.16-8.06.07-.26.86-.55,1.26-.48a32.6,32.6,0,0,1,3.35.93c-.3-2.21-.59-4.11-.8-6-.16-1.37-.7-3-.22-4.09,1.22-2.87.48-5.12-1.31-7.32-.65-.79-1.27-1.6-1.69-2.12,2-2.17,3.9-4.19,5.72-6.29a2.23,2.23,0,0,0,.5-1.8c-.71-2.18-1.77-4.27-1-6.68a1.43,1.43,0,0,0-.11-.88c-1.27-3.26-2.31-6.7-6.13-8a3.5,3.5,0,0,1-1.23-.77,3.66,3.66,0,0,1-.92-1.26c-.73-1.9-2.06-2.53-4.1-2.16a13.42,13.42,0,0,1-4.05.11c-1.91-.27-3.79-.81-5.67-1.27-1.13-.28-2.08-.4-2.71.93a2.13,2.13,0,0,1-1.44.82,25.37,25.37,0,0,1-3.26.34c-2.47.13-5,.08-6.71,2.35-.08.1-.34.07-.64.12-.87-2-2.5-1.39-4.14-1.25a18.25,18.25,0,0,1-3.81-.45l.81-2c-1.07-1.62-1.84-3-2.78-4.17a3,3,0,0,0-1.76-1.12c-2-.3-4.68-3.46-4.34-5.4a5.41,5.41,0,0,0-1.05-4.56c-1.76-2.32-3.32-4.79-4.93-7.22A3.06,3.06,0,0,1,268,382a1.84,1.84,0,0,0-1.46-2.23c-.64.4-1.08.89-1.56.93-2.11.19-4.23.32-6.36.35a3.53,3.53,0,0,1-3.8-3.08c-.18-.82-.38-1.63-.61-2.55-1.69.51-2.32-.1-2.58-1.75-.34-2.2-3.45-3.12-5-1.66-1.23,1.12-2.47,2.23-3.69,3.32-1.87-1.92-1.87-1.92-4.27-1.92-1.4,0-2.8-.06-4.19,0-2.46.14-4.85.5-6.17,3a3,3,0,0,1-2.87,1.49c-2.22.13-4.44.39-7.07.63.81,1.54,1.2,3.09,2.19,4a11.35,11.35,0,0,1,3.6,6.51c.25,1.31.73,2.57,1,3.87a51,51,0,0,1,1.42,7.08c.18,2.23-1.11,4.75,2.42,6.13-2.85,1.36-5.17,2.49-7.51,3.57a1,1,0,0,1-.83,0c-1.65-1.35-3.6-.72-5.43-.94-.59-.07-1.13-.59-2.15-1.16-4.47.22-5.55,4.31-7.05,7.81,2.89,2,3.48,5.07,5.05,7.64l-1.74.76c.26,1.42,1.07,3,.61,3.89a24,24,0,0,1-4.09,5.64c-1.38,1.47-1.6,3.09.21,4.06,4.39,2.34,7.47,6.09,10.86,9.56,2.31,2.36,3,5.28,4,8.2.73,2.27-.57,3.59-2.21,5.29a27.23,27.23,0,0,1-1.05-3.05,10.49,10.49,0,0,0-3.49-5.78c-2.14-1.86-4.15-3.87-6.47-6.06a45.42,45.42,0,0,0-1.33,5c-.66,4.56-1.17,9.14-1.73,13.72q-1.12,9.08-2.22,18.16l.22.09,1.9-3.11c1.41,2.23,2.7,4.06,3.77,6,.53,1-.13,1.45-1.18,1.28l-3.6-.55c-1.21,2.62-2.82,5-2.34,8a4.57,4.57,0,0,1-.24,1.61c-2.36,10.78-4.67,21.57-7.11,32.33-1.62,7.14-4.55,13.52-11.16,17.53a1.7,1.7,0,0,0-.33.41l4.76,2.72c.61-.32.62-.37,4.46.65a3.83,3.83,0,0,1,2,1.5c.92,1.43.14,4.91-1.32,6.48-.62.67-1.52,1.31-.78,2.27.43.56,1.28.79,2.31,1.39-.2-2.71,1-3.67,3-3.69,1.35,3.2,1.26,3.4,4.18,4.65,3.72,1.59,7.28,4,11.73,3a1.9,1.9,0,0,1,1.53.92c1.53,3.34,4.71,4.93,7,7,1.11-.16,2-.57,2.66-.35a4.6,4.6,0,0,0,5.47-3.24c.61-3-.13-6.75,4-7.89a6.21,6.21,0,0,1,1.07-2.78c1.36-1.7,2.89-3.27,4.32-4.93.3-.34.75-.86.67-1.19-.32-1.43-.34-2.61,1.25-3.32.22-.1.28-.75.26-1.14-.07-1.2-.21-2.39-.32-3.54l-2-.33c.21-1.12.72-2.16.5-3-.82-3.34-.95-3.35-4.38-3.36-2.55,0-3.69-1.73-2.74-4.16.76-1.92,1.56-3.82,2.26-5.76a6.4,6.4,0,0,0,.43-2.28c-.1-4-.13-4,3.72-5.24.29-.09.57-.21.87-.29,1.47-.38,3.14-1.62,3.91,1.32.5-1.1.52-2.28,1.05-2.59.69-.4,1.78-.1,2.9-.1.43-2.08,1.95-1.91,3.71-1.69,1.56.2,3.46.47,4.71-.21a8.41,8.41,0,0,1,6.57-1.09c2.86.8,4.6-.36,6.1-2.61a15.2,15.2,0,0,1,2.52-2.36c-.9-2.13,2.11-2.77,2.49-4.71-.15-.12-.43-.22-.49-.41a7.44,7.44,0,0,1-.71-2.57c0-.41.92-.93,1.52-1.13,1.24-.43,2.55-.68,4-1.05-.59-1.92-1.17-3.69-1.65-5.49-.13-.5-.15-1.33.14-1.6C279.53,490.65,281.22,485.63,286.26,484.51Z" transform="translate(-99.02 -188.14)"/><path class="cls-1" d="M509.21,604.09c1.3.09,1.11.88.69,1.88-1.19,2.85-2.29,5.73-3.5,8.58-.26.6-.94,1.58-1.21,1.51-1-.26-2.49-.64-2.85-1.41a3.7,3.7,0,0,0-2.69-2.08c-3.17-1-6.44-1.56-8.84-4.26-1.75-2-1.83-3.64.3-5.21.27-.21.52-.46,1-.9l-6.25-1.11c.79-3.2,3.23-5.88,1.39-9.36-1.3.42-2.67.85-4,1.3-.82.28-1.34.2-1.17-.85A18.6,18.6,0,0,1,485.6,585l-3.83-2c-1.39-.74-2.88-3.84-2.3-5.22.27-.64,1.1-1.06,1.7-1.55s1.16-.87,2-1.48c-1.22-.94-1.46-3-3.8-2.06-.92.38-1.24-.35-.81-1.13.82-1.47,1.79-2.85,2.59-4.32a4.13,4.13,0,0,0,.56-2.12,4.12,4.12,0,0,1,2.69-4c.51-.16,1.31-.57,1.34-.91.09-1.51,1.19-1.81,2.27-2.21s2-.87,3-1.17a8.53,8.53,0,0,0,5.5-4.1,2.41,2.41,0,0,1,1.91-.75,48.54,48.54,0,0,1,4.84.72c0-2.33,0-4.59,0-6.85,0-1.45-.15-2.9-.2-4.36-.08-2.39,1.72-3.69,3.87-2.72a2.48,2.48,0,0,1,1.21,1.51,30.3,30.3,0,0,1,.77,11.18,5,5,0,0,0,1.45,4.8c2.14,2,2,4.69,2.45,7.22q1.08,6.91,2,13.86a5.42,5.42,0,0,1-.32,2.24,7.84,7.84,0,0,1-1,2.13c-3.19,4.63-3.32,9.73-2.35,15C511.67,599.51,510.42,601.75,509.21,604.09Zm-2.79.4c3.67-2.35,4.17-5.51,3.58-9.08-.72-4.39-.74-8.67,1.87-12.59a19.09,19.09,0,0,0,1.67-3.43,3.83,3.83,0,0,0,.3-1.91c-.53-4-1.17-7.91-1.72-11.87-.51-3.72-.84-7.47-3.78-10.33a2.76,2.76,0,0,1-.45-2,42,42,0,0,0-.48-11.95c-.21-1-.54-1.86-1.65-1.76a1.69,1.69,0,0,0-1.66,2c.06,1.27.09,2.55.09,3.82,0,2.77,0,5.54,0,8.52-1.85-.28-3.68-.62-5.52-.8a2,2,0,0,0-1.61.6c-1.25,2.44-3.43,3.46-5.84,4.23a20.58,20.58,0,0,0-3.2,1.29,2.37,2.37,0,0,0-1.24,1.32c-.18,1-.71,1.36-1.64,1.58-1.77.4-2.47,1.64-2.36,3.43a3.89,3.89,0,0,1-.63,2.12c-.75,1.18-1.67,2.25-2.52,3.38,2.79.26,3.33,2.58,4.94,4-1,.74-1.75,1.33-2.52,1.9-2.11,1.55-1.9,4.13.43,5.38l5.31,2.85c-3.25,1.44-3.57,4-4.3,6.67l4.47-1.39c1.86,3.5.81,6.72-.8,9.92l7,1.15.08.56c-.91.66-1.84,1.31-2.74,2a2.11,2.11,0,0,0-.26,3.37,10.39,10.39,0,0,0,5.35,3.21,25.78,25.78,0,0,1,4.68,1.43c.64.26,1.1,1,1.64,1.47l2,1.89,4-10Z" transform="translate(-99.02 -188.14)"/><path class="cls-1" d="M238.22,553.12l-2.66-1.52,2.52-1.92.64,3.11Z" transform="translate(-99.02 -188.14)"/><path d="M212.29,558.36a5.07,5.07,0,0,1,1.77.84,3.91,3.91,0,0,1,1.46,3.12v4.07a3.91,3.91,0,0,1,4.62,1.87,3.72,3.72,0,0,1,3-.09,3.78,3.78,0,0,1,2.12,2.07,12.15,12.15,0,0,1,1.54-.22,3.82,3.82,0,0,1,3.81,3.74c0,3,.07,6,0,9a20.92,20.92,0,0,1-.68,4.31c-.67,2.66-1.44,5.29-2.19,7.93a1.34,1.34,0,0,1-1.51,1.11h-16a1.31,1.31,0,0,1-1.33-.8c-1.87-4.32-4.59-8.13-7.1-12.07-.91-1.44-1.77-2.91-2.6-4.4a4.17,4.17,0,0,1-.52-2.77,3.35,3.35,0,0,1,2.28-2.74,3.78,3.78,0,0,1,4.35,1.17c.81.94,1.63,1.86,2.52,2.88v-.48c0-4.79,0-9.59,0-14.38a4,4,0,0,1,3.21-4.11l.05,0Zm-1.84,13.23c0,3,0,6.07,0,9.1a1.29,1.29,0,0,1-.85,1.36,1.35,1.35,0,0,1-1.51-.48c-1.56-1.77-3.1-3.55-4.66-5.32a2.11,2.11,0,0,0-.63-.49,1.14,1.14,0,0,0-1.24.2,1,1,0,0,0-.24,1.09,2.45,2.45,0,0,0,.26.68c.84,1.44,1.68,2.88,2.57,4.29,2.34,3.7,4.92,7.26,6.69,11.29a.38.38,0,0,0,.41.22h13.93c.22,0,.33-.06.39-.27.55-2,1.12-4,1.66-6a23.49,23.49,0,0,0,.84-6.73c-.06-2.1,0-4.2,0-6.3,0-.1,0-.2,0-.3a1.28,1.28,0,0,0-1.25-1.36,1.25,1.25,0,0,0-1.19,1.36c0,1.11,0,2.22,0,3.32a4.89,4.89,0,0,1-.05.55,1.27,1.27,0,0,1-1.22,1.08,1.3,1.3,0,0,1-1.28-1,2.54,2.54,0,0,1-.07-.61c0-1.86,0-3.71,0-5.57a1.2,1.2,0,0,0-1.44-1.23,1.24,1.24,0,0,0-1,1.31c0,1.31,0,2.63,0,3.94a2.75,2.75,0,0,1,0,.41,1.32,1.32,0,0,1-1.38,1,1.28,1.28,0,0,1-1.18-1.28c0-1.88,0-3.76,0-5.64a2.17,2.17,0,0,0-.11-.72,1.2,1.2,0,0,0-2.32.43c0,1.31,0,2.63,0,3.94a3.18,3.18,0,0,1-.06.62,1.27,1.27,0,0,1-1.6.91,1.35,1.35,0,0,1-1-1.48V562.57a5,5,0,0,0,0-.55,1.2,1.2,0,0,0-1.5-1,1.29,1.29,0,0,0-.93,1.41Q210.45,567,210.45,571.59Z" transform="translate(-99.02 -188.14)"/><path class="cls-2" d="M210.45,571.59q0-4.59,0-9.18a1.29,1.29,0,0,1,.93-1.41,1.2,1.2,0,0,1,1.5,1,5,5,0,0,1,0,.55V574a1.35,1.35,0,0,0,1,1.48,1.27,1.27,0,0,0,1.6-.91,3.18,3.18,0,0,0,.06-.62c0-1.31,0-2.63,0-3.94a1.2,1.2,0,0,1,2.32-.43,2.17,2.17,0,0,1,.11.72c0,1.88,0,3.76,0,5.64a1.28,1.28,0,0,0,1.18,1.28,1.32,1.32,0,0,0,1.38-1,2.75,2.75,0,0,0,0-.41c0-1.31,0-2.63,0-3.94a1.24,1.24,0,0,1,1-1.31,1.2,1.2,0,0,1,1.44,1.23c0,1.86,0,3.71,0,5.57a2.54,2.54,0,0,0,.07.61,1.3,1.3,0,0,0,1.28,1,1.27,1.27,0,0,0,1.22-1.08,4.89,4.89,0,0,0,.05-.55c0-1.1,0-2.21,0-3.32a1.25,1.25,0,0,1,1.19-1.36,1.28,1.28,0,0,1,1.25,1.36c0,.1,0,.2,0,.3,0,2.1,0,4.2,0,6.3a23.49,23.49,0,0,1-.84,6.73c-.54,2-1.11,4-1.66,6-.06.21-.17.27-.39.27H211.25a.38.38,0,0,1-.41-.22c-1.77-4-4.35-7.59-6.69-11.29-.89-1.41-1.73-2.85-2.57-4.29a2.45,2.45,0,0,1-.26-.68,1,1,0,0,1,.24-1.09,1.14,1.14,0,0,1,1.24-.2,2.11,2.11,0,0,1,.63.49c1.56,1.77,3.1,3.55,4.66,5.32a1.35,1.35,0,0,0,1.51.48,1.29,1.29,0,0,0,.85-1.36C210.46,577.66,210.45,574.62,210.45,571.59Z" transform="translate(-99.02 -188.14)"/></svg>