<svg id="Calque_1" data-name="Calque 1" xmlns="http://www.w3.org/2000/svg" viewBox="0 0 253.43 253.43"><defs><style>.cls-1{fill:#fff;}.cls-2{fill:#ed6e38;opacity:0.6;}.cls-3{fill:#16abe0;}.cls-4{fill:none;stroke:#16abe0;stroke-miterlimit:10;stroke-width:5px;}</style></defs><circle class="cls-1" cx="126.71" cy="126.71" r="126.71"/><circle class="cls-2" cx="126.71" cy="126.71" r="126.71"/><rect class="cls-3" x="223.35" y="385.35" width="13.25" height="5.04" transform="translate(195.98 -316.38) rotate(45)"/><path class="cls-4" d="M318.59,332.77,207.83,440.22a1.8,1.8,0,0,0,1.25,3.09H319.84a1.81,1.81,0,0,0,1.8-1.8V334.06A1.8,1.8,0,0,0,318.59,332.77Z" transform="translate(-145.64 -267.37)"/><polygon class="cls-4" points="155.54 109.84 105.07 158.8 155.54 158.8 155.54 109.84"/><rect class="cls-3" x="164.85" y="89.81" width="7.65" height="5.99"/><rect class="cls-3" x="164.85" y="102.94" width="7.65" height="5.99"/><rect class="cls-3" x="164.85" y="116.08" width="7.65" height="5.99"/><rect class="cls-3" x="164.85" y="129.21" width="7.65" height="5.99"/><rect class="cls-3" x="164.85" y="142.35" width="7.65" height="5.99"/><rect class="cls-3" x="164.85" y="155.49" width="7.65" height="5.99"/><rect class="cls-3" x="254.63" y="354.07" width="13.25" height="5.04" transform="translate(183.02 -347.66) rotate(45)"/><path class="cls-4" d="M261.47,343.58s6-5.06,12.18,1.42a8.75,8.75,0,0,1,0,11.25c-4.7,5.92-40.38,41-40.38,41l-19.66,7.69,6-19.44Z" transform="translate(-145.64 -267.37)"/></svg>