<svg id="Calque_1" data-name="Calque 1" xmlns="http://www.w3.org/2000/svg" viewBox="0 0 512 409.94"><defs><style>.cls-1{fill:#0fabdf;}</style></defs><path class="cls-1" d="M554,263.8v2c-1,1-2,2-2.92,3-6.22,7.47-11.9,15.47-18.72,22.35-8.49,8.55-17.84,16.25-27,24.16-2.49,2.16-3.78,4.2-3.86,7.77-.32,14.22-.18,28.57-2.1,42.61a364.7,364.7,0,0,1-10,48.52A282.1,282.1,0,0,1,460.67,481a304.33,304.33,0,0,1-44.46,58.51c-6.67,6.87-14.06,13.07-21.28,19.39a251.53,251.53,0,0,1-48.56,32.79,282.08,282.08,0,0,1-52.8,21.52,300,300,0,0,1-72.13,12.19c-22.8.93-45.61.29-68.27-3.7C132,618,111.07,613,91.36,604.4,74.53,597.09,58.42,588.11,42,579.88v-1q84.63,9.45,152.9-41.56c-21.76-2-41.69-8.56-59-21.72s-29.95-29.85-36.79-51.47a89.3,89.3,0,0,0,43.22-1.29c-23-6.9-42.79-18.61-57.71-37.51S62.42,384.81,62.3,360.09c14.68,6.66,28.69,12.28,45.81,12-22.46-16.68-37-37.16-42.54-63.19s-1.81-50.78,12-74.09c57.27,66.29,128.87,101.89,215.7,108.12a22.2,22.2,0,0,0,0-4.07c-3.75-17-2.13-33.75,2.88-50.24,6.08-20,17.64-36.41,33.79-49.43a106.4,106.4,0,0,1,19.94-12.7,100.47,100.47,0,0,1,54.23-10.16,146.7,146.7,0,0,1,28.3,5.85c15.24,4.61,28,13.62,39.57,24.46a5.19,5.19,0,0,0,3.95,1.36c19.84-4.68,39.14-10.88,57-21,2-1.16,4.2-2.12,7.41-3.73-8.63,24.34-22.79,42.65-43.18,56.44,5.7-.53,11.25-1.05,16.47-2.65C527.12,272.88,540.53,268.24,554,263.8Z" transform="translate(-42 -215.83)"/></svg>